SplineFontDB: 3.0
FontName: AndadaSC-Italic
FullName: Andada SC Italic
FamilyName: Andada SC
Weight: Book
Copyright: Copyright (c) 2011-2012, Carolina Giovagnoli (huertatipografica.com.ar), with Reserved Font Name 'Andada'
Version: 1.003
ItalicAngle: -8.29999
UnderlinePosition: -50
UnderlineWidth: 50
Ascent: 800
Descent: 200
sfntRevision: 0x000100c5
LayerCount: 2
Layer: 0 1 "Back"  1
Layer: 1 1 "Fore"  0
XUID: [1021 543 1880801418 12692448]
FSType: 0
OS2Version: 3
OS2_WeightWidthSlopeOnly: 0
OS2_UseTypoMetrics: 1
CreationTime: 1337959620
ModificationTime: 1352840400
PfmFamily: 81
TTFWeight: 400
TTFWidth: 5
LineGap: 0
VLineGap: 0
Panose: 0 0 0 0 0 0 0 0 0 0
OS2TypoAscent: 1039
OS2TypoAOffset: 0
OS2TypoDescent: -280
OS2TypoDOffset: 0
OS2TypoLinegap: 0
OS2WinAscent: 1039
OS2WinAOffset: 0
OS2WinDescent: 280
OS2WinDOffset: 0
HheadAscent: 1039
HheadAOffset: 0
HheadDescent: -280
HheadDOffset: 0
OS2SubXSize: 650
OS2SubYSize: 600
OS2SubXOff: -11
OS2SubYOff: 75
OS2SupXSize: 650
OS2SupYSize: 600
OS2SupXOff: 51
OS2SupYOff: 350
OS2StrikeYSize: 50
OS2StrikeYPos: 296
OS2Vendor: 'pyrs'
OS2CodePages: 20000093.00000000
OS2UnicodeRanges: a000006f.4000204b.00000000.00000000
Lookup: 258 0 0 "'kern' Horizontal Kerning in Latin lookup 0"  {"'kern' Horizontal Kerning in Latin lookup 0 per glyph data 0"  "'kern' Horizontal Kerning in Latin lookup 0 per glyph data 1"  "'kern' Horizontal Kerning in Latin lookup 0 kerning class 2"  } ['kern' ('DFLT' <'dflt' > 'latn' <'ESP ' 'GUA ' 'dflt' > ) ]
DEI: 91125
KernClass2: 20+ 15 "'kern' Horizontal Kerning in Latin lookup 0 kerning class 2" 
 99 S s Sacute sacute Scircumflex scircumflex Scedilla scedilla Scaron scaron Scommaaccent scommaaccent
 53 T t Tcedilla tcedilla Tcaron tcaron Tbar tbar uni021A
 79 V W v w Wcircumflex wcircumflex Wgrave wgrave Wacute wacute Wdieresis wdieresis

StartChar: exclam
Encoding: 33 33 4
Width: 228
GlyphClass: 2
Flags: W
LayerCount: 2
Fore
SplineSet
130 215 m 1,0,-1
 65 227 l 1,1,2
 99 397 99 397 110.5 489.5 c 128,-1,3
 122 582 122 582 137 713 c 1,4,-1
 218 728 l 1,5,-1
 240 713 l 1,6,7
 208 592 208 592 195 538 c 0,8,9
 159 388 159 388 141 225 c 1,10,-1
 130 215 l 1,0,-1
86 119 m 0,11,12
 132 119 132 119 132 69 c 0,13,14
 132 39 132 39 114 14.5 c 128,-1,15
 96 -10 96 -10 69 -10 c 0,16,17
 24 -10 24 -10 24 39 c 0,18,19
 24 69 24 69 41.5 94 c 128,-1,20
 59 119 59 119 86 119 c 0,11,12
EndSplineSet
EndChar

StartChar: quotedbl
Encoding: 34 34 5
Width: 319
GlyphClass: 2
Flags: W
LayerCount: 2
Fore
SplineSet
118 756 m 1,0,-1
 207 756 l 1,1,-1
 158 513 l 1,2,-1
 102 516 l 1,3,-1
 115 610 l 1,4,-1
 118 756 l 1,0,-1
258 756 m 1,5,-1
 347 756 l 1,6,-1
 298 513 l 1,7,-1
 242 516 l 1,8,-1
 255 610 l 1,9,-1
 258 756 l 1,5,-1
EndSplineSet
EndChar

StartChar: numbersign
Encoding: 35 35 6
Width: 570
GlyphClass: 2
Flags: W
LayerCount: 2
Fore
SplineSet
394 219 m 1,0,-1
 527 221 l 1,1,-1
 518 150 l 1,2,-1
 374 150 l 1,3,-1
 325 -15 l 1,4,-1
 268 -5 l 1,5,-1
 314 150 l 1,6,-1
 202 150 l 1,7,-1
 153 -15 l 1,8,-1
 96 -5 l 1,9,-1
 142 150 l 1,10,-1
 23 150 l 1,11,-1
 32 216 l 1,12,-1
 162 217 l 1,13,-1
 198 338 l 1,14,-1
 70 337 l 1,15,-1
 80 408 l 1,16,-1
 218 408 l 1,17,-1
 267 572 l 1,18,-1
 324 562 l 1,19,-1
 278 408 l 1,20,-1
 390 408 l 1,21,-1
 439 572 l 1,22,-1
 496 562 l 1,23,-1
 450 408 l 1,24,-1
 575 408 l 1,25,-1
 564 342 l 1,26,-1
 430 340 l 1,27,-1
 394 219 l 1,0,-1
258 339 m 1,28,-1
 222 218 l 1,29,-1
 334 219 l 1,30,-1
 370 340 l 1,31,-1
 258 339 l 1,28,-1
EndSplineSet
EndChar

StartChar: dollar
Encoding: 36 36 7
Width: 505
GlyphClass: 2
Flags: W
LayerCount: 2
Fore
SplineSet
115 129 m 2,0,1
 115 126 115 126 115 115 c 128,-1,2
 115 104 115 104 116 71 c 1,3,4
 163 52 163 52 205 48 c 1,5,-1
 251 292 l 1,6,-1
 225 306 l 1,7,8
 167 336 167 336 131.5 374.5 c 128,-1,9
 96 413 96 413 96 472 c 0,10,11
 96 559 96 559 159 610 c 128,-1,12
 222 661 222 661 317 661 c 2,13,-1
 319 661 l 1,14,-1
 338 759 l 1,15,-1
 370 756 l 1,16,-1
 352 659 l 1,17,18
 408 654 408 654 491 631 c 1,19,-1
 455 487 l 1,20,-1
 404 493 l 1,21,-1
 412 540 l 2,22,23
 412 544 412 544 406 589 c 1,24,25
 369 605 369 605 342 607 c 1,26,-1
 300 379 l 1,27,-1
 326 364 l 1,28,29
 427 302 427 302 448 249 c 0,30,31
 458 222 458 222 458 190 c 0,32,33
 458 99 458 99 392.5 46 c 128,-1,34
 327 -7 327 -7 229 -10 c 1,35,-1
 214 -92 l 1,36,-1
 180 -89 l 1,37,-1
 195 -9 l 1,38,39
 148 -6 148 -6 106 6 c 128,-1,40
 64 18 64 18 46 28 c 2,41,-1
 28 39 l 1,42,-1
 65 189 l 1,43,-1
 124 183 l 1,44,-1
 115 129 l 2,0,1
327 84.5 m 128,-1,46
 360 117 360 117 360 173 c 128,-1,47
 360 229 360 229 281 275 c 1,48,-1
 240 48 l 1,49,45
 294 52 294 52 327 84.5 c 128,-1,46
190 499 m 0,50,51
 190 467 190 467 210.5 444 c 128,-1,52
 231 421 231 421 270 397 c 1,53,-1
 310 609 l 1,54,-1
 307 609 l 2,55,56
 258 609 258 609 224 579.5 c 128,-1,57
 190 550 190 550 190 499 c 0,50,51
EndSplineSet
EndChar

StartChar: percent
Encoding: 37 37 8
Width: 785
GlyphClass: 2
Flags: W
LayerCount: 2
Fore
SplineSet
210 -49 m 1,0,-1
 165 -17 l 1,1,-1
 599 719 l 1,2,-1
 644 690 l 1,3,-1
 210 -49 l 1,0,-1
720 196 m 0,4,5
 720 111 720 111 671 50 c 128,-1,6
 622 -11 622 -11 543 -11 c 0,7,8
 482 -11 482 -11 448.5 26.5 c 128,-1,9
 415 64 415 64 415 127 c 0,10,11
 415 212 415 212 464 274 c 128,-1,12
 513 336 513 336 592 336 c 0,13,14
 653 336 653 336 686.5 298 c 128,-1,15
 720 260 720 260 720 196 c 0,4,5
584 283 m 0,16,17
 539 283 539 283 514 234 c 128,-1,18
 489 185 489 185 489 127 c 0,19,20
 489 42 489 42 551 42 c 0,21,22
 598 42 598 42 622 90.5 c 128,-1,23
 646 139 646 139 646 198 c 0,24,25
 646 283 646 283 584 283 c 0,16,17
384 526 m 0,26,27
 384 441 384 441 335 380 c 128,-1,28
 286 319 286 319 207 319 c 0,29,30
 146 319 146 319 112.5 356.5 c 128,-1,31
 79 394 79 394 79 457 c 0,32,33
 79 542 79 542 128 604 c 128,-1,34
 177 666 177 666 256 666 c 0,35,36
 317 666 317 666 350.5 628 c 128,-1,37
 384 590 384 590 384 526 c 0,26,27
248 613 m 0,38,39
 203 613 203 613 178 564 c 128,-1,40
 153 515 153 515 153 457 c 0,41,42
 153 372 153 372 215 372 c 0,43,44
 262 372 262 372 286 420.5 c 128,-1,45
 310 469 310 469 310 528 c 0,46,47
 310 613 310 613 248 613 c 0,38,39
EndSplineSet
EndChar

StartChar: ampersand
Encoding: 38 38 9
Width: 586
GlyphClass: 2
Flags: W
LayerCount: 2
Fore
SplineSet
155 -11 m 0,0,1
 25 -11 25 -11 25 151 c 0,2,3
 25 224 25 224 64.5 307.5 c 128,-1,4
 104 391 104 391 163 447 c 128,-1,5
 222 503 222 503 274 503 c 0,6,7
 404 503 404 503 404 416 c 0,8,9
 404 371 404 371 342 325 c 1,10,11
 424 361 424 361 496 405 c 1,12,13
 497 415 497 415 497 433 c 0,14,15
 497 533 497 533 456 624 c 1,16,-1
 548 652 l 1,17,18
 569 565 569 565 569 521 c 128,-1,19
 569 477 569 477 566 450 c 1,20,21
 648 506 648 506 708 564 c 1,22,-1
 763 511 l 1,23,-1
 757 481 l 1,24,25
 666 441 666 441 555 383 c 1,26,27
 519 217 519 217 405.5 103 c 128,-1,28
 292 -11 292 -11 155 -11 c 0,0,1
200 62 m 0,29,30
 287 62 287 62 371 148 c 128,-1,31
 455 234 455 234 485 346 c 1,32,33
 378 291 378 291 293.5 256.5 c 128,-1,34
 209 222 209 222 113 204 c 1,35,36
 111 178 111 178 111 165 c 0,37,38
 111 108 111 108 131 85 c 128,-1,39
 151 62 151 62 200 62 c 0,29,30
250 444 m 0,40,41
 217 444 217 444 180 388 c 128,-1,42
 143 332 143 332 124 257 c 1,43,44
 324 307 324 307 324 396 c 0,45,46
 324 423 324 423 308 433.5 c 128,-1,47
 292 444 292 444 250 444 c 0,40,41
EndSplineSet
EndChar

StartChar: quotesingle
Encoding: 39 39 10
Width: 179
GlyphClass: 2
Flags: W
LayerCount: 2
Fore
SplineSet
118 756 m 1,0,-1
 207 756 l 1,1,-1
 158 513 l 1,2,-1
 102 516 l 1,3,-1
 115 610 l 1,4,-1
 118 756 l 1,0,-1
EndSplineSet
EndChar

StartChar: parenleft
Encoding: 40 40 11
Width: 275
GlyphClass: 2
Flags: W
LayerCount: 2
Fore
SplineSet
160 386.5 m 128,-1,1
 139 292 139 292 139 221 c 128,-1,2
 139 150 139 150 142 106 c 0,3,4
 149 27 149 27 157 8 c 1,5,6
 159 0 159 0 202 -82 c 1,7,-1
 217 -109 l 1,8,-1
 180 -135 l 1,9,10
 58 7 58 7 58 213 c 1,11,12
 57 372 57 372 120 515.5 c 128,-1,13
 183 659 183 659 308 769 c 1,14,-1
 335 743 l 1,15,16
 327 735 327 735 313.5 720 c 128,-1,17
 300 705 300 705 266.5 652 c 128,-1,18
 233 599 233 599 207 540 c 128,-1,0
 181 481 181 481 160 386.5 c 128,-1,1
EndSplineSet
EndChar

StartChar: parenright
Encoding: 41 41 12
Width: 275
GlyphClass: 2
Flags: W
LayerCount: 2
Fore
SplineSet
174 452 m 0,0,1
 174 560 174 560 156 626 c 1,2,-1
 96 743 l 1,3,-1
 133 769 l 1,4,5
 255 625 255 625 255 421 c 1,6,7
 256 262 256 262 193 118.5 c 128,-1,8
 130 -25 130 -25 5 -135 c 1,9,-1
 -22 -109 l 1,10,11
 5 -82 5 -82 42.5 -23.5 c 128,-1,12
 80 35 80 35 106 94 c 128,-1,13
 132 153 132 153 153 247.5 c 128,-1,14
 174 342 174 342 174 441 c 0,15,16
 174 447 174 447 174 452 c 0,0,1
EndSplineSet
EndChar

StartChar: asterisk
Encoding: 42 42 13
Width: 422
GlyphClass: 2
Flags: W
LayerCount: 2
Fore
SplineSet
105 650 m 1,0,-1
 120 680 l 1,1,-1
 225 627 l 1,2,-1
 253 745 l 1,3,-1
 285 747 l 1,4,-1
 290 631 l 1,5,-1
 407 668 l 1,6,-1
 428 642 l 1,7,-1
 328 576 l 1,8,-1
 418 494 l 1,9,-1
 402 463 l 1,10,-1
 298 517 l 1,11,-1
 270 398 l 1,12,-1
 237 396 l 1,13,-1
 232 515 l 1,14,-1
 115 478 l 1,15,-1
 94 505 l 1,16,-1
 194 569 l 1,17,-1
 105 650 l 1,0,-1
EndSplineSet
EndChar

StartChar: plus
Encoding: 43 43 14
Width: 560
GlyphClass: 2
Flags: W
LayerCount: 2
Fore
SplineSet
332 221 m 1,0,-1
 305 0 l 1,1,-1
 230 0 l 1,2,-1
 259 220 l 1,3,-1
 49 218 l 1,4,-1
 59 293 l 1,5,-1
 269 293 l 1,6,-1
 299 511 l 1,7,-1
 369 511 l 1,8,-1
 341 293 l 1,9,-1
 544 293 l 1,10,-1
 534 223 l 1,11,-1
 332 221 l 1,0,-1
EndSplineSet
EndChar

StartChar: comma
Encoding: 44 44 15
Width: 204
GlyphClass: 2
Flags: W
LayerCount: 2
Fore
SplineSet
72 129 m 0,0,1
 131 129 131 129 129 54 c 1,2,3
 129 -11 129 -11 89 -66.5 c 128,-1,4
 49 -122 49 -122 -15 -136 c 1,5,-1
 -24 -104 l 1,6,7
 50 -75 50 -75 55 -10 c 1,8,9
 31 -10 31 -10 18 4.5 c 128,-1,10
 5 19 5 19 5.5 47.5 c 128,-1,11
 6 76 6 76 24.5 102.5 c 128,-1,12
 43 129 43 129 72 129 c 0,0,1
EndSplineSet
EndChar

StartChar: hyphen
Encoding: 45 45 16
Width: 282
GlyphClass: 2
Flags: W
LayerCount: 2
Fore
SplineSet
31 218 m 1,0,-1
 40 289 l 1,1,-1
 262 289 l 1,2,-1
 246 218 l 1,3,-1
 31 218 l 1,0,-1
EndSplineSet
EndChar

StartChar: period
Encoding: 46 46 17
Width: 197
GlyphClass: 2
Flags: W
LayerCount: 2
Fore
SplineSet
82 129 m 0,0,1
 133 129 133 129 133 74 c 0,2,3
 133 42 133 42 114 16 c 128,-1,4
 95 -10 95 -10 66 -10 c 0,5,6
 16 -10 16 -10 16 44 c 0,7,8
 16 76 16 76 34.5 102.5 c 128,-1,9
 53 129 53 129 82 129 c 0,0,1
EndSplineSet
EndChar

StartChar: slash
Encoding: 47 47 18
Width: 376
GlyphClass: 2
Flags: W
LayerCount: 2
Fore
SplineSet
38 -67 m 1,0,-1
 -22 -47 l 1,1,-1
 403 773 l 1,2,-1
 463 753 l 1,3,-1
 38 -67 l 1,0,-1
EndSplineSet
EndChar

StartChar: zero
Encoding: 48 48 19
Width: 562
GlyphClass: 2
Flags: W
LayerCount: 2
Fore
SplineSet
54 246 m 0,0,1
 54 431 54 431 133.5 546.5 c 128,-1,2
 213 662 213 662 341 662 c 0,3,4
 431 662 431 662 481 594.5 c 128,-1,5
 531 527 531 527 531 406 c 0,6,7
 531 221 531 221 451.5 105.5 c 128,-1,8
 372 -10 372 -10 244 -10 c 0,9,10
 153 -10 153 -10 103.5 57 c 128,-1,11
 54 124 54 124 54 246 c 0,0,1
435 420 m 0,12,13
 435 507 435 507 408 554.5 c 128,-1,14
 381 602 381 602 332 602 c 0,15,16
 252 602 252 602 201 498.5 c 128,-1,17
 150 395 150 395 150 231 c 0,18,19
 150 145 150 145 177 97.5 c 128,-1,20
 204 50 204 50 252 50 c 0,21,22
 332 50 332 50 383.5 154 c 128,-1,23
 435 258 435 258 435 420 c 0,12,13
EndSplineSet
EndChar

StartChar: one
Encoding: 49 49 20
Width: 379
GlyphClass: 2
Flags: W
LayerCount: 2
Fore
SplineSet
302 54 m 1,0,-1
 286 -5 l 1,1,2
 235 0 235 0 156 0 c 1,3,-1
 34 -5 l 1,4,-1
 36 45 l 1,5,-1
 125 61 l 1,6,7
 126 65 126 65 130 82 c 0,8,9
 142 124 142 124 144 137 c 2,10,-1
 201 524 l 1,11,-1
 82 465 l 1,12,-1
 62 507 l 1,13,14
 189 599 189 599 202 609 c 0,15,16
 217 620 217 620 254 660 c 2,17,-1
 265 672 l 1,18,-1
 311 660 l 1,19,20
 277 476 277 476 270 426 c 2,21,-1
 232 167 l 2,22,23
 229 147 229 147 223 61 c 1,24,-1
 302 54 l 1,0,-1
EndSplineSet
EndChar

StartChar: two
Encoding: 50 50 21
Width: 501
GlyphClass: 2
Flags: W
LayerCount: 2
Fore
SplineSet
110 626 m 1,0,1
 203 662 203 662 290.5 662 c 128,-1,2
 378 662 378 662 424 625.5 c 128,-1,3
 470 589 470 589 470 524 c 128,-1,4
 470 459 470 459 444 409 c 128,-1,5
 418 359 418 359 344.5 286.5 c 128,-1,6
 271 214 271 214 103 73 c 1,7,-1
 282 73 l 2,8,9
 295 73 295 73 365 81 c 1,10,-1
 384 116 l 1,11,-1
 396 163 l 1,12,-1
 449 159 l 1,13,-1
 420 17 l 1,14,-1
 398 -3 l 1,15,16
 305 0 305 0 282 0 c 2,17,-1
 12 0 l 1,18,-1
 9 73 l 1,19,20
 242 285 242 285 307.5 362 c 128,-1,21
 373 439 373 439 373 504 c 0,22,23
 373 550 373 550 347 578 c 128,-1,24
 321 606 321 606 274 606 c 128,-1,25
 227 606 227 606 177 578 c 1,26,27
 164 549 164 549 160 527 c 1,28,-1
 156 482 l 1,29,-1
 101 479 l 1,30,-1
 110 626 l 1,0,1
EndSplineSet
EndChar

StartChar: three
Encoding: 51 51 22
Width: 457
GlyphClass: 2
Flags: W
LayerCount: 2
Fore
SplineSet
85 633 m 1,0,1
 171 662 171 662 249 662 c 128,-1,2
 327 662 327 662 371.5 626.5 c 128,-1,3
 416 591 416 591 416 526 c 128,-1,4
 416 461 416 461 379 411.5 c 128,-1,5
 342 362 342 362 275 335 c 1,6,7
 333 318 333 318 364 280 c 128,-1,8
 395 242 395 242 395 189 c 0,9,10
 395 80 395 80 277.5 -2.5 c 128,-1,11
 160 -85 160 -85 -21 -105 c 1,12,-1
 -32 -52 l 1,13,14
 113 -29 113 -29 206 36.5 c 128,-1,15
 299 102 299 102 299 183 c 0,16,17
 299 231 299 231 268 260 c 128,-1,18
 237 289 237 289 184 289 c 1,19,-1
 117 286 l 1,20,-1
 110 334 l 1,21,22
 217 348 217 348 268.5 391 c 128,-1,23
 320 434 320 434 320 510 c 0,24,25
 320 608 320 608 232 608 c 0,26,27
 189 608 189 608 153 586 c 1,28,29
 138 547 138 547 136 536 c 2,30,-1
 131 491 l 1,31,-1
 76 488 l 1,32,-1
 85 633 l 1,0,1
EndSplineSet
EndChar

StartChar: four
Encoding: 52 52 23
Width: 515
GlyphClass: 2
Flags: W
LayerCount: 2
Fore
SplineSet
426 739 m 1,0,-1
 486 688 l 1,1,2
 485 687 485 687 461.5 664.5 c 128,-1,3
 438 642 438 642 412 617 c 0,4,5
 341 549 341 549 330 534 c 2,6,-1
 108 254 l 1,7,-1
 300 257 l 1,8,-1
 320 399 l 1,9,-1
 403 426 l 1,10,-1
 379 262 l 1,11,-1
 469 268 l 1,12,-1
 459 201 l 1,13,-1
 370 201 l 1,14,-1
 365 167 l 2,15,16
 356 104 356 104 356 61 c 1,17,-1
 435 54 l 1,18,-1
 420 -5 l 1,19,20
 371 0 371 0 292 0 c 1,21,-1
 158 -5 l 1,22,-1
 160 45 l 1,23,-1
 262 61 l 1,24,25
 281 127 281 127 282 137 c 2,26,-1
 292 201 l 1,27,-1
 42 201 l 1,28,-1
 6 254 l 1,29,-1
 426 739 l 1,0,-1
EndSplineSet
EndChar

StartChar: five
Encoding: 53 53 24
Width: 449
GlyphClass: 2
Flags: W
LayerCount: 2
Fore
SplineSet
242 572 m 2,0,-1
 179 572 l 1,1,-1
 136 355 l 1,2,3
 183 364 183 364 216 364 c 0,4,5
 306 364 306 364 356.5 323 c 128,-1,6
 407 282 407 282 407 205 c 0,7,8
 407 74 407 74 296 -6 c 128,-1,9
 185 -86 185 -86 7 -105 c 1,10,-1
 -4 -52 l 1,11,12
 311 4 311 4 311 188 c 0,13,14
 311 241 311 241 279 269 c 128,-1,15
 247 297 247 297 197.5 297 c 128,-1,16
 148 297 148 297 93 284 c 1,17,-1
 59 305 l 1,18,-1
 124 634 l 1,19,-1
 145 652 l 1,20,-1
 212 652 l 1,21,-1
 449 662 l 1,22,-1
 445 595 l 1,23,24
 271 572 271 572 242 572 c 2,0,-1
EndSplineSet
EndChar

StartChar: six
Encoding: 54 54 25
Width: 508
GlyphClass: 2
Flags: W
LayerCount: 2
Fore
SplineSet
303 403 m 0,0,1
 383 403 383 403 431 355 c 128,-1,2
 479 307 479 307 479 228 c 0,3,4
 479 126 479 126 407 57.5 c 128,-1,5
 335 -11 335 -11 238.5 -11 c 128,-1,6
 142 -11 142 -11 90.5 47 c 128,-1,7
 39 105 39 105 39 193.5 c 128,-1,8
 39 282 39 282 71.5 368 c 128,-1,9
 104 454 104 454 163.5 531 c 128,-1,10
 223 608 223 608 318.5 666.5 c 128,-1,11
 414 725 414 725 529 747 c 1,12,-1
 534 694 l 1,13,14
 447 672 447 672 376.5 629 c 128,-1,15
 306 586 306 586 261.5 535 c 128,-1,16
 217 484 217 484 187 424 c 0,17,18
 133 317 133 317 133 205 c 0,19,20
 133 139 133 139 161 92.5 c 128,-1,21
 189 46 189 46 246.5 46 c 128,-1,22
 304 46 304 46 343.5 99 c 128,-1,23
 383 152 383 152 383 211.5 c 128,-1,24
 383 271 383 271 356.5 307.5 c 128,-1,25
 330 344 330 344 285 344 c 0,26,27
 256 344 256 344 223 339 c 1,28,-1
 225 387 l 1,29,30
 267 403 267 403 303 403 c 0,0,1
EndSplineSet
EndChar

StartChar: seven
Encoding: 55 55 26
Width: 491
GlyphClass: 2
Flags: W
LayerCount: 2
Fore
SplineSet
262 652 m 2,0,-1
 523 652 l 1,1,-1
 533 613 l 1,2,-1
 149 -105 l 1,3,-1
 75 -80 l 1,4,-1
 356 422 l 2,5,6
 366 438 366 438 422 579 c 1,7,-1
 260 579 l 2,8,9
 238 579 238 579 178 573 c 1,10,11
 162 548 162 548 159 539 c 2,12,-1
 147 489 l 1,13,-1
 93 493 l 1,14,-1
 123 641 l 1,15,-1
 145 661 l 1,16,17
 239 652 239 652 262 652 c 2,0,-1
EndSplineSet
EndChar

StartChar: eight
Encoding: 56 56 27
Width: 505
GlyphClass: 2
Flags: W
LayerCount: 2
Fore
SplineSet
189 347 m 1,0,1
 98 409 98 409 98 495 c 128,-1,2
 98 581 98 581 163 631.5 c 128,-1,3
 228 682 228 682 308 682 c 128,-1,4
 388 682 388 682 437.5 643.5 c 128,-1,5
 487 605 487 605 487 539 c 0,6,7
 487 431 487 431 342 347 c 1,8,9
 457 279 457 279 457 185.5 c 128,-1,10
 457 92 457 92 386 41 c 128,-1,11
 315 -10 315 -10 224 -10 c 128,-1,12
 133 -10 133 -10 78.5 28.5 c 128,-1,13
 24 67 24 67 24 137 c 128,-1,14
 24 207 24 207 73 259 c 128,-1,15
 122 311 122 311 189 347 c 1,0,1
115 145 m 0,16,17
 115 96 115 96 144.5 66.5 c 128,-1,18
 174 37 174 37 226.5 37 c 128,-1,19
 279 37 279 37 322 76.5 c 128,-1,20
 365 116 365 116 365 174 c 0,21,22
 365 220 365 220 326 256 c 0,23,24
 296 284 296 284 244 316 c 1,25,-1
 237 319 l 1,26,27
 115 240 115 240 115 145 c 0,16,17
400 535 m 0,28,29
 400 578 400 578 374.5 606.5 c 128,-1,30
 349 635 349 635 306 635 c 128,-1,31
 263 635 263 635 224 597 c 128,-1,32
 185 559 185 559 185 508 c 0,33,34
 185 460 185 460 221 428 c 0,35,36
 250 402 250 402 299 372 c 1,37,38
 400 446 400 446 400 535 c 0,28,29
EndSplineSet
EndChar

StartChar: nine
Encoding: 57 57 28
Width: 510
GlyphClass: 2
Flags: W
LayerCount: 2
Fore
SplineSet
232 248 m 0,0,1
 150 248 150 248 100.5 295 c 128,-1,2
 51 342 51 342 51 421 c 0,3,4
 51 523 51 523 123 592.5 c 128,-1,5
 195 662 195 662 292.5 662 c 128,-1,6
 390 662 390 662 442 603 c 128,-1,7
 494 544 494 544 494 454.5 c 128,-1,8
 494 365 494 365 465 281 c 128,-1,9
 436 197 436 197 379.5 119 c 128,-1,10
 323 41 323 41 228 -19.5 c 128,-1,11
 133 -80 133 -80 13 -107 c 1,12,-1
 2 -55 l 1,13,14
 110 -24 110 -24 189 32 c 128,-1,15
 268 88 268 88 311 158 c 0,16,17
 396 295 396 295 396 451 c 0,18,19
 396 512 396 512 368.5 558.5 c 128,-1,20
 341 605 341 605 282.5 605 c 128,-1,21
 224 605 224 605 186.5 551 c 128,-1,22
 149 497 149 497 149 437.5 c 128,-1,23
 149 378 149 378 176.5 342.5 c 128,-1,24
 204 307 204 307 250 307 c 1,25,-1
 310 310 l 1,26,-1
 309 263 l 1,27,28
 274 248 274 248 232 248 c 0,0,1
EndSplineSet
EndChar

StartChar: colon
Encoding: 58 58 29
Width: 198
GlyphClass: 2
Flags: W
LayerCount: 2
Fore
SplineSet
121 479 m 0,0,1
 172 479 172 479 172 424 c 0,2,3
 172 392 172 392 153 366 c 128,-1,4
 134 340 134 340 105 340 c 0,5,6
 55 340 55 340 55 394 c 0,7,8
 55 426 55 426 73.5 452.5 c 128,-1,9
 92 479 92 479 121 479 c 0,0,1
78 129 m 0,10,11
 129 129 129 129 129 74 c 0,12,13
 129 42 129 42 110 16 c 128,-1,14
 91 -10 91 -10 62 -10 c 0,15,16
 12 -10 12 -10 12 44 c 0,17,18
 12 76 12 76 30.5 102.5 c 128,-1,19
 49 129 49 129 78 129 c 0,10,11
EndSplineSet
EndChar

StartChar: semicolon
Encoding: 59 59 30
Width: 205
GlyphClass: 2
Flags: W
LayerCount: 2
Fore
SplineSet
129 479 m 0,0,1
 180 479 180 479 180 424 c 0,2,3
 180 392 180 392 161 366 c 128,-1,4
 142 340 142 340 113 340 c 0,5,6
 63 340 63 340 63 394 c 0,7,8
 63 426 63 426 81.5 452.5 c 128,-1,9
 100 479 100 479 129 479 c 0,0,1
82 129 m 0,10,11
 141 129 141 129 139 54 c 1,12,13
 139 -11 139 -11 99 -66.5 c 128,-1,14
 59 -122 59 -122 -5 -136 c 1,15,-1
 -14 -104 l 1,16,17
 60 -75 60 -75 65 -10 c 1,18,19
 41 -10 41 -10 28 4.5 c 128,-1,20
 15 19 15 19 15.5 47.5 c 128,-1,21
 16 76 16 76 34.5 102.5 c 128,-1,22
 53 129 53 129 82 129 c 0,10,11
EndSplineSet
EndChar

StartChar: less
Encoding: 60 60 31
Width: 562
GlyphClass: 2
Flags: W
LayerCount: 2
Fore
SplineSet
116 247 m 1,0,-1
 455 513 l 1,1,-1
 501 460 l 1,2,-1
 218 248 l 1,3,-1
 443 38 l 1,4,-1
 382 -15 l 1,5,-1
 116 247 l 1,0,-1
EndSplineSet
EndChar

StartChar: equal
Encoding: 61 61 32
Width: 540
GlyphClass: 2
Flags: W
LayerCount: 2
Fore
SplineSet
490 312 m 1,0,-1
 55 307 l 1,1,-1
 66 378 l 1,2,-1
 501 378 l 1,3,-1
 490 312 l 1,0,-1
37 185 m 1,4,-1
 472 190 l 1,5,-1
 462 119 l 1,6,-1
 27 119 l 1,7,-1
 37 185 l 1,4,-1
EndSplineSet
EndChar

StartChar: greater
Encoding: 62 62 33
Width: 560
GlyphClass: 2
Flags: W
LayerCount: 2
Fore
SplineSet
207 513 m 1,0,-1
 472 247 l 1,1,-1
 132 -15 l 1,2,-1
 87 38 l 1,3,-1
 370 248 l 1,4,-1
 147 460 l 1,5,-1
 207 513 l 1,0,-1
EndSplineSet
EndChar

StartChar: question
Encoding: 63 63 34
Width: 403
GlyphClass: 2
Flags: W
LayerCount: 2
Fore
SplineSet
188 365 m 0,0,1
 257 365 257 365 298.5 416.5 c 128,-1,2
 340 468 340 468 340 538 c 0,3,4
 340 677 340 677 244 677 c 0,5,6
 200 677 200 677 173 661 c 1,7,-1
 127 549 l 1,8,-1
 92 557 l 1,9,-1
 96 668 l 1,10,-1
 113 694 l 1,11,12
 193 727 193 727 251 727 c 0,13,14
 336 727 336 727 383 681.5 c 128,-1,15
 430 636 430 636 430 553 c 0,16,17
 430 445 430 445 360 378 c 128,-1,18
 290 311 290 311 183 311 c 0,19,20
 180 311 180 311 177 311 c 1,21,-1
 169 225 l 1,22,-1
 157 215 l 1,23,-1
 93 227 l 1,24,-1
 107 352 l 1,25,-1
 139 369 l 1,26,27
 169 365 169 365 188 365 c 0,0,1
118 119 m 0,28,29
 164 119 164 119 164 69 c 0,30,31
 164 39 164 39 146 14.5 c 128,-1,32
 128 -10 128 -10 101 -10 c 0,33,34
 56 -10 56 -10 56 39 c 0,35,36
 56 69 56 69 73.5 94 c 128,-1,37
 91 119 91 119 118 119 c 0,28,29
EndSplineSet
EndChar

StartChar: at
Encoding: 64 64 35
Width: 914
GlyphClass: 2
Flags: W
LayerCount: 2
Fore
SplineSet
375 -10 m 0,0,1
 274 -10 274 -10 274 139 c 0,2,3
 274 214 274 214 309 300 c 128,-1,4
 344 386 344 386 396 444.5 c 128,-1,5
 448 503 448 503 494 503 c 0,6,7
 515 503 515 503 561.5 497 c 128,-1,8
 608 491 608 491 617 490 c 1,9,-1
 674 503 l 1,10,-1
 697 488 l 1,11,12
 676 397 676 397 664.5 342.5 c 128,-1,13
 653 288 653 288 643 207 c 128,-1,14
 633 126 633 126 633 90 c 128,-1,15
 633 54 633 54 633 48 c 1,16,17
 716 62 716 62 767.5 142 c 128,-1,18
 819 222 819 222 819 347 c 128,-1,19
 819 472 819 472 740 545 c 128,-1,20
 661 618 661 618 534 618 c 128,-1,21
 407 618 407 618 318 551 c 128,-1,22
 229 484 229 484 187 379 c 128,-1,23
 145 274 145 274 145 150 c 0,24,25
 145 147 145 147 145 144 c 0,26,27
 145 5 145 5 213.5 -73 c 128,-1,28
 282 -151 282 -151 423 -151 c 0,29,30
 472 -151 472 -151 593 -125 c 2,31,-1
 635 -116 l 1,32,-1
 640 -148 l 1,33,34
 475 -213 475 -213 415 -213 c 0,35,36
 242 -213 242 -213 147 -119.5 c 128,-1,37
 52 -26 52 -26 52 146 c 1,38,39
 54 376 54 376 183.5 521.5 c 128,-1,40
 313 667 313 667 534 667 c 0,41,42
 701 667 701 667 800.5 586 c 128,-1,43
 900 505 900 505 900 356 c 128,-1,44
 900 207 900 207 809 102 c 128,-1,45
 718 -3 718 -3 570 -15 c 1,46,-1
 546 0 l 1,47,48
 557 63 557 63 570 173 c 1,49,50
 528 90 528 90 476.5 40 c 128,-1,51
 425 -10 425 -10 375 -10 c 0,0,1
480 449 m 0,52,53
 443 449 443 449 402 345 c 128,-1,54
 361 241 361 241 361 148 c 0,55,56
 361 104 361 104 373.5 77 c 128,-1,57
 386 50 386 50 406 50 c 0,58,59
 435 50 435 50 477 108 c 128,-1,60
 519 166 519 166 553 252.5 c 128,-1,61
 587 339 587 339 595 414 c 1,62,63
 525 449 525 449 480 449 c 0,52,53
EndSplineSet
EndChar

StartChar: A
Encoding: 65 65 36
Width: 644
GlyphClass: 2
Flags: W
LayerCount: 2
Fore
SplineSet
612 54 m 1,0,-1
 600 0 l 1,1,-1
 502 0 l 1,2,-1
 360 -5 l 1,3,-1
 364 44 l 1,4,-1
 437 64 l 1,5,-1
 427 172 l 1,6,-1
 416 232 l 1,7,-1
 204 232 l 1,8,-1
 158 127 l 1,9,-1
 139 64 l 1,10,-1
 205 54 l 1,11,-1
 193 0 l 1,12,-1
 108 0 l 1,13,-1
 -23 -5 l 1,14,-1
 -20 44 l 1,15,-1
 43 61 l 1,16,-1
 99 160 l 1,17,-1
 349 705 l 1,18,-1
 409 715 l 1,19,-1
 529 149 l 1,20,-1
 554 64 l 1,21,-1
 612 54 l 1,0,-1
354 557 m 1,22,-1
 229 282 l 1,23,-1
 404 286 l 1,24,-1
 354 557 l 1,22,-1
EndSplineSet
EndChar

StartChar: B
Encoding: 66 66 37
Width: 595
GlyphClass: 2
Flags: W
LayerCount: 2
Fore
SplineSet
225 705 m 1,0,-1
 390 715 l 1,1,2
 464 715 464 715 515.5 675 c 128,-1,3
 567 635 567 635 567 564.5 c 128,-1,4
 567 494 567 494 520 440.5 c 128,-1,5
 473 387 473 387 401 370 c 1,6,-1
 400 363 l 1,7,8
 466 353 466 353 505.5 312.5 c 128,-1,9
 545 272 545 272 545 208 c 0,10,11
 545 113 545 113 479.5 54 c 128,-1,12
 414 -5 414 -5 318 -5 c 1,13,14
 318 -5 318 -5 119 0 c 1,15,-1
 15 -5 l 1,16,-1
 17 45 l 1,17,-1
 93 61 l 1,18,19
 108 111 108 111 113 137 c 1,20,-1
 178 568 l 2,21,22
 180 585 180 585 180 644 c 1,23,-1
 111 656 l 1,24,-1
 124 710 l 1,25,26
 197 706 197 706 225 705 c 1,0,-1
288 53 m 0,27,28
 357 53 357 53 400.5 95.5 c 128,-1,29
 444 138 444 138 444 206 c 128,-1,30
 444 274 444 274 403 305.5 c 128,-1,31
 362 337 362 337 297 337 c 2,32,-1
 286 337 l 1,33,-1
 301 394 l 1,34,-1
 308 394 l 2,35,36
 378 394 378 394 425.5 436.5 c 128,-1,37
 473 479 473 479 473 553 c 0,38,39
 473 602 473 602 446 631.5 c 128,-1,40
 419 661 419 661 379 661 c 128,-1,41
 339 661 339 661 289 655 c 1,42,43
 273 602 273 602 264 538 c 2,44,-1
 208 167 l 1,45,46
 198 94 198 94 198 59 c 1,47,48
 246 53 246 53 288 53 c 0,27,28
EndSplineSet
EndChar

StartChar: C
Encoding: 67 67 38
Width: 593
GlyphClass: 2
Flags: W
LayerCount: 2
Fore
SplineSet
321 -15 m 0,0,1
 192 -15 192 -15 120.5 65.5 c 128,-1,2
 49 146 49 146 49 281 c 0,3,4
 49 474 49 474 146.5 597 c 128,-1,5
 244 720 244 720 418 720 c 0,6,7
 494 720 494 720 592 692 c 0,8,9
 610 687 610 687 614 686 c 1,10,-1
 583 538 l 1,11,-1
 525 542 l 1,12,-1
 532 589 l 2,13,14
 532 591 532 591 532 599.5 c 128,-1,15
 532 608 532 608 528 639 c 1,16,17
 464 662 464 662 410 662 c 0,18,19
 330 662 330 662 270 607.5 c 128,-1,20
 210 553 210 553 181 468.5 c 128,-1,21
 152 384 152 384 152 280.5 c 128,-1,22
 152 177 152 177 198.5 110 c 128,-1,23
 245 43 245 43 328 43 c 0,24,25
 380 43 380 43 453 65 c 1,26,27
 473 111 473 111 475 121 c 2,28,-1
 484 168 l 1,29,-1
 542 170 l 1,30,-1
 526 19 l 1,31,32
 500 10 500 10 482.5 7 c 128,-1,33
 465 4 465 4 444.5 -1 c 128,-1,34
 424 -6 424 -6 414 -7 c 128,-1,35
 404 -8 404 -8 386 -10 c 0,36,37
 354 -15 354 -15 321 -15 c 0,0,1
EndSplineSet
EndChar

StartChar: D
Encoding: 68 68 39
Width: 700
GlyphClass: 2
Flags: W
LayerCount: 2
Fore
SplineSet
298 -6 m 1,0,-1
 123 0 l 1,1,-1
 9 -5 l 1,2,-1
 11 45 l 1,3,-1
 90 61 l 1,4,5
 105 111 105 111 110 137 c 1,6,-1
 173 568 l 2,7,8
 175 585 175 585 175 644 c 1,9,-1
 102 656 l 1,10,-1
 115 710 l 1,11,12
 176 707 176 707 210 705 c 1,13,14
 235 706 235 706 291.5 710.5 c 128,-1,15
 348 715 348 715 383 715 c 0,16,17
 524 715 524 715 602.5 635.5 c 128,-1,18
 681 556 681 556 681 418 c 0,19,20
 681 229 681 229 577.5 111.5 c 128,-1,21
 474 -6 474 -6 298 -6 c 1,0,-1
385 655 m 0,22,23
 324 655 324 655 282 650 c 1,24,25
 268 595 268 595 259 538 c 2,26,-1
 205 167 l 2,27,28
 195 97 195 97 195 79 c 128,-1,29
 195 61 195 61 196 57 c 1,30,31
 244 53 244 53 307 53 c 0,32,33
 398 53 398 53 462 104 c 0,34,35
 582 202 582 202 582 412 c 0,36,37
 582 520 582 520 532.5 587.5 c 128,-1,38
 483 655 483 655 385 655 c 0,22,23
EndSplineSet
EndChar

StartChar: E
Encoding: 69 69 40
Width: 572
GlyphClass: 2
Flags: W
LayerCount: 2
Fore
SplineSet
226 705 m 2,0,-1
 445 705 l 1,1,-1
 557 715 l 1,2,-1
 573 697 l 1,3,-1
 560 561 l 1,4,-1
 503 556 l 1,5,6
 503 588 503 588 501.5 604.5 c 128,-1,7
 500 621 500 621 486 644 c 1,8,9
 434 649 434 649 408 649 c 2,10,-1
 282 649 l 1,11,12
 265 579 265 579 259 538 c 2,13,-1
 238 396 l 1,14,15
 270 394 270 394 279 394 c 2,16,-1
 349 394 l 1,17,-1
 408 403 l 1,18,-1
 426 469 l 1,19,-1
 471 464 l 1,20,21
 461 400 461 400 458 380 c 2,22,-1
 445 271 l 1,23,-1
 397 265 l 1,24,-1
 398 332 l 1,25,26
 341 338 341 338 322 338 c 2,27,-1
 271 338 l 2,28,29
 254 338 254 338 229 335 c 1,30,-1
 205 167 l 2,31,32
 196 107 196 107 196 57 c 1,33,-1
 334 57 l 2,34,35
 370 57 370 57 420 66 c 1,36,37
 442 94 442 94 445 103 c 0,38,39
 464 149 464 149 470 170 c 1,40,-1
 523 165 l 1,41,-1
 486 14 l 1,42,-1
 465 -4 l 1,43,44
 375 0 375 0 355 0 c 2,45,-1
 123 0 l 1,46,-1
 9 -5 l 1,47,-1
 11 45 l 1,48,-1
 90 61 l 1,49,50
 105 111 105 111 110 137 c 1,51,-1
 173 568 l 2,52,53
 175 585 175 585 175 644 c 1,54,-1
 102 656 l 1,55,-1
 115 710 l 1,56,57
 206 705 206 705 226 705 c 2,0,-1
EndSplineSet
EndChar

StartChar: F
Encoding: 70 70 41
Width: 536
GlyphClass: 2
Flags: W
LayerCount: 2
Fore
SplineSet
408 649 m 2,0,-1
 282 649 l 1,1,2
 265 579 265 579 259 538 c 2,3,-1
 237 388 l 1,4,5
 269 386 269 386 278 386 c 2,6,-1
 348 386 l 1,7,-1
 407 395 l 1,8,-1
 425 461 l 1,9,-1
 470 456 l 1,10,11
 459 392 459 392 457 372 c 2,12,-1
 444 263 l 1,13,-1
 395 257 l 1,14,-1
 397 324 l 1,15,16
 340 330 340 330 320 330 c 2,17,-1
 270 330 l 2,18,19
 254 330 254 330 228 327 c 1,20,-1
 205 167 l 2,21,22
 196 104 196 104 196 61 c 1,23,-1
 292 54 l 1,24,-1
 277 -5 l 1,25,26
 202 0 202 0 123 0 c 1,27,-1
 9 -5 l 1,28,-1
 11 45 l 1,29,-1
 90 61 l 1,30,31
 105 111 105 111 110 137 c 1,32,-1
 173 568 l 2,33,34
 175 585 175 585 175 644 c 1,35,-1
 102 656 l 1,36,-1
 115 710 l 1,37,38
 206 705 206 705 226 705 c 2,39,-1
 445 705 l 1,40,-1
 557 715 l 1,41,-1
 573 697 l 1,42,-1
 560 561 l 1,43,-1
 503 556 l 1,44,45
 503 588 503 588 501.5 604.5 c 128,-1,46
 500 621 500 621 486 644 c 1,47,48
 434 649 434 649 408 649 c 2,0,-1
EndSplineSet
EndChar

StartChar: G
Encoding: 71 71 42
Width: 646
GlyphClass: 2
Flags: W
LayerCount: 2
Fore
SplineSet
434 720 m 0,0,1
 511 720 511 720 643 686 c 1,2,-1
 611 538 l 1,3,-1
 555 544 l 1,4,-1
 561 589 l 2,5,6
 562 592 562 592 562 601 c 128,-1,7
 562 610 562 610 557 638 c 1,8,9
 481 662 481 662 423 662 c 0,10,11
 296 662 296 662 223.5 552.5 c 128,-1,12
 151 443 151 443 151 287 c 0,13,14
 151 179 151 179 201.5 111 c 128,-1,15
 252 43 252 43 343 43 c 0,16,17
 395 43 395 43 470 63 c 1,18,19
 489 119 489 119 491 128 c 2,20,-1
 501 196 l 1,21,-1
 501 267 l 1,22,-1
 400 275 l 1,23,-1
 413 333 l 1,24,-1
 521 333 l 1,25,-1
 592 336 l 1,26,-1
 607 319 l 1,27,28
 583 216 583 216 576 166 c 2,29,-1
 555 19 l 1,30,31
 549 18 549 18 530 13 c 128,-1,32
 511 8 511 8 503.5 6.5 c 128,-1,33
 496 5 496 5 478.5 1 c 128,-1,34
 461 -3 461 -3 451.5 -4.5 c 128,-1,35
 442 -6 442 -6 425.5 -8.5 c 128,-1,36
 409 -11 409 -11 396 -12 c 0,37,38
 359 -15 359 -15 337 -15 c 0,39,40
 200 -15 200 -15 124.5 66.5 c 128,-1,41
 49 148 49 148 49 284 c 0,42,43
 49 476 49 476 151 598 c 128,-1,44
 253 720 253 720 434 720 c 0,0,1
EndSplineSet
EndChar

StartChar: H
Encoding: 72 72 43
Width: 752
GlyphClass: 2
Flags: W
LayerCount: 2
Fore
SplineSet
772 710 m 1,0,-1
 767 651 l 1,1,-1
 691 644 l 1,2,3
 677 596 677 596 669 538 c 2,4,-1
 615 167 l 2,5,6
 606 104 606 104 606 61 c 1,7,-1
 691 54 l 1,8,-1
 676 -5 l 1,9,10
 612 0 612 0 533 0 c 1,11,-1
 419 -5 l 1,12,-1
 421 45 l 1,13,-1
 500 61 l 1,14,15
 501 65 501 65 506 82 c 0,16,17
 517 124 517 124 519 137 c 2,18,-1
 547 327 l 1,19,-1
 228 327 l 1,20,-1
 205 167 l 2,21,22
 196 104 196 104 196 61 c 1,23,-1
 282 54 l 1,24,-1
 266 -5 l 1,25,26
 202 0 202 0 123 0 c 1,27,-1
 9 -5 l 1,28,-1
 11 45 l 1,29,-1
 90 61 l 1,30,31
 105 111 105 111 110 137 c 1,32,-1
 173 568 l 2,33,34
 175 585 175 585 175 644 c 1,35,-1
 102 656 l 1,36,-1
 115 710 l 1,37,38
 206 705 206 705 226 705 c 2,39,-1
 362 710 l 1,40,-1
 358 651 l 1,41,-1
 281 644 l 1,42,43
 267 596 267 596 259 538 c 2,44,-1
 236 378 l 1,45,-1
 555 383 l 1,46,-1
 582 568 l 2,47,48
 585 585 585 585 585 644 c 1,49,-1
 512 656 l 1,50,-1
 525 710 l 1,51,52
 616 705 616 705 636 705 c 2,53,-1
 772 710 l 1,0,-1
EndSplineSet
EndChar

StartChar: I
Encoding: 73 73 44
Width: 354
GlyphClass: 2
Flags: W
LayerCount: 2
Fore
SplineSet
368 710 m 1,0,-1
 363 651 l 1,1,-1
 287 644 l 1,2,3
 273 596 273 596 265 538 c 2,4,-1
 211 167 l 2,5,6
 202 104 202 104 202 61 c 1,7,-1
 287 54 l 1,8,-1
 272 -5 l 1,9,10
 208 0 208 0 129 0 c 1,11,-1
 15 -5 l 1,12,-1
 17 45 l 1,13,-1
 96 61 l 1,14,15
 97 65 97 65 102 82 c 0,16,17
 113 124 113 124 115 137 c 2,18,-1
 178 568 l 2,19,20
 181 585 181 585 181 644 c 1,21,-1
 108 656 l 1,22,-1
 121 710 l 1,23,24
 212 705 212 705 232 705 c 2,25,-1
 368 710 l 1,0,-1
EndSplineSet
EndChar

StartChar: J
Encoding: 74 74 45
Width: 324
GlyphClass: 2
Flags: W
LayerCount: 2
Fore
SplineSet
353 651 m 1,0,-1
 277 644 l 1,1,2
 263 596 263 596 255 538 c 2,3,-1
 175 -10 l 2,4,5
 171 -40 171 -40 13 -200 c 1,6,-1
 -18 -178 l 1,7,8
 84 -9 84 -9 87 11 c 2,9,-1
 168 568 l 2,10,11
 171 585 171 585 171 644 c 1,12,-1
 98 656 l 1,13,-1
 111 710 l 1,14,15
 202 705 202 705 222 705 c 2,16,-1
 358 710 l 1,17,-1
 353 651 l 1,0,-1
EndSplineSet
EndChar

StartChar: K
Encoding: 75 75 46
Width: 679
GlyphClass: 2
Flags: W
LayerCount: 2
Fore
SplineSet
642 54 m 1,0,-1
 627 -5 l 1,1,2
 567 0 567 0 488 0 c 1,3,-1
 365 -5 l 1,4,-1
 367 45 l 1,5,-1
 426 59 l 1,6,7
 390 138 390 138 373 164 c 2,8,-1
 242 353 l 1,9,-1
 450 577 l 1,10,-1
 497 645 l 1,11,-1
 447 656 l 1,12,-1
 460 710 l 1,13,14
 541 705 541 705 562 705 c 2,15,-1
 687 710 l 1,16,-1
 683 651 l 1,17,-1
 609 644 l 1,18,19
 562 605 562 605 497 546 c 1,20,-1
 343 370 l 1,21,22
 353 355 353 355 416.5 265.5 c 128,-1,23
 480 176 480 176 512 129 c 0,24,25
 524 113 524 113 576 61 c 1,26,-1
 642 54 l 1,0,-1
362 710 m 1,27,-1
 357 651 l 1,28,-1
 281 644 l 1,29,30
 267 596 267 596 259 538 c 2,31,-1
 205 167 l 2,32,33
 196 104 196 104 196 61 c 1,34,-1
 281 54 l 1,35,-1
 266 -5 l 1,36,37
 202 0 202 0 123 0 c 1,38,-1
 9 -5 l 1,39,-1
 12 45 l 1,40,-1
 90 61 l 1,41,42
 105 111 105 111 110 137 c 1,43,-1
 173 568 l 2,44,45
 175 585 175 585 175 644 c 1,46,-1
 103 656 l 1,47,-1
 115 710 l 1,48,49
 206 705 206 705 226 705 c 2,50,-1
 362 710 l 1,27,-1
EndSplineSet
PairPos2: "'kern' Horizontal Kerning in Latin lookup 0 per glyph data 1" ygrave dx=0 dy=0 dh=-78 dv=0 dx=0 dy=0 dh=0 dv=0
PairPos2: "'kern' Horizontal Kerning in Latin lookup 0 per glyph data 1" Ygrave dx=0 dy=0 dh=-78 dv=0 dx=0 dy=0 dh=0 dv=0
PairPos2: "'kern' Horizontal Kerning in Latin lookup 0 per glyph data 1" wdieresis dx=0 dy=0 dh=-78 dv=0 dx=0 dy=0 dh=0 dv=0
PairPos2: "'kern' Horizontal Kerning in Latin lookup 0 per glyph data 1" Wdieresis dx=0 dy=0 dh=-78 dv=0 dx=0 dy=0 dh=0 dv=0
PairPos2: "'kern' Horizontal Kerning in Latin lookup 0 per glyph data 1" wacute dx=0 dy=0 dh=-78 dv=0 dx=0 dy=0 dh=0 dv=0
PairPos2: "'kern' Horizontal Kerning in Latin lookup 0 per glyph data 1" Wacute dx=0 dy=0 dh=-78 dv=0 dx=0 dy=0 dh=0 dv=0
PairPos2: "'kern' Horizontal Kerning in Latin lookup 0 per glyph data 1" wgrave dx=0 dy=0 dh=-78 dv=0 dx=0 dy=0 dh=0 dv=0
PairPos2: "'kern' Horizontal Kerning in Latin lookup 0 per glyph data 1" Wgrave dx=0 dy=0 dh=-78 dv=0 dx=0 dy=0 dh=0 dv=0
PairPos2: "'kern' Horizontal Kerning in Latin lookup 0 per glyph data 1" Ydieresis dx=0 dy=0 dh=-78 dv=0 dx=0 dy=0 dh=0 dv=0
PairPos2: "'kern' Horizontal Kerning in Latin lookup 0 per glyph data 1" ycircumflex dx=0 dy=0 dh=-78 dv=0 dx=0 dy=0 dh=0 dv=0
PairPos2: "'kern' Horizontal Kerning in Latin lookup 0 per glyph data 1" Ycircumflex dx=0 dy=0 dh=-78 dv=0 dx=0 dy=0 dh=0 dv=0
PairPos2: "'kern' Horizontal Kerning in Latin lookup 0 per glyph data 1" wcircumflex dx=0 dy=0 dh=-78 dv=0 dx=0 dy=0 dh=0 dv=0
PairPos2: "'kern' Horizontal Kerning in Latin lookup 0 per glyph data 1" Wcircumflex dx=0 dy=0 dh=-78 dv=0 dx=0 dy=0 dh=0 dv=0
PairPos2: "'kern' Horizontal Kerning in Latin lookup 0 per glyph data 1" ydieresis dx=0 dy=0 dh=-78 dv=0 dx=0 dy=0 dh=0 dv=0
PairPos2: "'kern' Horizontal Kerning in Latin lookup 0 per glyph data 1" yacute dx=0 dy=0 dh=-78 dv=0 dx=0 dy=0 dh=0 dv=0
PairPos2: "'kern' Horizontal Kerning in Latin lookup 0 per glyph data 1" Yacute dx=0 dy=0 dh=-78 dv=0 dx=0 dy=0 dh=0 dv=0
PairPos2: "'kern' Horizontal Kerning in Latin lookup 0 per glyph data 1" y dx=0 dy=0 dh=-78 dv=0 dx=0 dy=0 dh=0 dv=0
PairPos2: "'kern' Horizontal Kerning in Latin lookup 0 per glyph data 1" w dx=0 dy=0 dh=-78 dv=0 dx=0 dy=0 dh=0 dv=0
PairPos2: "'kern' Horizontal Kerning in Latin lookup 0 per glyph data 1" v dx=0 dy=0 dh=-48 dv=0 dx=0 dy=0 dh=0 dv=0
PairPos2: "'kern' Horizontal Kerning in Latin lookup 0 per glyph data 1" u dx=0 dy=0 dh=-39 dv=0 dx=0 dy=0 dh=0 dv=0
PairPos2: "'kern' Horizontal Kerning in Latin lookup 0 per glyph data 1" t dx=0 dy=0 dh=-39 dv=0 dx=0 dy=0 dh=0 dv=0
PairPos2: "'kern' Horizontal Kerning in Latin lookup 0 per glyph data 1" o dx=0 dy=0 dh=-39 dv=0 dx=0 dy=0 dh=0 dv=0
PairPos2: "'kern' Horizontal Kerning in Latin lookup 0 per glyph data 1" Y dx=0 dy=0 dh=-78 dv=0 dx=0 dy=0 dh=0 dv=0
PairPos2: "'kern' Horizontal Kerning in Latin lookup 0 per glyph data 1" W dx=0 dy=0 dh=-78 dv=0 dx=0 dy=0 dh=0 dv=0
PairPos2: "'kern' Horizontal Kerning in Latin lookup 0 per glyph data 1" V dx=0 dy=0 dh=-78 dv=0 dx=0 dy=0 dh=0 dv=0
PairPos2: "'kern' Horizontal Kerning in Latin lookup 0 per glyph data 1" O dx=0 dy=0 dh=-29 dv=0 dx=0 dy=0 dh=0 dv=0
PairPos2: "'kern' Horizontal Kerning in Latin lookup 0 per glyph data 1" hyphen dx=0 dy=0 dh=-78 dv=0 dx=0 dy=0 dh=0 dv=0
EndChar

StartChar: L
Encoding: 76 76 47
Width: 519
GlyphClass: 2
Flags: W
LayerCount: 2
Fore
SplineSet
196 57 m 1,0,-1
 309 57 l 2,1,2
 346 57 346 57 395 66 c 1,3,4
 418 95 418 95 420 103 c 1,5,6
 439 151 439 151 444 170 c 1,7,-1
 498 165 l 1,8,-1
 461 14 l 1,9,-1
 440 -4 l 1,10,11
 349 0 349 0 330 0 c 2,12,-1
 123 0 l 1,13,-1
 9 -5 l 1,14,-1
 11 45 l 1,15,-1
 90 61 l 1,16,17
 105 111 105 111 110 137 c 1,18,-1
 173 568 l 2,19,20
 175 585 175 585 175 644 c 1,21,-1
 102 656 l 1,22,-1
 115 710 l 1,23,24
 206 705 206 705 226 705 c 2,25,-1
 362 710 l 1,26,-1
 358 651 l 1,27,-1
 281 644 l 1,28,29
 267 596 267 596 259 538 c 2,30,-1
 205 167 l 2,31,32
 196 106 196 106 196 57 c 1,0,-1
EndSplineSet
EndChar

StartChar: M
Encoding: 77 77 48
Width: 902
GlyphClass: 2
Flags: W
LayerCount: 2
Fore
SplineSet
720 705 m 1,0,-1
 748 705 l 1,1,-1
 899 710 l 1,2,-1
 894 651 l 1,3,-1
 816 644 l 1,4,5
 808 620 808 620 802 569 c 1,6,-1
 771 132 l 1,7,-1
 776 61 l 1,8,-1
 853 54 l 1,9,-1
 839 -5 l 1,10,11
 775 0 775 0 696 0 c 1,12,-1
 581 -5 l 1,13,-1
 583 45 l 1,14,-1
 661 61 l 1,15,16
 679 153 679 153 681 162 c 1,17,-1
 716 584 l 1,18,-1
 420 0 l 1,19,-1
 383 0 l 1,20,-1
 257 584 l 1,21,-1
 173 162 l 1,22,23
 166 116 166 116 163 61 c 1,24,-1
 240 54 l 1,25,-1
 224 -5 l 1,26,27
 176 0 176 0 99 0 c 1,28,-1
 -5 -5 l 1,29,-1
 -3 45 l 1,30,-1
 75 61 l 1,31,32
 97 118 97 118 101 132 c 1,33,-1
 191 569 l 1,34,-1
 198 644 l 1,35,-1
 120 656 l 1,36,-1
 133 710 l 1,37,-1
 265 706 l 1,38,-1
 323 706 l 1,39,-1
 338 685 l 1,40,41
 360 553 360 553 366 529 c 2,42,-1
 442 175 l 1,43,-1
 625 537 l 1,44,-1
 698 685 l 1,45,-1
 720 705 l 1,0,-1
EndSplineSet
EndChar

StartChar: N
Encoding: 78 78 49
Width: 740
GlyphClass: 2
Flags: W
LayerCount: 2
Fore
SplineSet
788 710 m 1,0,-1
 785 657 l 1,1,-1
 707 641 l 1,2,3
 683 577 683 577 676 528 c 2,4,-1
 597 -7 l 1,5,-1
 535 -7 l 1,6,-1
 238 556 l 1,7,-1
 182 167 l 1,8,9
 173 113 173 113 173 61 c 1,10,-1
 250 54 l 1,11,-1
 234 -5 l 1,12,13
 193 0 193 0 114 0 c 1,14,-1
 9 -5 l 1,15,-1
 11 45 l 1,16,-1
 90 61 l 1,17,18
 105 111 105 111 110 137 c 1,19,-1
 173 568 l 2,20,21
 175 584 175 584 175 644 c 1,22,-1
 100 656 l 1,23,-1
 112 710 l 1,24,25
 203 705 203 705 224 705 c 2,26,-1
 269 706 l 1,27,-1
 285 685 l 1,28,29
 345 552 345 552 356 530 c 2,30,-1
 555 163 l 1,31,-1
 613 558 l 2,32,33
 616 582 616 582 616 641 c 1,34,-1
 541 647 l 1,35,-1
 555 707 l 1,36,-1
 635 705 l 1,37,-1
 788 710 l 1,0,-1
EndSplineSet
EndChar

StartChar: O
Encoding: 79 79 50
Width: 719
GlyphClass: 2
Flags: W
LayerCount: 2
Fore
SplineSet
701 420 m 0,0,1
 701 229 701 229 601.5 107 c 128,-1,2
 502 -15 502 -15 324 -15 c 0,3,4
 191 -15 191 -15 120 66 c 128,-1,5
 49 147 49 147 49 284 c 0,6,7
 49 476 49 476 148.5 598 c 128,-1,8
 248 720 248 720 426 720 c 0,9,10
 559 720 559 720 630 638.5 c 128,-1,11
 701 557 701 557 701 420 c 0,0,1
185.5 470 m 128,-1,13
 156 384 156 384 156 279 c 128,-1,14
 156 174 156 174 200 106 c 128,-1,15
 244 38 244 38 327.5 38 c 128,-1,16
 411 38 411 38 472.5 93 c 128,-1,17
 534 148 534 148 564 234 c 128,-1,18
 594 320 594 320 594 425.5 c 128,-1,19
 594 531 594 531 550.5 599 c 128,-1,20
 507 667 507 667 422.5 667 c 128,-1,21
 338 667 338 667 276.5 611.5 c 128,-1,12
 215 556 215 556 185.5 470 c 128,-1,13
EndSplineSet
EndChar

StartChar: P
Encoding: 80 80 51
Width: 570
GlyphClass: 2
Flags: W
LayerCount: 2
Fore
SplineSet
210 705 m 1,0,-1
 383 715 l 1,1,2
 474 715 474 715 528 670 c 128,-1,3
 582 625 582 625 582 539 c 0,4,5
 582 423 582 423 506.5 357 c 128,-1,6
 431 291 431 291 318 291 c 0,7,8
 283 291 283 291 223 293 c 1,9,-1
 205 167 l 2,10,11
 196 104 196 104 196 61 c 1,12,-1
 286 54 l 1,13,-1
 270 -5 l 1,14,15
 202 0 202 0 123 0 c 1,16,-1
 9 -5 l 1,17,-1
 11 45 l 1,18,-1
 90 61 l 1,19,20
 105 111 105 111 110 137 c 1,21,-1
 173 568 l 2,22,23
 175 585 175 585 175 644 c 1,24,-1
 102 656 l 1,25,-1
 115 710 l 1,26,27
 177 706 177 706 210 705 c 1,0,-1
295 341 m 0,28,29
 383 341 383 341 435 390 c 128,-1,30
 487 439 487 439 487 530 c 0,31,32
 487 596 487 596 449.5 630.5 c 128,-1,33
 412 665 412 665 344 665 c 0,34,35
 326 665 326 665 284 660 c 1,36,37
 268 600 268 600 259 538 c 2,38,-1
 231 345 l 1,39,40
 279 341 279 341 295 341 c 0,28,29
EndSplineSet
EndChar

StartChar: Q
Encoding: 81 81 52
Width: 727
GlyphClass: 2
Flags: W
LayerCount: 2
Fore
SplineSet
323 -15 m 0,0,1
 190 -15 190 -15 119.5 66 c 128,-1,2
 49 147 49 147 49 284 c 0,3,4
 49 476 49 476 148.5 598 c 128,-1,5
 248 720 248 720 426 720 c 0,6,7
 559 720 559 720 630 638.5 c 128,-1,8
 701 557 701 557 701 411 c 128,-1,9
 701 265 701 265 632.5 152.5 c 128,-1,10
 564 40 564 40 437 1 c 1,11,-1
 512 -60 l 2,12,13
 523 -69 523 -69 622 -116 c 2,14,-1
 655 -132 l 1,15,-1
 583 -224 l 1,16,-1
 359 -13 l 1,17,18
 335 -15 335 -15 323 -15 c 0,0,1
185.5 470 m 128,-1,20
 156 384 156 384 156 279 c 128,-1,21
 156 174 156 174 200.5 106 c 128,-1,22
 245 38 245 38 331 38 c 0,23,24
 453 38 453 38 523.5 150.5 c 128,-1,25
 594 263 594 263 594 421 c 0,26,27
 594 531 594 531 550.5 599 c 128,-1,28
 507 667 507 667 422.5 667 c 128,-1,29
 338 667 338 667 276.5 611.5 c 128,-1,19
 215 556 215 556 185.5 470 c 128,-1,20
EndSplineSet
EndChar

StartChar: R
Encoding: 82 82 53
Width: 630
GlyphClass: 2
Flags: W
LayerCount: 2
Fore
SplineSet
214 705 m 1,0,-1
 385 715 l 1,1,2
 477 715 477 715 531 671 c 128,-1,3
 585 627 585 627 585 541.5 c 128,-1,4
 585 456 585 456 537.5 396.5 c 128,-1,5
 490 337 490 337 412 314 c 1,6,7
 457 191 457 191 475.5 153.5 c 128,-1,8
 494 116 494 116 524 61 c 1,9,-1
 593 54 l 1,10,-1
 578 -5 l 1,11,12
 502 0 502 0 423 0 c 1,13,14
 396 92 396 92 387 116 c 2,15,-1
 318 301 l 1,16,17
 284 301 284 301 226 303 c 1,18,-1
 206 167 l 2,19,20
 197 104 197 104 197 61 c 1,21,-1
 284 54 l 1,22,-1
 268 -5 l 1,23,24
 204 0 204 0 124 0 c 1,25,-1
 9 -5 l 1,26,-1
 11 45 l 1,27,-1
 91 61 l 1,28,29
 106 111 106 111 111 137 c 1,30,-1
 175 568 l 2,31,32
 177 585 177 585 177 644 c 1,33,-1
 103 656 l 1,34,-1
 116 710 l 1,35,36
 181 707 181 707 214 705 c 1,0,-1
346 665 m 0,37,38
 337 665 337 665 287 659 c 1,39,40
 272 608 272 608 261 538 c 2,41,-1
 234 356 l 1,42,43
 281 351 281 351 309 351 c 0,44,45
 396 351 396 351 443 397.5 c 128,-1,46
 490 444 490 444 490 534 c 0,47,48
 490 598 490 598 452 631.5 c 128,-1,49
 414 665 414 665 346 665 c 0,37,38
EndSplineSet
EndChar

StartChar: S
Encoding: 83 83 54
Width: 543
GlyphClass: 2
Flags: W
LayerCount: 2
Fore
SplineSet
123 186 m 1,0,1
 115 136 115 136 115 118 c 128,-1,2
 115 100 115 100 117 72 c 1,3,4
 177 45 177 45 240.5 45 c 128,-1,5
 304 45 304 45 344 82.5 c 128,-1,6
 384 120 384 120 384 184 c 0,7,8
 384 251 384 251 282 308 c 0,9,10
 240 332 240 332 197.5 357 c 128,-1,11
 155 382 155 382 125 421.5 c 128,-1,12
 95 461 95 461 95 512 c 0,13,14
 95 608 95 608 162 664 c 128,-1,15
 229 720 229 720 332 720 c 0,16,17
 407 720 407 720 527 688 c 1,18,-1
 491 537 l 1,19,-1
 434 543 l 1,20,21
 441 587 441 587 441 591.5 c 128,-1,22
 441 596 441 596 436 643 c 1,23,24
 391 665 391 665 331.5 665 c 128,-1,25
 272 665 272 665 235 632 c 128,-1,26
 198 599 198 599 198 542 c 0,27,28
 198 476 198 476 302 420 c 0,29,30
 345 396 345 396 388 370 c 128,-1,31
 431 344 431 344 461.5 302.5 c 128,-1,32
 492 261 492 261 492 207 c 0,33,34
 492 101 492 101 417.5 43 c 128,-1,35
 343 -15 343 -15 231 -15 c 0,36,37
 173 -15 173 -15 121 -1.5 c 128,-1,38
 69 12 69 12 46 25 c 2,39,-1
 22 38 l 1,40,-1
 59 192 l 1,41,-1
 123 186 l 1,0,1
EndSplineSet
EndChar

StartChar: T
Encoding: 84 84 55
Width: 578
GlyphClass: 2
Flags: W
LayerCount: 2
Fore
SplineSet
463 649 m 2,0,-1
 400 649 l 1,1,2
 385 590 385 590 377 538 c 2,3,-1
 323 167 l 2,4,5
 320 147 320 147 314 61 c 1,6,-1
 400 54 l 1,7,-1
 384 -5 l 1,8,9
 320 0 320 0 242 0 c 1,10,-1
 127 -5 l 1,11,-1
 130 45 l 1,12,-1
 208 61 l 1,13,14
 223 111 223 111 228 137 c 1,15,-1
 291 568 l 2,16,17
 294 595 294 595 294 649 c 1,18,-1
 233 649 l 2,19,20
 209 649 209 649 154 644 c 1,21,22
 132 619 132 619 129.5 611 c 128,-1,23
 127 603 127 603 110 548 c 1,24,-1
 54 553 l 1,25,-1
 82 697 l 1,26,-1
 103 715 l 1,27,28
 193 705 193 705 212 705 c 2,29,-1
 500 705 l 1,30,-1
 612 715 l 1,31,-1
 628 697 l 1,32,-1
 613 553 l 1,33,-1
 556 548 l 1,34,35
 556 595 556 595 555 608 c 128,-1,36
 554 621 554 621 540 644 c 1,37,38
 488 649 488 649 463 649 c 2,0,-1
EndSplineSet
EndChar

StartChar: U
Encoding: 85 85 56
Width: 707
GlyphClass: 2
Flags: W
LayerCount: 2
Fore
SplineSet
319 -15 m 128,-1,1
 196 -15 196 -15 141 60 c 0,2,3
 100 117 100 117 100 205 c 0,4,5
 100 234 100 234 104 266 c 2,6,-1
 148 563 l 2,7,8
 151 588 151 588 151 644 c 1,9,-1
 77 656 l 1,10,-1
 89 710 l 1,11,12
 180 705 180 705 200 705 c 2,13,-1
 343 710 l 1,14,-1
 338 651 l 1,15,-1
 261 644 l 1,16,17
 248 597 248 597 238 533 c 2,18,-1
 199 266 l 2,19,20
 195 237 195 237 195 212 c 0,21,22
 195 150 195 150 219 108 c 0,23,24
 253 49 253 49 335 49 c 128,-1,25
 417 49 417 49 469.5 108.5 c 128,-1,26
 522 168 522 168 536 266 c 2,27,-1
 580 563 l 2,28,29
 582 580 582 580 582 644 c 1,30,-1
 508 656 l 1,31,-1
 521 710 l 1,32,33
 602 705 602 705 623 705 c 2,34,-1
 752 710 l 1,35,-1
 748 651 l 1,36,-1
 671 644 l 1,37,38
 659 609 659 609 647 533 c 2,39,-1
 608 266 l 1,40,41
 590 135 590 135 516 60 c 128,-1,0
 442 -15 442 -15 319 -15 c 128,-1,1
EndSplineSet
EndChar

StartChar: V
Encoding: 86 86 57
Width: 673
GlyphClass: 2
Flags: W
LayerCount: 2
Fore
SplineSet
278 0 m 1,0,-1
 149 556 l 2,1,2
 139 596 139 596 126 628 c 1,3,-1
 120 641 l 1,4,-1
 58 651 l 1,5,-1
 71 705 l 1,6,-1
 176 705 l 1,7,-1
 322 710 l 1,8,-1
 318 661 l 1,9,-1
 239 641 l 1,10,11
 239 590 239 590 252 533 c 2,12,-1
 337 148 l 1,13,-1
 543 578 l 1,14,-1
 563 641 l 1,15,-1
 491 651 l 1,16,-1
 504 705 l 1,17,-1
 592 705 l 1,18,-1
 732 710 l 1,19,-1
 728 661 l 1,20,-1
 661 644 l 1,21,22
 628 599 628 599 602 545 c 2,23,-1
 340 0 l 1,24,-1
 278 0 l 1,0,-1
EndSplineSet
EndChar

StartChar: W
Encoding: 87 87 58
Width: 981
GlyphClass: 2
Flags: W
LayerCount: 2
Fore
SplineSet
1040 661 m 1,0,-1
 972 644 l 1,1,2
 931 584 931 584 913 545 c 2,3,-1
 676 0 l 1,4,-1
 615 0 l 1,5,-1
 526 506 l 1,6,-1
 308 0 l 1,7,-1
 246 0 l 1,8,-1
 148 556 l 2,9,10
 142 592 142 592 127 629 c 2,11,-1
 122 641 l 1,12,-1
 60 651 l 1,13,-1
 73 705 l 1,14,-1
 178 705 l 1,15,-1
 324 710 l 1,16,-1
 320 661 l 1,17,-1
 241 641 l 1,18,19
 244 584 244 584 251 533 c 2,20,-1
 305 148 l 1,21,-1
 536 685 l 1,22,-1
 590 685 l 1,23,-1
 674 148 l 1,24,-1
 855 578 l 1,25,-1
 874 641 l 1,26,-1
 803 651 l 1,27,-1
 815 705 l 1,28,-1
 903 705 l 1,29,-1
 1043 710 l 1,30,-1
 1040 661 l 1,0,-1
EndSplineSet
EndChar

StartChar: X
Encoding: 88 88 59
Width: 696
GlyphClass: 2
Flags: W
LayerCount: 2
Fore
SplineSet
311 355 m 1,0,-1
 201 558 l 1,1,-1
 153 641 l 1,2,-1
 77 651 l 1,3,-1
 92 706 l 1,4,5
 158 705 158 705 178 705 c 2,6,-1
 361 710 l 1,7,-1
 358 663 l 1,8,-1
 280 641 l 1,9,10
 297 575 297 575 307 555 c 2,11,-1
 379 422 l 1,12,-1
 494 578 l 2,13,14
 501 587 501 587 535 641 c 1,15,-1
 463 651 l 1,16,-1
 477 706 l 1,17,18
 528 705 528 705 556 705 c 2,19,-1
 722 710 l 1,20,-1
 720 663 l 1,21,-1
 651 647 l 1,22,23
 582 589 582 589 564 569 c 1,24,-1
 410 368 l 1,25,-1
 539 132 l 1,26,27
 554 108 554 108 588 64 c 1,28,-1
 662 54 l 1,29,-1
 647 -1 l 1,30,31
 584 0 584 0 565 0 c 2,32,-1
 390 -5 l 1,33,-1
 392 42 l 1,34,-1
 457 60 l 1,35,36
 443 114 443 114 426 142 c 1,37,-1
 341 301 l 1,38,-1
 207 132 l 2,39,40
 193 114 193 114 163 64 c 1,41,-1
 238 54 l 1,42,-1
 223 -1 l 1,43,44
 167 0 167 0 143 0 c 2,45,-1
 -15 -5 l 1,46,-1
 -13 42 l 1,47,-1
 48 59 l 1,48,49
 138 142 138 142 156 164 c 2,50,-1
 311 355 l 1,0,-1
EndSplineSet
EndChar

StartChar: Y
Encoding: 89 89 60
Width: 645
GlyphClass: 2
Flags: W
LayerCount: 2
Fore
SplineSet
689 661 m 1,0,-1
 621 644 l 1,1,2
 578 597 578 597 545 545 c 2,3,-1
 369 274 l 1,4,-1
 354 167 l 2,5,6
 345 104 345 104 345 61 c 1,7,-1
 430 54 l 1,8,-1
 415 -5 l 1,9,10
 351 0 351 0 272 0 c 1,11,-1
 158 -5 l 1,12,-1
 160 45 l 1,13,-1
 239 61 l 1,14,15
 240 65 240 65 244 82 c 0,16,17
 256 124 256 124 258 137 c 2,18,-1
 276 258 l 1,19,-1
 168 556 l 1,20,21
 157 590 157 590 134 629 c 2,22,-1
 127 641 l 1,23,-1
 64 651 l 1,24,-1
 77 705 l 1,25,-1
 182 705 l 1,26,-1
 328 710 l 1,27,-1
 325 661 l 1,28,-1
 246 641 l 1,29,30
 250 592 250 592 271 533 c 1,31,-1
 342 344 l 1,32,-1
 487 578 l 1,33,-1
 522 641 l 1,34,-1
 452 651 l 1,35,-1
 464 705 l 1,36,-1
 552 705 l 1,37,-1
 692 710 l 1,38,-1
 689 661 l 1,0,-1
EndSplineSet
EndChar

StartChar: Z
Encoding: 90 90 61
Width: 543
GlyphClass: 2
Flags: W
LayerCount: 2
Fore
SplineSet
260 646 m 2,0,1
 228 646 228 646 176 641 c 1,2,-1
 155 607 l 1,3,4
 139 558 139 558 132 523 c 1,5,-1
 76 528 l 1,6,-1
 105 697 l 1,7,-1
 126 715 l 1,8,9
 216 705 216 705 235 705 c 2,10,-1
 558 705 l 1,11,-1
 558 649 l 1,12,-1
 432 494 l 1,13,-1
 210 191 l 1,14,-1
 123 59 l 1,15,-1
 318 59 l 2,16,17
 354 59 354 59 404 68 c 1,18,19
 424 90 424 90 432.5 112.5 c 128,-1,20
 441 135 441 135 452 180 c 1,21,-1
 506 175 l 1,22,-1
 471 14 l 1,23,-1
 449 -4 l 1,24,25
 359 0 359 0 339 0 c 2,26,-1
 0 0 l 1,27,-1
 1 57 l 1,28,29
 95 171 95 171 130 219 c 2,30,-1
 353 520 l 1,31,-1
 436 646 l 1,32,-1
 260 646 l 2,0,1
EndSplineSet
EndChar

StartChar: bracketleft
Encoding: 91 91 62
Width: 267
GlyphClass: 2
Flags: W
LayerCount: 2
Fore
SplineSet
137 -9.5 m 128,-1,1
 137 -37 137 -37 138 -54 c 2,2,-1
 139 -70 l 1,3,-1
 222 -85 l 1,4,-1
 215 -125 l 1,5,6
 121 -121 121 -121 52 -121 c 1,7,-1
 41 -108 l 1,8,9
 80 59 80 59 119 329.5 c 128,-1,10
 158 600 158 600 162 749 c 1,11,-1
 177 762 l 1,12,-1
 341 766 l 1,13,-1
 334 726 l 1,14,-1
 249 711 l 1,15,16
 226 651 226 651 220 601 c 1,17,-1
 140 40 l 2,18,0
 137 18 137 18 137 -9.5 c 128,-1,1
EndSplineSet
EndChar

StartChar: backslash
Encoding: 92 92 63
Width: 398
GlyphClass: 2
Flags: W
LayerCount: 2
Fore
SplineSet
354 -47 m 1,0,-1
 287 -67 l 1,1,-1
 92 753 l 1,2,-1
 158 773 l 1,3,-1
 354 -47 l 1,0,-1
EndSplineSet
EndChar

StartChar: bracketright
Encoding: 93 93 64
Width: 267
GlyphClass: 2
Flags: W
LayerCount: 2
Fore
SplineSet
178 650.5 m 128,-1,1
 178 678 178 678 177 694 c 2,2,-1
 176 711 l 1,3,-1
 93 726 l 1,4,-1
 100 766 l 1,5,6
 195 762 195 762 264 762 c 1,7,-1
 275 749 l 1,8,9
 235 584 235 584 196.5 313.5 c 128,-1,10
 158 43 158 43 154 -108 c 1,11,-1
 139 -121 l 1,12,-1
 -25 -125 l 1,13,-1
 -19 -85 l 1,14,-1
 66 -70 l 1,15,16
 89 -10 89 -10 95 40 c 1,17,-1
 175 601 l 2,18,0
 178 623 178 623 178 650.5 c 128,-1,1
EndSplineSet
EndChar

StartChar: asciicircum
Encoding: 94 94 65
Width: 543
GlyphClass: 2
Flags: W
LayerCount: 2
Fore
SplineSet
326 615 m 1,0,-1
 81 313 l 1,1,-1
 26 357 l 1,2,-1
 342 728 l 1,3,-1
 549 357 l 1,4,-1
 482 313 l 1,5,-1
 326 615 l 1,0,-1
EndSplineSet
EndChar

StartChar: underscore
Encoding: 95 95 66
Width: 504
GlyphClass: 2
Flags: W
LayerCount: 2
Fore
SplineSet
-52 -230 m 1,0,-1
 -45 -159 l 1,1,-1
 458 -159 l 1,2,-1
 443 -230 l 1,3,-1
 -52 -230 l 1,0,-1
EndSplineSet
EndChar

StartChar: grave
Encoding: 96 96 67
Width: 349
GlyphClass: 2
Flags: W
LayerCount: 2
Fore
SplineSet
344 605 m 1,0,-1
 312 564 l 1,1,-1
 241 624 l 1,2,-1
 124 695 l 1,3,-1
 170 755 l 1,4,-1
 344 605 l 1,0,-1
EndSplineSet
EndChar

StartChar: a
Encoding: 97 97 68
Width: 521
GlyphClass: 2
Flags: W
LayerCount: 2
Fore
SplineSet
489 44 m 1,0,-1
 479 -1 l 1,1,2
 433 0 433 0 407 0 c 2,3,-1
 281 -4 l 1,4,-1
 284 40 l 1,5,-1
 338 52 l 1,6,-1
 333 117 l 1,7,-1
 326 159 l 1,8,-1
 168 159 l 1,9,-1
 138 92 l 1,10,-1
 125 52 l 1,11,-1
 173 44 l 1,12,-1
 163 -1 l 1,13,14
 120 0 120 0 92 0 c 1,15,-1
 -11 -4 l 1,16,-1
 -8 40 l 1,17,-1
 36 50 l 1,18,-1
 79 120 l 1,19,-1
 277 529 l 1,20,-1
 337 537 l 1,21,-1
 428 106 l 1,22,-1
 445 51 l 1,23,-1
 489 44 l 1,0,-1
283 401 m 1,24,-1
 191 206 l 1,25,-1
 316 208 l 1,26,-1
 283 401 l 1,24,-1
EndSplineSet
EndChar

StartChar: b
Encoding: 98 98 69
Width: 491
GlyphClass: 2
Flags: W
LayerCount: 2
Fore
SplineSet
183 529 m 1,0,-1
 321 536 l 1,1,2
 382 536 382 536 423.5 505.5 c 128,-1,3
 465 475 465 475 465 422.5 c 128,-1,4
 465 370 465 370 428.5 330 c 128,-1,5
 392 290 392 290 336 278 c 1,6,-1
 335 273 l 1,7,8
 387 265 387 265 417.5 235.5 c 128,-1,9
 448 206 448 206 448 158 c 0,10,11
 448 83 448 83 394 39.5 c 128,-1,12
 340 -4 340 -4 260 -4 c 1,13,14
 260 -4 260 -4 100 0 c 1,15,-1
 21 -4 l 1,16,-1
 24 39 l 1,17,-1
 80 50 l 1,18,19
 92 89 92 89 95 110 c 2,20,-1
 143 410 l 2,21,22
 147 435 147 435 147 451.5 c 128,-1,23
 147 468 147 468 146 477 c 1,24,-1
 95 486 l 1,25,-1
 106 533 l 1,26,27
 156 529 156 529 183 529 c 1,0,-1
177 50 m 1,28,29
 203 47 203 47 246.5 47 c 128,-1,30
 290 47 290 47 323.5 78 c 128,-1,31
 357 109 357 109 357 157 c 128,-1,32
 357 205 357 205 327 226.5 c 128,-1,33
 297 248 297 248 251 248 c 2,34,-1
 243 248 l 1,35,-1
 255 299 l 1,36,-1
 261 299 l 2,37,38
 311 299 311 299 344.5 329.5 c 128,-1,39
 378 360 378 360 378 412 c 0,40,41
 378 446 378 446 357.5 467 c 128,-1,42
 337 488 337 488 308.5 488 c 128,-1,43
 280 488 280 488 246 484 c 1,44,45
 238 462 238 462 229 405 c 2,46,-1
 186 133 l 2,47,48
 177 74 177 74 177 50 c 1,28,29
EndSplineSet
EndChar

StartChar: c
Encoding: 99 99 70
Width: 487
GlyphClass: 2
Flags: W
LayerCount: 2
Fore
SplineSet
262 -11 m 0,0,1
 157 -11 157 -11 100 49.5 c 128,-1,2
 43 110 43 110 43 212 c 0,3,4
 43 356 43 356 121 448 c 128,-1,5
 199 540 199 540 339 540 c 0,6,7
 397 540 397 540 495 515 c 1,8,-1
 469 395 l 1,9,-1
 419 398 l 1,10,-1
 424 437 l 2,11,12
 425 444 425 444 421 472 c 1,13,14
 367 487 367 487 332 487 c 0,15,16
 242 487 242 487 192.5 405 c 128,-1,17
 143 323 143 323 143 211 c 0,18,19
 143 136 143 136 175.5 89 c 128,-1,20
 208 42 208 42 268 42 c 0,21,22
 308 42 308 42 365 57 c 1,23,24
 381 89 381 89 382 97 c 2,25,-1
 390 132 l 1,26,-1
 439 133 l 1,27,-1
 426 14 l 1,28,29
 322 -11 322 -11 262 -11 c 0,0,1
EndSplineSet
EndChar

StartChar: d
Encoding: 100 100 71
Width: 568
GlyphClass: 2
Flags: W
LayerCount: 2
Fore
SplineSet
174 529 m 1,0,-1
 316 536 l 1,1,2
 427 536 427 536 487.5 476 c 128,-1,3
 548 416 548 416 548 313 c 0,4,5
 548 172 548 172 467 83.5 c 128,-1,6
 386 -5 386 -5 246 -5 c 1,7,-1
 101 0 l 1,8,-1
 17 -4 l 1,9,-1
 19 39 l 1,10,-1
 77 50 l 1,11,12
 90 88 90 88 93 110 c 2,13,-1
 139 410 l 2,14,15
 142 432 142 432 142 477 c 1,16,-1
 88 486 l 1,17,-1
 99 533 l 1,18,19
 144 530 144 530 174 529 c 1,0,-1
311 485 m 0,20,21
 273 485 273 485 241 480 c 1,22,23
 233 454 233 454 225 405 c 2,24,-1
 184 133 l 1,25,26
 175 81 175 81 175 49 c 1,27,28
 205 47 205 47 249 47 c 0,29,30
 319 47 319 47 367 87 c 0,31,32
 454 160 454 160 454 312 c 0,33,34
 454 389 454 389 418.5 437 c 128,-1,35
 383 485 383 485 311 485 c 0,20,21
EndSplineSet
EndChar

StartChar: e
Encoding: 101 101 72
Width: 471
GlyphClass: 2
Flags: W
LayerCount: 2
Fore
SplineSet
182 529 m 2,0,-1
 364 529 l 1,1,-1
 451 536 l 1,2,-1
 463 523 l 1,3,-1
 453 415 l 1,4,-1
 405 411 l 1,5,6
 405 431 405 431 404 446.5 c 128,-1,7
 403 462 403 462 394 476 c 1,8,9
 346 479 346 479 334 479 c 2,10,-1
 241 479 l 1,11,12
 233 449 233 449 225 405 c 2,13,-1
 208 298 l 1,14,15
 219 297 219 297 236 297 c 2,16,-1
 287 297 l 1,17,-1
 328 303 l 1,18,-1
 343 352 l 1,19,-1
 381 349 l 1,20,21
 374 301 374 301 371 286 c 1,22,-1
 361 199 l 1,23,-1
 319 194 l 1,24,-1
 319 243 l 1,25,26
 279 247 279 247 264 247 c 2,27,-1
 230 247 l 2,28,29
 211 247 211 247 201 246 c 1,30,-1
 184 133 l 2,31,32
 178 98 178 98 175 51 c 1,33,-1
 279 51 l 2,34,35
 303 51 303 51 343 58 c 1,36,37
 368 89 368 89 380 135 c 1,38,-1
 426 131 l 1,39,-1
 396 11 l 1,40,-1
 380 -3 l 1,41,42
 309 0 309 0 294 0 c 2,43,-1
 101 0 l 1,44,-1
 17 -4 l 1,45,-1
 19 39 l 1,46,-1
 77 50 l 1,47,48
 87 73 87 73 93 110 c 2,49,-1
 139 410 l 2,50,51
 143 438 143 438 143 453.5 c 128,-1,52
 143 469 143 469 142 477 c 1,53,-1
 88 486 l 1,54,-1
 99 533 l 1,55,56
 162 529 162 529 182 529 c 2,0,-1
EndSplineSet
EndChar

StartChar: f
Encoding: 102 102 73
Width: 440
GlyphClass: 2
Flags: W
LayerCount: 2
Fore
SplineSet
334 479 m 2,0,-1
 241 479 l 1,1,2
 233 449 233 449 225 405 c 1,3,-1
 207 291 l 1,4,5
 218 290 218 290 235 290 c 2,6,-1
 285 290 l 1,7,-1
 327 297 l 1,8,-1
 342 345 l 1,9,-1
 381 342 l 1,10,11
 372 294 372 294 370 279 c 2,12,-1
 360 192 l 1,13,-1
 318 188 l 1,14,-1
 319 236 l 1,15,16
 278 240 278 240 263 240 c 2,17,-1
 228 240 l 2,18,19
 210 240 210 240 200 239 c 1,20,-1
 183 132 l 1,21,22
 177 87 177 87 177 71 c 128,-1,23
 177 55 177 55 177 50 c 1,24,-1
 250 45 l 1,25,-1
 238 -4 l 1,26,27
 171 0 171 0 101 0 c 1,28,-1
 17 -4 l 1,29,-1
 19 39 l 1,30,-1
 77 50 l 1,31,32
 87 73 87 73 93 110 c 2,33,-1
 139 410 l 2,34,35
 143 437 143 437 143 452.5 c 128,-1,36
 143 468 143 468 142 477 c 1,37,-1
 88 486 l 1,38,-1
 99 533 l 1,39,40
 159 529 159 529 182 529 c 2,41,-1
 364 529 l 1,42,-1
 451 536 l 1,43,-1
 463 523 l 1,44,-1
 453 415 l 1,45,-1
 405 411 l 1,46,47
 405 431 405 431 404 445.5 c 128,-1,48
 403 460 403 460 394 476 c 1,49,50
 346 479 346 479 334 479 c 2,0,-1
EndSplineSet
EndChar

StartChar: g
Encoding: 103 103 74
Width: 530
GlyphClass: 2
Flags: W
LayerCount: 2
Fore
SplineSet
351 540 m 0,0,1
 415 540 415 540 517 515 c 1,2,-1
 491 399 l 1,3,-1
 442 403 l 1,4,-1
 446 437 l 2,5,6
 447 443 447 443 443 471 c 1,7,8
 386 487 386 487 343 487 c 0,9,10
 248 487 248 487 195.5 407 c 128,-1,11
 143 327 143 327 143 214 c 0,12,13
 143 138 143 138 178.5 90 c 128,-1,14
 214 42 214 42 280 42 c 0,15,16
 316 42 316 42 371 54 c 1,17,18
 384 92 384 92 385 96 c 2,19,-1
 393 147 l 1,20,-1
 393 197 l 1,21,-1
 314 203 l 1,22,-1
 325 258 l 1,23,-1
 410 258 l 1,24,-1
 476 261 l 1,25,-1
 490 246 l 1,26,27
 472 171 472 171 466 133 c 2,28,-1
 449 14 l 1,29,30
 336 -11 336 -11 275 -11 c 0,31,32
 163 -11 163 -11 103.5 50 c 128,-1,33
 44 111 44 111 44 215 c 0,34,35
 44 358 44 358 125 449 c 128,-1,36
 206 540 206 540 351 540 c 0,0,1
EndSplineSet
EndChar

StartChar: h
Encoding: 104 104 75
Width: 618
GlyphClass: 2
Flags: W
LayerCount: 2
Fore
SplineSet
625 533 m 1,0,-1
 620 482 l 1,1,-1
 564 477 l 1,2,3
 554 450 554 450 547 405 c 2,4,-1
 506 133 l 2,5,6
 499 85 499 85 499 50 c 1,7,-1
 559 45 l 1,8,-1
 547 -4 l 1,9,10
 493 0 493 0 423 0 c 1,11,-1
 339 -4 l 1,12,-1
 341 39 l 1,13,-1
 400 50 l 2,14,15
 400 51 400 51 407 76.5 c 128,-1,16
 414 102 414 102 415 110 c 2,17,-1
 435 238 l 1,18,-1
 200 238 l 1,19,-1
 184 133 l 2,20,21
 177 93 177 93 177 50 c 1,22,-1
 237 45 l 1,23,-1
 225 -4 l 1,24,25
 171 0 171 0 101 0 c 1,26,-1
 17 -4 l 1,27,-1
 19 39 l 1,28,-1
 77 50 l 1,29,30
 90 88 90 88 93 110 c 2,31,-1
 139 410 l 2,32,33
 142 432 142 432 142 477 c 1,34,-1
 88 486 l 1,35,-1
 99 533 l 1,36,37
 159 529 159 529 182 529 c 2,38,-1
 302 533 l 1,39,-1
 298 482 l 1,40,-1
 242 477 l 1,41,42
 232 450 232 450 225 405 c 2,43,-1
 207 287 l 1,44,-1
 442 290 l 1,45,-1
 461 410 l 2,46,47
 465 436 465 436 465 477 c 1,48,-1
 411 486 l 1,49,-1
 422 533 l 1,50,51
 482 529 482 529 504 529 c 2,52,-1
 625 533 l 1,0,-1
EndSplineSet
EndChar

StartChar: i
Encoding: 105 105 76
Width: 305
GlyphClass: 2
Flags: W
LayerCount: 2
Fore
SplineSet
307 533 m 1,0,-1
 302 482 l 1,1,-1
 246 477 l 1,2,3
 233 428 233 428 229 405 c 2,4,-1
 188 133 l 2,5,6
 181 85 181 85 181 50 c 1,7,-1
 241 45 l 1,8,-1
 229 -4 l 1,9,10
 176 0 176 0 106 0 c 1,11,-1
 21 -4 l 1,12,-1
 24 39 l 1,13,-1
 82 50 l 2,14,15
 82 51 82 51 89 76.5 c 128,-1,16
 96 102 96 102 97 110 c 2,17,-1
 143 410 l 2,18,19
 147 436 147 436 147 477 c 1,20,-1
 93 486 l 1,21,-1
 104 533 l 1,22,23
 164 529 164 529 186 529 c 2,24,-1
 307 533 l 1,0,-1
EndSplineSet
EndChar

StartChar: j
Encoding: 106 106 77
Width: 281
GlyphClass: 2
Flags: W
LayerCount: 2
Fore
SplineSet
293 482 m 1,0,-1
 236 477 l 1,1,2
 236 475 236 475 232 461 c 0,3,4
 224 434 224 434 219 405 c 2,5,-1
 158 -2 l 2,6,7
 153 -30 153 -30 21 -150 c 1,8,-1
 -8 -131 l 1,9,10
 70 -7 70 -7 72 8 c 2,11,-1
 133 410 l 2,12,13
 137 432 137 432 137 477 c 1,14,-1
 83 486 l 1,15,-1
 94 533 l 1,16,17
 154 529 154 529 177 529 c 2,18,-1
 297 533 l 1,19,-1
 293 482 l 1,0,-1
EndSplineSet
EndChar

StartChar: k
Encoding: 107 107 78
Width: 561
GlyphClass: 2
Flags: W
LayerCount: 2
Fore
SplineSet
528 45 m 1,0,-1
 516 -4 l 1,1,2
 462 0 462 0 392 0 c 1,3,-1
 304 -4 l 1,4,-1
 307 39 l 1,5,-1
 347 48 l 1,6,7
 322 101 322 101 308 123 c 2,8,-1
 210 265 l 1,9,-1
 367 433 l 1,10,-1
 400 479 l 1,11,-1
 367 486 l 1,12,-1
 378 533 l 1,13,14
 432 529 432 529 455 529 c 2,15,-1
 562 533 l 1,16,-1
 559 482 l 1,17,-1
 506 477 l 1,18,19
 477 454 477 454 426 410 c 1,20,-1
 306 278 l 1,21,-1
 437 97 l 2,22,23
 449 82 449 82 481 50 c 1,24,-1
 528 45 l 1,0,-1
301 533 m 1,25,-1
 297 482 l 1,26,-1
 242 477 l 1,27,28
 232 450 232 450 225 405 c 2,29,-1
 184 133 l 2,30,31
 177 93 177 93 177 50 c 1,32,-1
 236 45 l 1,33,-1
 224 -4 l 1,34,35
 171 0 171 0 101 0 c 1,36,-1
 18 -4 l 1,37,-1
 20 39 l 1,38,-1
 77 50 l 1,39,40
 90 88 90 88 93 110 c 2,41,-1
 139 410 l 2,42,43
 142 432 142 432 142 477 c 1,44,-1
 90 486 l 1,45,-1
 100 533 l 1,46,47
 159 529 159 529 182 529 c 2,48,-1
 301 533 l 1,25,-1
EndSplineSet
EndChar

StartChar: l
Encoding: 108 108 79
Width: 431
GlyphClass: 2
Flags: W
LayerCount: 2
Fore
SplineSet
177 51 m 1,0,-1
 259 51 l 2,1,2
 286 51 286 51 323 58 c 1,3,4
 341 82 341 82 343 87 c 0,5,6
 359 131 359 131 360 135 c 1,7,-1
 406 131 l 1,8,-1
 376 11 l 1,9,-1
 360 -3 l 1,10,11
 289 0 289 0 274 0 c 2,12,-1
 101 0 l 1,13,-1
 17 -4 l 1,14,-1
 19 39 l 1,15,-1
 77 50 l 1,16,17
 90 88 90 88 93 110 c 2,18,-1
 139 410 l 2,19,20
 142 432 142 432 142 477 c 1,21,-1
 88 486 l 1,22,-1
 99 533 l 1,23,24
 159 529 159 529 182 529 c 2,25,-1
 302 533 l 1,26,-1
 298 482 l 1,27,-1
 242 477 l 1,28,29
 232 450 232 450 225 405 c 2,30,-1
 184 133 l 2,31,32
 177 90 177 90 177 51 c 1,0,-1
EndSplineSet
EndChar

StartChar: m
Encoding: 109 109 80
Width: 735
GlyphClass: 2
Flags: W
LayerCount: 2
Fore
SplineSet
624 99 m 1,0,-1
 627 49 l 1,1,-1
 684 44 l 1,2,-1
 673 -4 l 1,3,4
 621 0 621 0 553 0 c 1,5,-1
 467 -4 l 1,6,-1
 469 39 l 1,7,-1
 527 49 l 1,8,-1
 542 122 l 1,9,-1
 570 419 l 1,10,-1
 350 0 l 1,11,-1
 307 0 l 1,12,-1
 217 419 l 1,13,-1
 155 122 l 2,14,15
 151 100 151 100 147 49 c 1,16,-1
 204 44 l 1,17,-1
 191 -4 l 1,18,19
 155 0 155 0 87 0 c 1,20,-1
 8 -4 l 1,21,-1
 10 39 l 1,22,-1
 68 49 l 1,23,24
 70 55 70 55 77.5 74 c 128,-1,25
 85 93 85 93 87 99 c 2,26,-1
 158 427 l 1,27,-1
 162 478 l 1,28,-1
 105 487 l 1,29,-1
 116 533 l 1,30,31
 189 529 189 529 211 529 c 2,32,-1
 277 529 l 1,33,-1
 289 514 l 1,34,35
 304 420 304 420 309 398 c 2,36,-1
 362 144 l 1,37,-1
 498 406 l 1,38,-1
 551 514 l 1,39,-1
 568 529 l 1,40,-1
 608 529 l 1,41,-1
 720 533 l 1,42,-1
 716 485 l 1,43,-1
 659 478 l 1,44,45
 656 468 656 468 648 427 c 1,46,-1
 624 99 l 1,0,-1
EndSplineSet
EndChar

StartChar: n
Encoding: 110 110 81
Width: 606
GlyphClass: 2
Flags: W
LayerCount: 2
Fore
SplineSet
181 529 m 2,0,-1
 231 529 l 1,1,-1
 243 514 l 1,2,3
 288 416 288 416 296 399 c 1,4,-1
 443 141 l 1,5,-1
 484 405 l 1,6,7
 487 432 487 432 487 476 c 1,8,-1
 433 482 l 1,9,-1
 444 531 l 1,10,-1
 511 529 l 1,11,-1
 633 533 l 1,12,-1
 629 485 l 1,13,-1
 572 476 l 1,14,15
 557 438 557 438 551 400 c 2,16,-1
 489 -3 l 1,17,-1
 422 -3 l 1,18,-1
 203 387 l 1,19,-1
 164 133 l 2,20,21
 158 92 158 92 158 50 c 1,22,-1
 214 45 l 1,23,-1
 201 -4 l 1,24,25
 167 0 167 0 97 0 c 1,26,-1
 17 -4 l 1,27,-1
 19 39 l 1,28,-1
 77 50 l 1,29,30
 90 88 90 88 93 110 c 2,31,-1
 139 410 l 2,32,33
 142 432 142 432 142 477 c 1,34,-1
 88 486 l 1,35,-1
 98 533 l 1,36,37
 158 529 158 529 181 529 c 2,0,-1
EndSplineSet
EndChar

StartChar: o
Encoding: 111 111 82
Width: 586
GlyphClass: 2
Flags: W
LayerCount: 2
Fore
SplineSet
566 313 m 0,0,1
 566 170 566 170 485 79 c 128,-1,2
 404 -12 404 -12 265 -12 c 0,3,4
 160 -12 160 -12 102 49.5 c 128,-1,5
 44 111 44 111 44 215 c 0,6,7
 44 359 44 359 125 450 c 128,-1,8
 206 541 206 541 345 541 c 0,9,10
 450 541 450 541 508 479.5 c 128,-1,11
 566 418 566 418 566 313 c 0,0,1
145 209 m 0,12,13
 145 131 145 131 176.5 85.5 c 128,-1,14
 208 40 208 40 271 40 c 0,15,16
 364 40 364 40 414.5 119.5 c 128,-1,17
 465 199 465 199 465 319 c 0,18,19
 465 398 465 398 433.5 443.5 c 128,-1,20
 402 489 402 489 339 489 c 0,21,22
 246 489 246 489 195.5 409 c 128,-1,23
 145 329 145 329 145 209 c 0,12,13
EndSplineSet
EndChar

StartChar: p
Encoding: 112 112 83
Width: 471
GlyphClass: 2
Flags: W
LayerCount: 2
Fore
SplineSet
169 529 m 1,0,-1
 318 536 l 1,1,2
 390 536 390 536 432 501 c 128,-1,3
 474 466 474 466 474 401 c 0,4,5
 474 314 474 314 411 263.5 c 128,-1,6
 348 213 348 213 259 213 c 2,7,-1
 196 213 l 1,8,-1
 184 133 l 2,9,10
 177 93 177 93 177 50 c 1,11,-1
 242 45 l 1,12,-1
 229 -4 l 1,13,14
 171 0 171 0 101 0 c 1,15,-1
 17 -4 l 1,16,-1
 19 39 l 1,17,-1
 77 50 l 1,18,19
 90 88 90 88 93 110 c 2,20,-1
 139 410 l 2,21,22
 142 432 142 432 142 477 c 1,23,-1
 88 486 l 1,24,-1
 99 533 l 1,25,26
 142 530 142 530 169 529 c 1,0,-1
240 259 m 0,27,28
 305 259 305 259 344 295 c 128,-1,29
 383 331 383 331 383 397 c 0,30,31
 383 490 383 490 280 490 c 0,32,33
 275 490 275 490 243 488 c 1,34,35
 229 431 229 431 225 405 c 2,36,-1
 203 260 l 1,37,38
 217 259 217 259 240 259 c 0,27,28
EndSplineSet
EndChar

StartChar: q
Encoding: 113 113 84
Width: 591
GlyphClass: 2
Flags: W
LayerCount: 2
Fore
SplineSet
265 -12 m 0,0,1
 159 -12 159 -12 101.5 49.5 c 128,-1,2
 44 111 44 111 44 215 c 0,3,4
 44 359 44 359 125 450 c 128,-1,5
 206 541 206 541 345 541 c 0,6,7
 450 541 450 541 508 479.5 c 128,-1,8
 566 418 566 418 566 309.5 c 128,-1,9
 566 201 566 201 514 119 c 128,-1,10
 462 37 462 37 366 4 c 1,11,-1
 421 -37 l 1,12,-1
 532 -90 l 1,13,-1
 468 -168 l 1,14,-1
 289 -11 l 1,15,16
 281 -12 281 -12 265 -12 c 0,0,1
145 209 m 0,17,18
 145 131 145 131 177 85.5 c 128,-1,19
 209 40 209 40 272 40 c 0,20,21
 365 40 365 40 415 119.5 c 128,-1,22
 465 199 465 199 465 319 c 0,23,24
 465 398 465 398 433.5 443.5 c 128,-1,25
 402 489 402 489 339 489 c 0,26,27
 246 489 246 489 195.5 409 c 128,-1,28
 145 329 145 329 145 209 c 0,17,18
EndSplineSet
EndChar

StartChar: r
Encoding: 114 114 85
Width: 517
GlyphClass: 2
Flags: W
LayerCount: 2
Fore
SplineSet
178 529 m 1,0,-1
 321 536 l 1,1,2
 393 536 393 536 435.5 502 c 128,-1,3
 478 468 478 468 478 405.5 c 128,-1,4
 478 343 478 343 442.5 298 c 128,-1,5
 407 253 407 253 349 233 c 1,6,7
 387 129 387 129 434 50 c 1,8,-1
 482 45 l 1,9,-1
 470 -4 l 1,10,11
 411 0 411 0 340 0 c 1,12,13
 320 69 320 69 313 87 c 2,14,-1
 263 219 l 1,15,-1
 260 219 l 2,16,17
 242 219 242 219 198 221 c 1,18,-1
 185 133 l 2,19,20
 178 85 178 85 178 50 c 1,21,-1
 240 45 l 1,22,-1
 227 -4 l 1,23,24
 173 0 173 0 103 0 c 1,25,-1
 17 -4 l 1,26,-1
 19 39 l 1,27,-1
 78 50 l 1,28,29
 91 88 91 88 94 110 c 2,30,-1
 142 410 l 2,31,32
 145 432 145 432 145 477 c 1,33,-1
 90 486 l 1,34,-1
 100 533 l 1,35,36
 148 530 148 530 178 529 c 1,0,-1
282 490 m 0,37,38
 269 490 269 490 245 487 c 1,39,40
 232 435 232 435 227 405 c 2,41,-1
 205 267 l 1,42,43
 224 266 224 266 252 266 c 0,44,45
 319 266 319 266 353 300.5 c 128,-1,46
 387 335 387 335 387 399 c 0,47,48
 387 490 387 490 282 490 c 0,37,38
EndSplineSet
EndChar

StartChar: s
Encoding: 115 115 86
Width: 445
GlyphClass: 2
Flags: W
LayerCount: 2
Fore
SplineSet
109 149 m 1,0,1
 103 107 103 107 103 94.5 c 128,-1,2
 103 82 103 82 106 65 c 1,3,4
 150 44 150 44 195.5 44 c 128,-1,5
 241 44 241 44 270.5 68.5 c 128,-1,6
 300 93 300 93 300 128.5 c 128,-1,7
 300 164 300 164 277.5 186 c 128,-1,8
 255 208 255 208 222.5 224.5 c 128,-1,9
 190 241 190 241 157.5 259.5 c 128,-1,10
 125 278 125 278 102.5 308 c 128,-1,11
 80 338 80 338 80 378 c 0,12,13
 80 453 80 453 133.5 496.5 c 128,-1,14
 187 540 187 540 260.5 540 c 128,-1,15
 334 540 334 540 426 515 c 1,16,-1
 397 390 l 1,17,-1
 346 394 l 1,18,19
 352 435 352 435 352 440 c 128,-1,20
 352 445 352 445 348 471 c 1,21,22
 314 488 314 488 272.5 488 c 128,-1,23
 231 488 231 488 204 465.5 c 128,-1,24
 177 443 177 443 177 410.5 c 128,-1,25
 177 378 177 378 200 356.5 c 128,-1,26
 223 335 223 335 255.5 318.5 c 128,-1,27
 288 302 288 302 321 283 c 128,-1,28
 354 264 354 264 377 233 c 128,-1,29
 400 202 400 202 400 162 c 0,30,31
 400 81 400 81 340 35 c 128,-1,32
 280 -11 280 -11 191 -11 c 0,33,34
 146 -11 146 -11 104.5 -1.5 c 128,-1,35
 63 8 63 8 44 18 c 2,36,-1
 25 27 l 1,37,-1
 55 154 l 1,38,-1
 109 149 l 1,0,1
EndSplineSet
EndChar

StartChar: t
Encoding: 116 116 87
Width: 477
GlyphClass: 2
Flags: W
LayerCount: 2
Fore
SplineSet
447 429 m 128,-1,1
 447 441 447 441 446.5 450.5 c 128,-1,2
 446 460 446 460 437 476 c 1,3,4
 392 479 392 479 378 479 c 2,5,-1
 333 479 l 1,6,7
 320 433 320 433 315 405 c 2,8,-1
 274 133 l 2,9,10
 267 80 267 80 267 50 c 1,11,-1
 328 45 l 1,12,-1
 315 -4 l 1,13,14
 262 0 262 0 192 0 c 1,15,-1
 107 -4 l 1,16,-1
 110 39 l 1,17,-1
 168 50 l 1,18,19
 175 71 175 71 184 110 c 1,20,-1
 230 410 l 2,21,22
 233 431 233 431 233 479 c 1,23,-1
 190 479 l 2,24,25
 179 479 179 479 128 476 c 1,26,27
 114 458 114 458 111 450 c 128,-1,28
 108 442 108 442 98 405 c 1,29,-1
 50 408 l 1,30,-1
 73 523 l 1,31,-1
 89 536 l 1,32,33
 160 529 160 529 174 529 c 2,34,-1
 407 529 l 1,35,-1
 494 536 l 1,36,-1
 507 523 l 1,37,-1
 494 408 l 1,38,-1
 446 405 l 1,39,0
 447 417 447 417 447 429 c 128,-1,1
EndSplineSet
EndChar

StartChar: u
Encoding: 117 117 88
Width: 583
GlyphClass: 2
Flags: W
LayerCount: 2
Fore
SplineSet
263 -11 m 128,-1,1
 164 -11 164 -11 119 46 c 0,2,3
 85 88 85 88 85 154 c 0,4,5
 85 176 85 176 89 200 c 2,6,-1
 121 408 l 2,7,8
 125 437 125 437 125 477 c 1,9,-1
 70 486 l 1,10,-1
 81 533 l 1,11,12
 141 529 141 529 163 529 c 2,13,-1
 289 533 l 1,14,-1
 284 482 l 1,15,-1
 227 477 l 1,16,17
 216 440 216 440 210 402 c 2,18,-1
 179 198 l 2,19,20
 176 179 176 179 176 163 c 0,21,22
 176 121 176 121 194 92 c 0,23,24
 220 51 220 51 281 51 c 128,-1,25
 342 51 342 51 379 90.5 c 128,-1,26
 416 130 416 130 426 198 c 2,27,-1
 459 408 l 1,28,29
 462 444 462 444 462 477 c 1,30,-1
 407 486 l 1,31,-1
 418 533 l 1,32,33
 473 529 473 529 496 529 c 2,34,-1
 607 533 l 1,35,-1
 603 482 l 1,36,-1
 546 477 l 1,37,38
 537 451 537 451 529 402 c 2,39,-1
 498 200 l 2,40,41
 483 102 483 102 422.5 45.5 c 128,-1,0
 362 -11 362 -11 263 -11 c 128,-1,1
EndSplineSet
EndChar

StartChar: v
Encoding: 118 118 89
Width: 546
GlyphClass: 2
Flags: W
LayerCount: 2
Fore
SplineSet
210 477 m 1,0,1
 210 473 210 473 210 456.5 c 128,-1,2
 210 440 210 440 216 412 c 2,3,-1
 276 128 l 1,4,-1
 429 437 l 1,5,-1
 443 477 l 1,6,-1
 390 485 l 1,7,-1
 400 530 l 1,8,9
 446 529 446 529 474 529 c 1,10,-1
 584 533 l 1,11,-1
 580 489 l 1,12,-1
 533 479 l 1,13,14
 505 442 505 442 488 408 c 2,15,-1
 280 0 l 1,16,-1
 219 0 l 1,17,-1
 120 423 l 1,18,-1
 101 478 l 1,19,-1
 54 485 l 1,20,-1
 64 530 l 1,21,22
 116 529 116 529 142 529 c 2,23,-1
 271 533 l 1,24,-1
 268 489 l 1,25,-1
 210 477 l 1,0,1
EndSplineSet
EndChar

StartChar: w
Encoding: 119 119 90
Width: 788
GlyphClass: 2
Flags: W
LayerCount: 2
Fore
SplineSet
823 489 m 1,0,-1
 775 479 l 1,1,2
 745 438 745 438 731 408 c 2,3,-1
 544 0 l 1,4,-1
 483 0 l 1,5,-1
 420 356 l 1,6,-1
 258 0 l 1,7,-1
 196 0 l 1,8,-1
 120 423 l 2,9,10
 116 444 116 444 103 478 c 1,11,-1
 56 485 l 1,12,-1
 66 530 l 1,13,14
 117 529 117 529 144 529 c 2,15,-1
 273 533 l 1,16,-1
 269 489 l 1,17,-1
 212 477 l 1,18,19
 212 443 212 443 216 412 c 2,20,-1
 252 128 l 1,21,-1
 423 511 l 1,22,-1
 481 511 l 1,23,-1
 539 128 l 1,24,-1
 673 437 l 1,25,-1
 685 477 l 1,26,-1
 632 485 l 1,27,-1
 642 530 l 1,28,29
 689 529 689 529 716 529 c 2,30,-1
 826 533 l 1,31,-1
 823 489 l 1,0,-1
EndSplineSet
EndChar

StartChar: x
Encoding: 120 120 91
Width: 556
GlyphClass: 2
Flags: W
LayerCount: 2
Fore
SplineSet
240 263 m 1,0,-1
 153 419 l 1,1,-1
 118 478 l 1,2,-1
 66 485 l 1,3,-1
 77 531 l 1,4,5
 126 529 126 529 146 529 c 2,6,-1
 291 533 l 1,7,-1
 287 490 l 1,8,-1
 236 478 l 1,9,10
 248 433 248 433 257 416 c 2,11,-1
 305 330 l 1,12,-1
 386 434 l 2,13,14
 397 447 397 447 417 478 c 1,15,-1
 370 485 l 1,16,-1
 381 531 l 1,17,18
 421 529 421 529 448 529 c 2,19,-1
 571 533 l 1,20,-1
 568 490 l 1,21,-1
 516 480 l 1,22,23
 510 475 510 475 495 463 c 0,24,25
 459 434 459 434 453 427 c 2,26,-1
 335 279 l 1,27,-1
 436 99 l 1,28,29
 462 64 462 64 472 51 c 1,30,-1
 523 45 l 1,31,-1
 511 -2 l 1,32,33
 457 0 457 0 418 0 c 1,34,-1
 305 -4 l 1,35,-1
 308 38 l 1,36,-1
 351 48 l 1,37,38
 338 90 338 90 328 107 c 2,39,-1
 269 212 l 1,40,-1
 174 99 l 2,41,42
 165 88 165 88 141 51 c 1,43,-1
 192 45 l 1,44,-1
 180 -2 l 1,45,46
 135 0 135 0 101 0 c 1,47,-1
 -6 -4 l 1,48,-1
 -4 38 l 1,49,-1
 42 49 l 1,50,51
 115 115 115 115 122 123 c 2,52,-1
 240 263 l 1,0,-1
EndSplineSet
EndChar

StartChar: y
Encoding: 121 121 92
Width: 533
GlyphClass: 2
Flags: W
LayerCount: 2
Fore
SplineSet
562 489 m 1,0,-1
 511 479 l 1,1,2
 475 442 475 442 453 408 c 2,3,-1
 311 197 l 1,4,-1
 301 133 l 1,5,6
 294 80 294 80 294 50 c 1,7,-1
 355 45 l 1,8,-1
 343 -4 l 1,9,10
 289 0 289 0 219 0 c 1,11,-1
 135 -4 l 1,12,-1
 137 39 l 1,13,-1
 195 50 l 1,14,15
 196 53 196 53 199.5 66 c 128,-1,16
 203 79 203 79 206.5 91.5 c 128,-1,17
 210 104 210 104 210 110 c 2,18,-1
 223 193 l 1,19,-1
 134 423 l 1,20,21
 126 448 126 448 103 478 c 1,22,-1
 56 485 l 1,23,-1
 66 530 l 1,24,25
 117 529 117 529 144 529 c 2,26,-1
 273 533 l 1,27,-1
 270 489 l 1,28,-1
 215 477 l 1,29,30
 218 445 218 445 230 412 c 2,31,-1
 286 265 l 1,32,-1
 397 437 l 1,33,-1
 418 477 l 1,34,-1
 371 485 l 1,35,-1
 381 530 l 1,36,37
 428 529 428 529 455 529 c 2,38,-1
 565 533 l 1,39,-1
 562 489 l 1,0,-1
EndSplineSet
EndChar

StartChar: z
Encoding: 122 122 93
Width: 455
GlyphClass: 2
Flags: W
LayerCount: 2
Fore
SplineSet
211 476 m 2,0,1
 179 476 179 476 147 472 c 1,2,-1
 132 448 l 1,3,4
 118 410 118 410 113 388 c 1,5,-1
 66 391 l 1,6,-1
 89 523 l 1,7,-1
 106 536 l 1,8,9
 176 529 176 529 191 529 c 2,10,-1
 455 529 l 1,11,-1
 455 480 l 1,12,-1
 357 362 l 1,13,-1
 193 149 l 1,14,-1
 128 53 l 1,15,-1
 269 53 l 2,16,17
 301 53 301 53 335 59 c 1,18,19
 350 79 350 79 357.5 95.5 c 128,-1,20
 365 112 365 112 372 142 c 1,21,-1
 417 138 l 1,22,-1
 389 11 l 1,23,-1
 371 -3 l 1,24,25
 301 0 301 0 285 0 c 2,26,-1
 11 0 l 1,27,-1
 12 49 l 1,28,29
 87 135 87 135 113 169 c 2,30,-1
 282 389 l 1,31,-1
 341 476 l 1,32,-1
 211 476 l 2,0,1
EndSplineSet
EndChar

StartChar: braceleft
Encoding: 123 123 94
Width: 276
GlyphClass: 2
Flags: W
LayerCount: 2
Fore
SplineSet
146 -9.5 m 128,-1,1
 146 -37 146 -37 147 -54 c 2,2,-1
 148 -70 l 1,3,-1
 231 -85 l 1,4,-1
 224 -125 l 1,5,6
 130 -121 130 -121 61 -121 c 1,7,-1
 50 -108 l 1,8,9
 85 44 85 44 118 264 c 1,10,11
 101 299 101 299 58 309 c 1,12,-1
 62 332 l 1,13,14
 107 339 107 339 134 376 c 1,15,16
 166 609 166 609 171 749 c 1,17,-1
 186 762 l 1,18,-1
 350 766 l 1,19,-1
 343 726 l 1,20,-1
 258 711 l 1,21,22
 235 651 235 651 229 601 c 1,23,-1
 193 356 l 1,24,25
 164 329 164 329 131 318 c 1,26,-1
 130 314 l 1,27,28
 163 301 163 301 182 274 c 1,29,-1
 149 40 l 2,30,0
 146 18 146 18 146 -9.5 c 128,-1,1
EndSplineSet
EndChar

StartChar: bar
Encoding: 124 124 95
Width: 275
GlyphClass: 2
Flags: W
LayerCount: 2
Fore
SplineSet
135 -122 m 1,0,-1
 61 -113 l 1,1,-1
 189 760 l 1,2,-1
 253 752 l 1,3,-1
 135 -122 l 1,0,-1
EndSplineSet
EndChar

StartChar: braceright
Encoding: 125 125 96
Width: 276
GlyphClass: 2
Flags: W
LayerCount: 2
Fore
SplineSet
178 650.5 m 128,-1,1
 178 678 178 678 177 694 c 2,2,-1
 176 711 l 1,3,-1
 93 726 l 1,4,-1
 100 766 l 1,5,6
 195 762 195 762 264 762 c 1,7,-1
 275 749 l 1,8,9
 240 606 240 606 206 377 c 1,10,11
 212 362 212 362 229.5 349 c 128,-1,12
 247 336 247 336 267 332 c 1,13,-1
 263 309 l 1,14,15
 215 301 215 301 190 264 c 1,16,17
 157 26 157 26 154 -108 c 1,18,-1
 139 -121 l 1,19,-1
 -25 -125 l 1,20,-1
 -19 -85 l 1,21,-1
 66 -70 l 1,22,23
 89 -10 89 -10 95 40 c 1,24,-1
 131 285 l 1,25,26
 162 312 162 312 194 323 c 1,27,-1
 194 327 l 1,28,29
 163 339 163 339 142 367 c 1,30,-1
 175 601 l 2,31,0
 178 623 178 623 178 650.5 c 128,-1,1
EndSplineSet
EndChar

StartChar: asciitilde
Encoding: 126 126 97
Width: 560
GlyphClass: 2
Flags: W
LayerCount: 2
Fore
SplineSet
393.5 175 m 128,-1,1
 367 175 367 175 277 205 c 128,-1,2
 187 235 187 235 168 235 c 0,3,4
 134 235 134 235 94 194 c 1,5,-1
 81 180 l 1,6,-1
 46 213 l 1,7,8
 71 250 71 250 109 283.5 c 128,-1,9
 147 317 147 317 169 317 c 0,10,11
 206 317 206 317 293.5 287 c 128,-1,12
 381 257 381 257 400 257 c 0,13,14
 433 257 433 257 472 298 c 1,15,-1
 486 312 l 1,16,-1
 521 279 l 1,17,18
 496 242 496 242 458 208.5 c 128,-1,0
 420 175 420 175 393.5 175 c 128,-1,1
EndSplineSet
EndChar

StartChar: exclamdown
Encoding: 161 161 99
Width: 228
GlyphClass: 2
Flags: W
LayerCount: 2
Fore
SplineSet
78 278 m 1,0,-1
 143 266 l 1,1,2
 107 88 107 88 72 -220 c 1,3,-1
 -9 -235 l 1,4,-1
 -31 -220 l 1,5,6
 13 -53 13 -53 33 42.5 c 128,-1,7
 53 138 53 138 67 268 c 1,8,-1
 78 278 l 1,0,-1
138 503 m 0,9,10
 184 503 184 503 184 453 c 0,11,12
 184 423 184 423 166 398.5 c 128,-1,13
 148 374 148 374 121 374 c 0,14,15
 76 374 76 374 76 423 c 0,16,17
 76 453 76 453 93.5 478 c 128,-1,18
 111 503 111 503 138 503 c 0,9,10
EndSplineSet
EndChar

StartChar: cent
Encoding: 162 162 100
Width: 469
GlyphClass: 2
Flags: W
LayerCount: 2
Fore
SplineSet
36 274 m 0,0,1
 36 406 36 406 102.5 491 c 128,-1,2
 169 576 169 576 290 580 c 1,3,-1
 310 689 l 1,4,-1
 342 686 l 1,5,-1
 322 579 l 1,6,7
 357 577 357 577 448 545 c 1,8,-1
 419 420 l 1,9,-1
 364 423 l 1,10,-1
 369 459 l 2,11,12
 369 462 369 462 369 468.5 c 128,-1,13
 369 475 369 475 367 493 c 1,14,15
 341 517 341 517 312 522 c 1,16,-1
 240 132 l 1,17,18
 273 132 273 132 307 141 c 128,-1,19
 341 150 341 150 359 159 c 2,20,-1
 377 168 l 1,21,-1
 397 121 l 1,22,23
 369 100 369 100 320.5 83.5 c 128,-1,24
 272 67 272 67 228 67 c 1,25,-1
 208 -42 l 1,26,-1
 174 -39 l 1,27,-1
 194 69 l 1,28,29
 116 78 116 78 76 132 c 128,-1,30
 36 186 36 186 36 274 c 0,0,1
127 279 m 0,31,32
 127 156 127 156 206 135 c 1,33,-1
 279 522 l 1,34,35
 204 515 204 515 165.5 441.5 c 128,-1,36
 127 368 127 368 127 279 c 0,31,32
EndSplineSet
EndChar

StartChar: sterling
Encoding: 163 163 101
Width: 554
GlyphClass: 2
Flags: W
LayerCount: 2
Fore
SplineSet
256 618 m 128,-1,1
 317 662 317 662 393 662 c 128,-1,2
 469 662 469 662 581 630 c 1,3,-1
 545 483 l 1,4,-1
 489 489 l 1,5,-1
 495 529 l 2,6,7
 495 531 495 531 495 540 c 128,-1,8
 495 549 495 549 491 585 c 1,9,10
 450 607 450 607 397 607 c 128,-1,11
 344 607 344 607 312.5 581.5 c 128,-1,12
 281 556 281 556 274 509 c 2,13,-1
 256 386 l 1,14,-1
 463 396 l 1,15,-1
 460 362 l 1,16,-1
 251 352 l 1,17,-1
 240 280 l 1,18,-1
 452 290 l 1,19,-1
 449 256 l 1,20,-1
 235 246 l 1,21,-1
 224 167 l 1,22,-1
 214 57 l 1,23,-1
 339 57 l 2,24,25
 378 57 378 57 425 66 c 1,26,27
 448 95 448 95 458.5 122 c 128,-1,28
 469 149 469 149 475 170 c 1,29,-1
 527 165 l 1,30,-1
 491 14 l 1,31,-1
 469 -4 l 1,32,33
 379 0 379 0 360 0 c 2,34,-1
 134 0 l 1,35,-1
 30 -5 l 1,36,-1
 33 45 l 1,37,-1
 111 60 l 1,38,39
 126 109 126 109 131 137 c 2,40,-1
 146 241 l 1,41,-1
 49 237 l 1,42,-1
 52 272 l 1,43,-1
 151 276 l 1,44,-1
 161 348 l 1,45,-1
 60 343 l 1,46,-1
 63 378 l 1,47,-1
 166 382 l 1,48,-1
 183 495 l 2,49,0
 195 574 195 574 256 618 c 128,-1,1
EndSplineSet
EndChar

StartChar: yen
Encoding: 165 165 102
Width: 626
GlyphClass: 2
Flags: W
LayerCount: 2
Fore
SplineSet
112 237 m 1,0,-1
 117 272 l 1,1,-1
 262 278 l 1,2,-1
 231 348 l 1,3,-1
 125 343 l 1,4,-1
 128 378 l 1,5,-1
 217 382 l 1,6,-1
 155 523 l 1,7,8
 122 571 122 571 108 590 c 1,9,-1
 56 599 l 1,10,-1
 71 653 l 1,11,-1
 167 653 l 1,12,-1
 317 658 l 1,13,-1
 315 611 l 1,14,-1
 237 589 l 1,15,16
 255 519 255 519 264 499 c 2,17,-1
 330 346 l 1,18,-1
 475 545 l 2,19,20
 476 547 476 547 499 590 c 1,21,-1
 428 599 l 1,22,-1
 443 653 l 1,23,-1
 521 653 l 1,24,-1
 672 658 l 1,25,-1
 670 611 l 1,26,-1
 600 592 l 1,27,-1
 520 513 l 1,28,-1
 432 391 l 1,29,-1
 530 396 l 1,30,-1
 526 362 l 1,31,-1
 406 356 l 1,32,-1
 360 292 l 1,33,-1
 358 283 l 1,34,-1
 517 290 l 1,35,-1
 514 256 l 1,36,-1
 353 248 l 1,37,-1
 341 167 l 1,38,-1
 332 57 l 1,39,-1
 407 51 l 1,40,-1
 393 -4 l 1,41,42
 308 0 308 0 239 0 c 1,43,-1
 146 -4 l 1,44,-1
 149 48 l 1,45,-1
 225 57 l 1,46,47
 244 117 244 117 247 137 c 2,48,-1
 262 244 l 1,49,-1
 112 237 l 1,0,-1
EndSplineSet
EndChar

StartChar: brokenbar
Encoding: 166 166 103
Width: 256
GlyphClass: 2
Flags: W
LayerCount: 2
Fore
SplineSet
196 392 m 1,0,-1
 128 400 l 1,1,-1
 180 760 l 1,2,-1
 244 752 l 1,3,-1
 196 392 l 1,0,-1
98 212 m 1,4,-1
 169 205 l 1,5,-1
 126 -122 l 1,6,-1
 52 -113 l 1,7,-1
 98 212 l 1,4,-1
EndSplineSet
EndChar

StartChar: section
Encoding: 167 167 104
Width: 513
GlyphClass: 2
Flags: W
LayerCount: 2
Fore
SplineSet
130 9 m 2,0,-1
 131 -36 l 1,1,2
 176 -55 176 -55 222.5 -55 c 128,-1,3
 269 -55 269 -55 301.5 -28.5 c 128,-1,4
 334 -2 334 -2 334 33 c 128,-1,5
 334 68 334 68 309 94.5 c 128,-1,6
 284 121 284 121 248 141.5 c 128,-1,7
 212 162 212 162 176 183 c 128,-1,8
 140 204 140 204 115 232.5 c 128,-1,9
 90 261 90 261 90 294 c 0,10,11
 90 358 90 358 167 411 c 1,12,-1
 184 399 l 1,13,14
 169 376 169 376 169 351.5 c 128,-1,15
 169 327 169 327 196.5 302 c 128,-1,16
 224 277 224 277 263.5 253.5 c 128,-1,17
 303 230 303 230 342.5 203.5 c 128,-1,18
 382 177 382 177 409.5 140 c 128,-1,19
 437 103 437 103 437 59 c 0,20,21
 437 -22 437 -22 372 -68.5 c 128,-1,22
 307 -115 307 -115 217 -115 c 0,23,24
 168 -115 168 -115 124.5 -104 c 128,-1,25
 81 -93 81 -93 62 -82 c 2,26,-1
 42 -71 l 1,27,-1
 78 83 l 1,28,-1
 137 77 l 1,29,30
 130 19 130 19 130 9 c 2,0,-1
373 215 m 1,31,32
 387 235 387 235 387 264.5 c 128,-1,33
 387 294 387 294 358 321.5 c 128,-1,34
 329 349 329 349 289 370.5 c 128,-1,35
 249 392 249 392 210 416 c 128,-1,36
 171 440 171 440 145.5 474.5 c 128,-1,37
 120 509 120 509 120 549 c 0,38,39
 120 631 120 631 178.5 675.5 c 128,-1,40
 237 720 237 720 322 720 c 0,41,42
 382 720 382 720 484 694 c 1,43,-1
 449 547 l 1,44,-1
 395 553 l 1,45,46
 400 583 400 583 401 593 c 1,47,-1
 401 601 l 2,48,49
 401 613 401 613 397 649 c 1,50,51
 356 665 356 665 315 665 c 128,-1,52
 274 665 274 665 247.5 644.5 c 128,-1,53
 221 624 221 624 221 590 c 128,-1,54
 221 556 221 556 246 530 c 128,-1,55
 271 504 271 504 307 482 c 128,-1,56
 343 460 343 460 378.5 437.5 c 128,-1,57
 414 415 414 415 439 386 c 128,-1,58
 464 357 464 357 464 326 c 0,59,60
 464 259 464 259 390 203 c 1,61,-1
 373 215 l 1,31,32
EndSplineSet
EndChar

StartChar: dieresis
Encoding: 168 168 105
Width: 349
GlyphClass: 2
Flags: W
LayerCount: 2
Fore
SplineSet
357 713 m 0,0,1
 401 713 401 713 401 665 c 0,2,3
 401 633 401 633 385.5 613.5 c 128,-1,4
 370 594 370 594 340 594 c 0,5,6
 295 594 295 594 295 641 c 0,7,8
 295 673 295 673 311 693 c 128,-1,9
 327 713 327 713 357 713 c 0,0,1
128 713 m 0,10,11
 173 713 173 713 173 665 c 0,12,13
 173 633 173 633 156.5 613.5 c 128,-1,14
 140 594 140 594 111 594 c 0,15,16
 66 594 66 594 66 641 c 0,17,18
 66 673 66 673 82 693 c 128,-1,19
 98 713 98 713 128 713 c 0,10,11
EndSplineSet
EndChar

StartChar: copyright
Encoding: 169 169 106
Width: 845
GlyphClass: 2
Flags: W
LayerCount: 2
Fore
SplineSet
430 29 m 0,0,1
 330 29 330 29 277.5 88.5 c 128,-1,2
 225 148 225 148 225 249 c 128,-1,3
 225 350 225 350 278 410 c 128,-1,4
 331 470 331 470 430 470 c 0,5,6
 473 470 473 470 562 450 c 1,7,-1
 555 349 l 1,8,-1
 514 352 l 1,9,-1
 514 384 l 2,10,11
 514 391 514 391 507 412 c 1,12,13
 463 423 463 423 431 423 c 0,14,15
 372 423 372 423 340 374.5 c 128,-1,16
 308 326 308 326 308 250 c 128,-1,17
 308 174 308 174 340 125 c 128,-1,18
 372 76 372 76 431 76 c 0,19,20
 470 76 470 76 512 86 c 1,21,22
 521 106 521 106 521 118 c 2,23,-1
 522 151 l 1,24,-1
 564 152 l 1,25,-1
 567 49 l 1,26,27
 478 29 478 29 430 29 c 0,0,1
681.5 509 m 128,-1,29
 788 403 788 403 788 252 c 128,-1,30
 788 101 788 101 680.5 -7 c 128,-1,31
 573 -115 573 -115 422.5 -115 c 128,-1,32
 272 -115 272 -115 164.5 -9 c 128,-1,33
 57 97 57 97 57 249 c 128,-1,34
 57 401 57 401 164.5 508 c 128,-1,35
 272 615 272 615 423.5 615 c 128,-1,28
 575 615 575 615 681.5 509 c 128,-1,29
743 250 m 128,-1,37
 743 382 743 382 648.5 476.5 c 128,-1,38
 554 571 554 571 421.5 571 c 128,-1,39
 289 571 289 571 195 477.5 c 128,-1,40
 101 384 101 384 101 251 c 128,-1,41
 101 118 101 118 195.5 23.5 c 128,-1,42
 290 -71 290 -71 422.5 -71 c 128,-1,43
 555 -71 555 -71 649 23.5 c 128,-1,36
 743 118 743 118 743 250 c 128,-1,37
EndSplineSet
EndChar

StartChar: ordfeminine
Encoding: 170 170 107
Width: 343
GlyphClass: 2
Flags: W
LayerCount: 2
Fore
SplineSet
210 759 m 0,0,1
 239 759 239 759 289 749 c 1,2,-1
 333 759 l 1,3,-1
 353 746 l 1,4,5
 316 601 316 601 312 497 c 1,6,-1
 364 494 l 1,7,-1
 362 466 l 1,8,-1
 252 440 l 1,9,-1
 233 450 l 1,10,11
 254 514 254 514 262 571 c 1,12,13
 234 513 234 513 198 477 c 128,-1,14
 162 441 162 441 130 441 c 0,15,16
 69 441 69 441 69 534 c 0,17,18
 69 610 69 610 115 684.5 c 128,-1,19
 161 759 161 759 210 759 c 0,0,1
163 502 m 0,20,21
 188 502 188 502 223.5 563.5 c 128,-1,22
 259 625 259 625 268 690 c 1,23,24
 223 708 223 708 200 708 c 0,25,26
 180 708 180 708 160.5 655.5 c 128,-1,27
 141 603 141 603 141 552.5 c 128,-1,28
 141 502 141 502 163 502 c 0,20,21
EndSplineSet
EndChar

StartChar: guillemotleft
Encoding: 171 171 108
Width: 414
GlyphClass: 2
Flags: W
LayerCount: 2
Fore
SplineSet
33 242 m 1,0,-1
 216 464 l 1,1,-1
 250 439 l 1,2,-1
 115 242 l 1,3,-1
 194 45 l 1,4,-1
 153 20 l 1,5,-1
 33 242 l 1,0,-1
196 242 m 1,6,-1
 376 460 l 1,7,-1
 408 435 l 1,8,-1
 277 242 l 1,9,-1
 354 49 l 1,10,-1
 314 24 l 1,11,-1
 196 242 l 1,6,-1
EndSplineSet
EndChar

StartChar: logicalnot
Encoding: 172 172 109
Width: 560
GlyphClass: 2
Flags: W
LayerCount: 2
Fore
SplineSet
70 307 m 1,0,-1
 525 307 l 1,1,-1
 493 69 l 1,2,-1
 422 69 l 1,3,-1
 448 240 l 1,4,-1
 60 236 l 1,5,-1
 70 307 l 1,0,-1
EndSplineSet
EndChar

StartChar: registered
Encoding: 174 174 110
Width: 845
GlyphClass: 2
Flags: W
LayerCount: 2
Fore
SplineSet
681.5 509 m 128,-1,1
 788 403 788 403 788 252 c 128,-1,2
 788 101 788 101 680.5 -7 c 128,-1,3
 573 -115 573 -115 422.5 -115 c 128,-1,4
 272 -115 272 -115 164.5 -9 c 128,-1,5
 57 97 57 97 57 249 c 128,-1,6
 57 401 57 401 164.5 508 c 128,-1,7
 272 615 272 615 423.5 615 c 128,-1,0
 575 615 575 615 681.5 509 c 128,-1,1
743 250 m 128,-1,9
 743 382 743 382 648.5 476.5 c 128,-1,10
 554 571 554 571 421.5 571 c 128,-1,11
 289 571 289 571 195 477.5 c 128,-1,12
 101 384 101 384 101 251 c 128,-1,13
 101 118 101 118 195.5 23.5 c 128,-1,14
 290 -71 290 -71 422.5 -71 c 128,-1,15
 555 -71 555 -71 649 23.5 c 128,-1,8
 743 118 743 118 743 250 c 128,-1,9
300 467 m 1,16,-1
 425 473 l 1,17,18
 489 473 489 473 524.5 442 c 128,-1,19
 560 411 560 411 560 350 c 0,20,21
 560 270 560 270 481 238 c 1,22,23
 522 158 522 158 542 132 c 1,24,25
 548 121 548 121 572 89 c 1,26,-1
 613 84 l 1,27,-1
 609 47 l 1,28,-1
 502 47 l 1,29,-1
 490 80 l 1,30,31
 473 121 473 121 472 123 c 2,32,-1
 418 226 l 1,33,-1
 365 226 l 1,34,-1
 365 152 l 2,35,36
 365 132 365 132 368 90 c 1,37,-1
 412 84 l 1,38,-1
 408 47 l 1,39,-1
 364 47 l 1,40,-1
 250 44 l 1,41,-1
 244 77 l 1,42,-1
 294 90 l 1,43,-1
 295 90 l 1,44,-1
 300 134 l 1,45,-1
 300 385 l 1,46,-1
 295 429 l 1,47,-1
 294 429 l 1,48,-1
 247 433 l 1,49,-1
 251 467 l 1,50,-1
 300 467 l 1,16,-1
400 260 m 2,51,-1
 411 260 l 1,52,53
 496 267 496 267 496 349 c 0,54,55
 496 393 496 393 470.5 416 c 128,-1,56
 445 439 445 439 400 439 c 0,57,58
 394 439 394 439 368 435 c 1,59,60
 365 390 365 390 365 368 c 2,61,-1
 365 262 l 1,62,63
 378 260 378 260 400 260 c 2,51,-1
EndSplineSet
EndChar

StartChar: macron
Encoding: 175 175 111
Width: 349
GlyphClass: 2
Flags: W
LayerCount: 2
Fore
SplineSet
381 606 m 1,0,-1
 73 606 l 1,1,-1
 81 659 l 1,2,-1
 394 659 l 1,3,-1
 381 606 l 1,0,-1
EndSplineSet
EndChar

StartChar: degree
Encoding: 176 176 112
Width: 359
GlyphClass: 2
Flags: W
LayerCount: 2
Fore
SplineSet
333.5 416 m 128,-1,1
 287 368 287 368 219 368 c 128,-1,2
 151 368 151 368 117 399 c 128,-1,3
 83 430 83 430 84 489 c 1,4,5
 84 567 84 567 130 616.5 c 128,-1,6
 176 666 176 666 243.5 666 c 128,-1,7
 311 666 311 666 345.5 634 c 128,-1,8
 380 602 380 602 381 543 c 1,9,0
 380 464 380 464 333.5 416 c 128,-1,1
244 615 m 0,10,11
 204 615 204 615 182 578 c 128,-1,12
 160 541 160 541 160 492 c 1,13,14
 162 419 162 419 220 419 c 0,15,16
 260 419 260 419 282 455 c 128,-1,17
 304 491 304 491 303 540 c 1,18,19
 305 615 305 615 244 615 c 0,10,11
EndSplineSet
EndChar

StartChar: plusminus
Encoding: 177 177 113
Width: 546
GlyphClass: 2
Flags: W
LayerCount: 2
Fore
SplineSet
328 304 m 1,0,-1
 303 109 l 1,1,-1
 233 109 l 1,2,-1
 260 303 l 1,3,-1
 74 301 l 1,4,-1
 84 371 l 1,5,-1
 270 371 l 1,6,-1
 297 562 l 1,7,-1
 362 562 l 1,8,-1
 337 371 l 1,9,-1
 524 371 l 1,10,-1
 514 306 l 1,11,-1
 328 304 l 1,0,-1
40 66 m 1,12,-1
 482 71 l 1,13,-1
 472 0 l 1,14,-1
 32 0 l 1,15,-1
 40 66 l 1,12,-1
EndSplineSet
EndChar

StartChar: two.sups
Encoding: 178 178 114
Width: 330
GlyphClass: 2
Flags: W
LayerCount: 2
Fore
SplineSet
116 845 m 1,0,1
 176 867 176 867 237 867 c 128,-1,2
 298 867 298 867 329 843.5 c 128,-1,3
 360 820 360 820 360 771 c 128,-1,4
 360 722 360 722 315.5 668.5 c 128,-1,5
 271 615 271 615 137 508 c 1,6,-1
 229 508 l 1,7,-1
 284 514 l 1,8,9
 300 539 300 539 301 544 c 2,10,-1
 308 570 l 1,11,-1
 350 567 l 1,12,-1
 329 461 l 1,13,-1
 311 448 l 1,14,15
 254 450 254 450 241 450 c 2,16,-1
 52 450 l 1,17,-1
 52 505 l 1,18,19
 194 626 194 626 235.5 673.5 c 128,-1,20
 277 721 277 721 277 764 c 0,21,22
 277 789 277 789 262.5 803.5 c 128,-1,23
 248 818 248 818 221 818 c 128,-1,24
 194 818 194 818 163 802 c 1,25,26
 154 779 154 779 153 774 c 2,27,-1
 150 746 l 1,28,-1
 107 744 l 1,29,-1
 116 845 l 1,0,1
EndSplineSet
EndChar

StartChar: three.sups
Encoding: 179 179 115
Width: 299
GlyphClass: 2
Flags: W
LayerCount: 2
Fore
SplineSet
209 854 m 0,0,1
 324 854 324 854 324 766 c 0,2,3
 324 691 324 691 240 653 c 1,4,5
 273 645 273 645 292.5 621 c 128,-1,6
 312 597 312 597 312 566 c 0,7,8
 312 499 312 499 235 448 c 128,-1,9
 158 397 158 397 44 386 c 1,10,-1
 38 425 l 1,11,12
 123 437 123 437 175.5 474.5 c 128,-1,13
 228 512 228 512 228 563 c 0,14,15
 228 619 228 619 168 619 c 1,16,-1
 129 617 l 1,17,-1
 126 656 l 1,18,19
 245 673 245 673 245 761 c 0,20,21
 245 809 245 809 199 809 c 0,22,23
 177 809 177 809 152 799 c 1,24,-1
 144 775 l 1,25,-1
 140 742 l 1,26,-1
 97 739 l 1,27,-1
 103 836 l 1,28,29
 159 854 159 854 209 854 c 0,0,1
EndSplineSet
EndChar

StartChar: acute
Encoding: 180 180 116
Width: 349
GlyphClass: 2
Flags: W
LayerCount: 2
Fore
SplineSet
297 755 m 1,0,-1
 342 695 l 1,1,2
 239 635 239 635 225 624 c 2,3,-1
 154 564 l 1,4,-1
 122 605 l 1,5,-1
 297 755 l 1,0,-1
EndSplineSet
EndChar

StartChar: mu
Encoding: 181 181 117
AltUni2: 0003bc.ffffffff.0
Width: 548
GlyphClass: 2
Flags: W
LayerCount: 2
Fore
SplineSet
166 -15 m 0,0,1
 153 -15 153 -15 144 -12 c 1,2,-1
 138 -60 l 2,3,4
 132 -114 132 -114 126 -210 c 1,5,-1
 115 -218 l 1,6,7
 83 -214 83 -214 58 -214 c 2,8,-1
 36 -214 l 1,9,-1
 27 -206 l 1,10,11
 62 -97 62 -97 66 -77 c 0,12,13
 153 348 153 348 153 423 c 1,14,-1
 59 426 l 1,15,-1
 57 460 l 1,16,-1
 233 505 l 1,17,-1
 255 491 l 1,18,19
 184 180 184 180 184 112 c 0,20,21
 184 59 184 59 218 59 c 0,22,23
 258 59 258 59 320 150 c 128,-1,24
 382 241 382 241 424 424 c 1,25,-1
 434 490 l 1,26,-1
 498 505 l 1,27,-1
 521 490 l 1,28,29
 486 354 486 354 471.5 269 c 128,-1,30
 457 184 457 184 447 68 c 1,31,-1
 528 65 l 1,32,-1
 525 29 l 1,33,-1
 371 -15 l 1,34,-1
 347 0 l 1,35,36
 367 82 367 82 385 179 c 1,37,38
 339 90 339 90 282 37.5 c 128,-1,39
 225 -15 225 -15 166 -15 c 0,0,1
EndSplineSet
EndChar

StartChar: paragraph
Encoding: 182 182 118
Width: 543
GlyphClass: 2
Flags: W
LayerCount: 2
Fore
SplineSet
301 715 m 0,0,1
 322 715 322 715 348 712 c 1,2,-1
 293 316 l 1,3,-1
 263 291 l 1,4,5
 172 291 172 291 112.5 337.5 c 128,-1,6
 53 384 53 384 53 470 c 0,7,8
 53 581 53 581 122.5 648 c 128,-1,9
 192 715 192 715 301 715 c 0,0,1
409 707 m 1,10,11
 425 705 425 705 448 705 c 0,12,13
 497 705 497 705 551 711 c 2,14,-1
 569 713 l 1,15,-1
 560 654 l 1,16,-1
 488 648 l 1,17,18
 470 615 470 615 420 249 c 0,19,20
 398 89 398 89 391 70 c 0,21,22
 378 33 378 33 270 -80 c 1,23,-1
 233 -118 l 1,24,-1
 205 -93 l 1,25,26
 310 79 310 79 313 100 c 2,27,-1
 397 698 l 1,28,-1
 409 707 l 1,10,11
EndSplineSet
EndChar

StartChar: periodcentered
Encoding: 183 183 119
Width: 202
GlyphClass: 2
Flags: W
LayerCount: 2
Fore
SplineSet
112 426 m 0,0,1
 163 426 163 426 163 371 c 0,2,3
 163 339 163 339 144 313 c 128,-1,4
 125 287 125 287 96 287 c 0,5,6
 46 287 46 287 46 341 c 0,7,8
 46 373 46 373 64.5 399.5 c 128,-1,9
 83 426 83 426 112 426 c 0,0,1
EndSplineSet
EndChar

StartChar: cedilla
Encoding: 184 184 120
Width: 349
GlyphClass: 2
Flags: W
LayerCount: 2
Fore
SplineSet
206 -80 m 128,-1,1
 230 -100 230 -100 230 -139.5 c 128,-1,2
 230 -179 230 -179 195.5 -207 c 128,-1,3
 161 -235 161 -235 114.5 -235 c 128,-1,4
 68 -235 68 -235 34 -217 c 1,5,-1
 51 -182 l 1,6,7
 86 -193 86 -193 109.5 -193 c 128,-1,8
 133 -193 133 -193 149.5 -178.5 c 128,-1,9
 166 -164 166 -164 166 -139 c 0,10,11
 166 -103 166 -103 127 -103 c 1,12,-1
 106 -104 l 1,13,-1
 96 -94 l 1,14,-1
 120 10 l 1,15,-1
 167 10 l 1,16,-1
 143 -59 l 1,17,0
 182 -60 182 -60 206 -80 c 128,-1,1
EndSplineSet
EndChar

StartChar: one.sups
Encoding: 185 185 121
Width: 256
GlyphClass: 2
Flags: W
LayerCount: 2
Fore
SplineSet
267 489 m 1,0,-1
 257 447 l 1,1,2
 217 450 217 450 156 450 c 1,3,-1
 79 447 l 1,4,-1
 81 485 l 1,5,-1
 136 493 l 1,6,7
 145 521 145 521 149 543 c 2,8,-1
 180 755 l 1,9,-1
 111 726 l 1,10,-1
 97 759 l 1,11,12
 177 815 177 815 190 825 c 1,13,-1
 225 860 l 1,14,-1
 273 853 l 1,15,16
 251 740 251 740 247 710 c 2,17,-1
 225 561 l 2,18,19
 220 533 220 533 220 493 c 1,20,-1
 267 489 l 1,0,-1
EndSplineSet
EndChar

StartChar: ordmasculine
Encoding: 186 186 122
Width: 305
GlyphClass: 2
Flags: W
LayerCount: 2
Fore
SplineSet
240 759 m 0,0,1
 287 759 287 759 311.5 731 c 128,-1,2
 336 703 336 703 336 650 c 0,3,4
 336 564 336 564 285 502.5 c 128,-1,5
 234 441 234 441 164 441 c 0,6,7
 118 441 118 441 93.5 469.5 c 128,-1,8
 69 498 69 498 69 551 c 0,9,10
 69 636 69 636 119.5 697.5 c 128,-1,11
 170 759 170 759 240 759 c 0,0,1
238.5 531.5 m 128,-1,13
 260 575 260 575 260 644 c 128,-1,14
 260 713 260 713 223.5 713 c 128,-1,15
 187 713 187 713 165.5 669 c 128,-1,16
 144 625 144 625 144 556.5 c 128,-1,17
 144 488 144 488 180.5 488 c 128,-1,12
 217 488 217 488 238.5 531.5 c 128,-1,13
EndSplineSet
EndChar

StartChar: guillemotright
Encoding: 187 187 123
Width: 416
GlyphClass: 2
Flags: W
LayerCount: 2
Fore
SplineSet
409 241 m 1,0,-1
 223 19 l 1,1,-1
 190 44 l 1,2,-1
 323 240 l 1,3,-1
 245 438 l 1,4,-1
 286 463 l 1,5,-1
 409 241 l 1,0,-1
246 241 m 1,6,-1
 64 23 l 1,7,-1
 32 48 l 1,8,-1
 162 240 l 1,9,-1
 86 434 l 1,10,-1
 125 459 l 1,11,-1
 246 241 l 1,6,-1
EndSplineSet
EndChar

StartChar: onequarter
Encoding: 188 188 124
Width: 684
GlyphClass: 2
Flags: W
LayerCount: 2
Fore
SplineSet
237 339 m 1,0,-1
 227 297 l 1,1,2
 187 300 187 300 126 300 c 1,3,-1
 49 297 l 1,4,-1
 51 335 l 1,5,-1
 106 343 l 1,6,7
 115 371 115 371 119 393 c 2,8,-1
 150 605 l 1,9,-1
 81 576 l 1,10,-1
 67 609 l 1,11,12
 147 665 147 665 160 675 c 1,13,-1
 195 710 l 1,14,-1
 243 703 l 1,15,16
 221 590 221 590 217 560 c 2,17,-1
 195 411 l 2,18,19
 190 383 190 383 190 343 c 1,20,-1
 237 339 l 1,0,-1
559 721 m 1,21,-1
 603 689 l 1,22,-1
 75 -49 l 1,23,-1
 31 -17 l 1,24,-1
 559 721 l 1,21,-1
582 451 m 1,25,-1
 629 408 l 1,26,27
 551 338 551 338 540 324 c 2,28,-1
 402 162 l 1,29,-1
 500 162 l 1,30,-1
 510 233 l 1,31,-1
 584 257 l 1,32,-1
 571 167 l 1,33,-1
 627 170 l 1,34,-1
 619 116 l 1,35,-1
 563 116 l 1,36,-1
 561 99 l 1,37,38
 557 74 557 74 557 43 c 1,39,-1
 600 39 l 1,40,-1
 591 -3 l 1,41,42
 549 0 549 0 489 0 c 1,43,-1
 414 -3 l 1,44,-1
 416 34 l 1,45,-1
 477 43 l 1,46,47
 487 74 487 74 489 92 c 2,48,-1
 493 116 l 1,49,-1
 356 116 l 1,50,-1
 325 162 l 1,51,-1
 582 451 l 1,25,-1
EndSplineSet
EndChar

StartChar: onehalf
Encoding: 189 189 125
Width: 703
GlyphClass: 2
Flags: W
LayerCount: 2
Fore
SplineSet
237 339 m 1,0,-1
 227 297 l 1,1,2
 187 300 187 300 126 300 c 1,3,-1
 49 297 l 1,4,-1
 51 335 l 1,5,-1
 106 343 l 1,6,7
 115 371 115 371 119 393 c 2,8,-1
 150 605 l 1,9,-1
 81 576 l 1,10,-1
 67 609 l 1,11,12
 147 665 147 665 160 675 c 1,13,-1
 195 710 l 1,14,-1
 243 703 l 1,15,16
 221 590 221 590 217 560 c 2,17,-1
 195 411 l 2,18,19
 190 383 190 383 190 343 c 1,20,-1
 237 339 l 1,0,-1
559 721 m 1,21,-1
 603 689 l 1,22,-1
 75 -49 l 1,23,-1
 31 -17 l 1,24,-1
 559 721 l 1,21,-1
409 395 m 1,25,26
 469 417 469 417 530 417 c 128,-1,27
 591 417 591 417 622 393.5 c 128,-1,28
 653 370 653 370 653 321 c 128,-1,29
 653 272 653 272 608.5 218.5 c 128,-1,30
 564 165 564 165 430 58 c 1,31,-1
 522 58 l 1,32,-1
 577 64 l 1,33,34
 593 89 593 89 594 94 c 2,35,-1
 601 120 l 1,36,-1
 643 117 l 1,37,-1
 622 11 l 1,38,-1
 604 -2 l 1,39,40
 547 0 547 0 534 0 c 2,41,-1
 348 0 l 1,42,-1
 348 55 l 1,43,44
 488 174 488 174 529 222.5 c 128,-1,45
 570 271 570 271 570 314 c 0,46,47
 570 339 570 339 555.5 353.5 c 128,-1,48
 541 368 541 368 514 368 c 128,-1,49
 487 368 487 368 456 352 c 1,50,51
 447 329 447 329 446 324 c 2,52,-1
 443 296 l 1,53,-1
 400 294 l 1,54,-1
 409 395 l 1,25,26
EndSplineSet
EndChar

StartChar: threequarters
Encoding: 190 190 126
Width: 717
GlyphClass: 2
Flags: W
LayerCount: 2
Fore
SplineSet
179 704 m 0,0,1
 294 704 294 704 294 616 c 0,2,3
 294 541 294 541 210 503 c 1,4,5
 243 495 243 495 262.5 471 c 128,-1,6
 282 447 282 447 282 416 c 0,7,8
 282 349 282 349 205 298 c 128,-1,9
 128 247 128 247 14 236 c 1,10,-1
 8 275 l 1,11,12
 93 287 93 287 145.5 324.5 c 128,-1,13
 198 362 198 362 198 413 c 0,14,15
 198 469 198 469 138 469 c 1,16,-1
 99 467 l 1,17,-1
 96 506 l 1,18,19
 215 523 215 523 215 611 c 0,20,21
 215 659 215 659 169 659 c 0,22,23
 147 659 147 659 122 649 c 1,24,-1
 114 625 l 1,25,-1
 110 592 l 1,26,-1
 67 589 l 1,27,-1
 73 686 l 1,28,29
 128 704 128 704 179 704 c 0,0,1
592 721 m 1,30,-1
 636 689 l 1,31,-1
 108 -49 l 1,32,-1
 64 -17 l 1,33,-1
 592 721 l 1,30,-1
615 451 m 1,34,-1
 662 408 l 1,35,36
 584 338 584 338 573 324 c 2,37,-1
 435 162 l 1,38,-1
 533 162 l 1,39,-1
 543 233 l 1,40,-1
 617 257 l 1,41,-1
 604 167 l 1,42,-1
 660 170 l 1,43,-1
 652 116 l 1,44,-1
 596 116 l 1,45,-1
 594 99 l 1,46,47
 590 74 590 74 590 43 c 1,48,-1
 633 39 l 1,49,-1
 624 -3 l 1,50,51
 582 0 582 0 522 0 c 1,52,-1
 447 -3 l 1,53,-1
 449 34 l 1,54,-1
 510 43 l 1,55,56
 520 74 520 74 522 92 c 2,57,-1
 526 116 l 1,58,-1
 389 116 l 1,59,-1
 358 162 l 1,60,-1
 615 451 l 1,34,-1
EndSplineSet
EndChar

StartChar: questiondown
Encoding: 191 191 127
Width: 403
GlyphClass: 2
Flags: W
LayerCount: 2
Fore
SplineSet
222 128 m 0,0,1
 153 128 153 128 111.5 76.5 c 128,-1,2
 70 25 70 25 69 -55 c 1,3,4
 70 -114 70 -114 94 -149 c 128,-1,5
 118 -184 118 -184 163.5 -184 c 128,-1,6
 209 -184 209 -184 236 -168 c 1,7,-1
 283 -56 l 1,8,-1
 318 -64 l 1,9,-1
 314 -175 l 1,10,-1
 297 -201 l 1,11,12
 217 -234 217 -234 159 -234 c 0,13,14
 74 -234 74 -234 27 -188.5 c 128,-1,15
 -20 -143 -20 -143 -20 -60 c 0,16,17
 -20 48 -20 48 50 115 c 128,-1,18
 120 182 120 182 227 182 c 0,19,20
 230 182 230 182 233 182 c 1,21,-1
 241 268 l 1,22,-1
 253 278 l 1,23,-1
 317 266 l 1,24,-1
 303 141 l 1,25,-1
 271 124 l 1,26,27
 241 128 241 128 222 128 c 0,0,1
308 503 m 0,28,29
 354 503 354 503 354 453 c 0,30,31
 354 423 354 423 336 398.5 c 128,-1,32
 318 374 318 374 291 374 c 0,33,34
 246 374 246 374 246 423 c 0,35,36
 246 453 246 453 263.5 478 c 128,-1,37
 281 503 281 503 308 503 c 0,28,29
EndSplineSet
EndChar

StartChar: Agrave
Encoding: 192 192 128
Width: 644
GlyphClass: 2
Flags: W
LayerCount: 2
Fore
SplineSet
612 54 m 1,0,-1
 600 0 l 1,1,-1
 502 0 l 1,2,-1
 360 -5 l 1,3,-1
 364 44 l 1,4,-1
 437 64 l 1,5,-1
 427 172 l 1,6,-1
 416 232 l 1,7,-1
 204 232 l 1,8,-1
 158 127 l 1,9,-1
 139 64 l 1,10,-1
 205 54 l 1,11,-1
 193 0 l 1,12,-1
 108 0 l 1,13,-1
 -23 -5 l 1,14,-1
 -20 44 l 1,15,-1
 43 61 l 1,16,-1
 99 160 l 1,17,-1
 349 705 l 1,18,-1
 409 715 l 1,19,-1
 529 149 l 1,20,-1
 554 64 l 1,21,-1
 612 54 l 1,0,-1
354 557 m 1,22,-1
 229 282 l 1,23,-1
 404 286 l 1,24,-1
 354 557 l 1,22,-1
247 825 m 1,25,-1
 277 898 l 1,26,-1
 499 798 l 1,27,-1
 479 750 l 1,28,-1
 394 787 l 1,29,-1
 247 825 l 1,25,-1
EndSplineSet
EndChar

StartChar: Aacute
Encoding: 193 193 129
Width: 644
GlyphClass: 2
Flags: W
LayerCount: 2
Fore
SplineSet
612 54 m 1,0,-1
 600 0 l 1,1,-1
 502 0 l 1,2,-1
 360 -5 l 1,3,-1
 364 44 l 1,4,-1
 437 64 l 1,5,-1
 427 172 l 1,6,-1
 416 232 l 1,7,-1
 204 232 l 1,8,-1
 158 127 l 1,9,-1
 139 64 l 1,10,-1
 205 54 l 1,11,-1
 193 0 l 1,12,-1
 108 0 l 1,13,-1
 -23 -5 l 1,14,-1
 -20 44 l 1,15,-1
 43 61 l 1,16,-1
 99 160 l 1,17,-1
 349 705 l 1,18,-1
 409 715 l 1,19,-1
 529 149 l 1,20,-1
 554 64 l 1,21,-1
 612 54 l 1,0,-1
354 557 m 1,22,-1
 229 282 l 1,23,-1
 404 286 l 1,24,-1
 354 557 l 1,22,-1
508 898 m 1,25,-1
 537 825 l 1,26,27
 409 793 409 793 390 787 c 1,28,-1
 305 750 l 1,29,-1
 285 798 l 1,30,-1
 508 898 l 1,25,-1
EndSplineSet
EndChar

StartChar: Acircumflex
Encoding: 194 194 130
Width: 644
GlyphClass: 2
Flags: W
LayerCount: 2
Fore
SplineSet
612 54 m 1,0,-1
 600 0 l 1,1,-1
 502 0 l 1,2,-1
 360 -5 l 1,3,-1
 364 44 l 1,4,-1
 437 64 l 1,5,-1
 427 172 l 1,6,-1
 416 232 l 1,7,-1
 204 232 l 1,8,-1
 158 127 l 1,9,-1
 139 64 l 1,10,-1
 205 54 l 1,11,-1
 193 0 l 1,12,-1
 108 0 l 1,13,-1
 -23 -5 l 1,14,-1
 -20 44 l 1,15,-1
 43 61 l 1,16,-1
 99 160 l 1,17,-1
 349 705 l 1,18,-1
 409 715 l 1,19,-1
 529 149 l 1,20,-1
 554 64 l 1,21,-1
 612 54 l 1,0,-1
354 557 m 1,22,-1
 229 282 l 1,23,-1
 404 286 l 1,24,-1
 354 557 l 1,22,-1
405 893 m 1,25,-1
 558 786 l 1,26,-1
 530 747 l 1,27,-1
 451 788 l 1,28,-1
 394 813 l 1,29,30
 385 810 385 810 370 804 c 128,-1,31
 355 798 355 798 344 794 c 128,-1,32
 333 790 333 790 328 788 c 2,33,-1
 237 747 l 1,34,-1
 221 786 l 1,35,-1
 405 893 l 1,25,-1
EndSplineSet
EndChar

StartChar: Atilde
Encoding: 195 195 131
Width: 644
GlyphClass: 2
Flags: W
LayerCount: 2
Fore
SplineSet
612 54 m 1,0,-1
 600 0 l 1,1,-1
 502 0 l 1,2,-1
 360 -5 l 1,3,-1
 364 44 l 1,4,-1
 437 64 l 1,5,-1
 427 172 l 1,6,-1
 416 232 l 1,7,-1
 204 232 l 1,8,-1
 158 127 l 1,9,-1
 139 64 l 1,10,-1
 205 54 l 1,11,-1
 193 0 l 1,12,-1
 108 0 l 1,13,-1
 -23 -5 l 1,14,-1
 -20 44 l 1,15,-1
 43 61 l 1,16,-1
 99 160 l 1,17,-1
 349 705 l 1,18,-1
 409 715 l 1,19,-1
 529 149 l 1,20,-1
 554 64 l 1,21,-1
 612 54 l 1,0,-1
354 557 m 1,22,-1
 229 282 l 1,23,-1
 404 286 l 1,24,-1
 354 557 l 1,22,-1
468.5 763 m 128,-1,26
 450 763 450 763 393 783.5 c 128,-1,27
 336 804 336 804 320 804 c 0,28,29
 294 804 294 804 267 771 c 2,30,-1
 258 760 l 1,31,-1
 226 781 l 1,32,33
 238 805 238 805 260 829 c 0,34,35
 299 872 299 872 319.5 872 c 128,-1,36
 340 872 340 872 397 851.5 c 128,-1,37
 454 831 454 831 470 831 c 0,38,39
 498 831 498 831 524 869 c 2,40,-1
 533 882 l 1,41,-1
 565 861 l 1,42,43
 545 825 545 825 516 794 c 128,-1,25
 487 763 487 763 468.5 763 c 128,-1,26
EndSplineSet
EndChar

StartChar: Adieresis
Encoding: 196 196 132
Width: 644
GlyphClass: 2
Flags: W
LayerCount: 2
Fore
SplineSet
612 54 m 1,0,-1
 600 0 l 1,1,-1
 502 0 l 1,2,-1
 360 -5 l 1,3,-1
 364 44 l 1,4,-1
 437 64 l 1,5,-1
 427 172 l 1,6,-1
 416 232 l 1,7,-1
 204 232 l 1,8,-1
 158 127 l 1,9,-1
 139 64 l 1,10,-1
 205 54 l 1,11,-1
 193 0 l 1,12,-1
 108 0 l 1,13,-1
 -23 -5 l 1,14,-1
 -20 44 l 1,15,-1
 43 61 l 1,16,-1
 99 160 l 1,17,-1
 349 705 l 1,18,-1
 409 715 l 1,19,-1
 529 149 l 1,20,-1
 554 64 l 1,21,-1
 612 54 l 1,0,-1
354 557 m 1,22,-1
 229 282 l 1,23,-1
 404 286 l 1,24,-1
 354 557 l 1,22,-1
518 884 m 0,25,26
 563 884 563 884 563 836 c 0,27,28
 563 804 563 804 547 784.5 c 128,-1,29
 531 765 531 765 501 765 c 0,30,31
 456 765 456 765 456 812 c 0,32,33
 456 844 456 844 472 864 c 128,-1,34
 488 884 488 884 518 884 c 0,25,26
289 884 m 0,35,36
 335 884 335 884 335 836 c 0,37,38
 335 804 335 804 318.5 784.5 c 128,-1,39
 302 765 302 765 272 765 c 0,40,41
 227 765 227 765 227 812 c 0,42,43
 227 844 227 844 243 864 c 128,-1,44
 259 884 259 884 289 884 c 0,35,36
EndSplineSet
EndChar

StartChar: Aring
Encoding: 197 197 133
Width: 644
GlyphClass: 2
Flags: W
LayerCount: 2
Fore
SplineSet
612 54 m 1,0,-1
 600 0 l 1,1,-1
 502 0 l 1,2,-1
 360 -5 l 1,3,-1
 364 44 l 1,4,-1
 437 64 l 1,5,-1
 427 172 l 1,6,-1
 416 232 l 1,7,-1
 204 232 l 1,8,-1
 158 127 l 1,9,-1
 139 64 l 1,10,-1
 205 54 l 1,11,-1
 193 0 l 1,12,-1
 108 0 l 1,13,-1
 -23 -5 l 1,14,-1
 -20 44 l 1,15,-1
 43 61 l 1,16,-1
 99 160 l 1,17,-1
 349 705 l 1,18,-1
 409 715 l 1,19,-1
 529 149 l 1,20,-1
 554 64 l 1,21,-1
 612 54 l 1,0,-1
330.5 888.5 m 128,-1,23
 357 916 357 916 400 916 c 0,24,25
 480 916 480 916 480 845 c 0,26,27
 480 800 480 800 454.5 772.5 c 128,-1,28
 429 745 429 745 386 745 c 0,29,30
 304 745 304 745 304 816 c 0,31,22
 304 861 304 861 330.5 888.5 c 128,-1,23
354 557 m 1,32,-1
 229 282 l 1,33,-1
 404 286 l 1,34,-1
 354 557 l 1,32,-1
400 878 m 0,35,36
 376 878 376 878 364 861 c 128,-1,37
 352 844 352 844 352 821 c 0,38,39
 352 783 352 783 386 783 c 0,40,41
 411 783 411 783 422.5 800 c 128,-1,42
 434 817 434 817 434 840 c 0,43,44
 434 878 434 878 400 878 c 0,35,36
EndSplineSet
EndChar

StartChar: AE
Encoding: 198 198 134
Width: 880
GlyphClass: 2
Flags: W
LayerCount: 2
Fore
SplineSet
732 648 m 2,0,-1
 557 648 l 1,1,2
 553 599 553 599 551 541 c 1,3,-1
 552 386 l 1,4,5
 606 382 606 382 625 382 c 2,6,-1
 672 382 l 1,7,-1
 731 391 l 1,8,-1
 750 457 l 1,9,-1
 793 452 l 1,10,-1
 781 372 l 1,11,-1
 767 263 l 1,12,-1
 720 257 l 1,13,-1
 721 324 l 1,14,15
 664 330 664 330 645 330 c 2,16,-1
 617 330 l 2,17,18
 604 330 604 330 552 326 c 1,19,-1
 553 174 l 1,20,-1
 560 57 l 1,21,-1
 678 57 l 2,22,23
 713 57 713 57 765 66 c 1,24,25
 785 92 785 92 790 103 c 0,26,27
 809 149 809 149 815 170 c 1,28,-1
 867 165 l 1,29,-1
 830 14 l 1,30,-1
 809 -4 l 1,31,32
 719 0 719 0 699 0 c 2,33,-1
 488 0 l 1,34,-1
 372 -5 l 1,35,-1
 376 45 l 1,36,-1
 457 61 l 1,37,38
 462 93 462 93 462 130 c 2,39,-1
 462 248 l 1,40,-1
 254 248 l 1,41,-1
 166 102 l 2,42,43
 163 97 163 97 157.5 82 c 128,-1,44
 152 67 152 67 149 61 c 1,45,-1
 227 54 l 1,46,-1
 211 -5 l 1,47,48
 163 0 163 0 85 0 c 1,49,-1
 -6 -5 l 1,50,-1
 -3 45 l 1,51,-1
 57 61 l 1,52,53
 114 126 114 126 130 153 c 2,54,-1
 429 644 l 1,55,-1
 355 656 l 1,56,-1
 368 710 l 1,57,58
 460 705 460 705 479 705 c 2,59,-1
 769 705 l 1,60,-1
 881 715 l 1,61,-1
 897 697 l 1,62,-1
 884 561 l 1,63,-1
 827 556 l 1,64,65
 827 588 827 588 825.5 604 c 128,-1,66
 824 620 824 620 810 643 c 1,67,68
 757 648 757 648 732 648 c 2,0,-1
286 299 m 1,69,-1
 462 302 l 1,70,-1
 461 556 l 1,71,-1
 458 584 l 1,72,-1
 286 299 l 1,69,-1
EndSplineSet
EndChar

StartChar: Ccedilla
Encoding: 199 199 135
Width: 593
GlyphClass: 2
Flags: W
LayerCount: 2
Fore
SplineSet
379 -80 m 128,-1,1
 403 -100 403 -100 403 -139.5 c 128,-1,2
 403 -179 403 -179 368.5 -207 c 128,-1,3
 334 -235 334 -235 287.5 -235 c 128,-1,4
 241 -235 241 -235 207 -217 c 1,5,-1
 224 -182 l 1,6,7
 259 -193 259 -193 282.5 -193 c 128,-1,8
 306 -193 306 -193 322.5 -178.5 c 128,-1,9
 339 -164 339 -164 339 -139 c 0,10,11
 339 -103 339 -103 300 -103 c 1,12,-1
 279 -104 l 1,13,-1
 269 -94 l 1,14,-1
 287 -13 l 1,15,16
 173 -3 173 -3 111 76 c 128,-1,17
 49 155 49 155 49 281 c 0,18,19
 49 474 49 474 146.5 597 c 128,-1,20
 244 720 244 720 418 720 c 0,21,22
 494 720 494 720 592 692 c 0,23,24
 610 687 610 687 614 686 c 1,25,-1
 583 538 l 1,26,-1
 525 542 l 1,27,-1
 532 589 l 2,28,29
 532 591 532 591 532 599.5 c 128,-1,30
 532 608 532 608 528 639 c 1,31,32
 464 662 464 662 410 662 c 0,33,34
 330 662 330 662 270 607.5 c 128,-1,35
 210 553 210 553 181 468.5 c 128,-1,36
 152 384 152 384 152 280.5 c 128,-1,37
 152 177 152 177 198.5 110 c 128,-1,38
 245 43 245 43 328 43 c 0,39,40
 380 43 380 43 453 65 c 1,41,42
 473 111 473 111 475 121 c 2,43,-1
 484 168 l 1,44,-1
 542 170 l 1,45,-1
 526 19 l 1,46,47
 404 -13 404 -13 331 -15 c 1,48,-1
 316 -59 l 1,49,0
 355 -60 355 -60 379 -80 c 128,-1,1
EndSplineSet
EndChar

StartChar: Egrave
Encoding: 200 200 136
Width: 572
GlyphClass: 2
Flags: W
LayerCount: 2
Fore
SplineSet
226 705 m 2,0,-1
 445 705 l 1,1,-1
 557 715 l 1,2,-1
 573 697 l 1,3,-1
 560 561 l 1,4,-1
 503 556 l 1,5,6
 503 588 503 588 501.5 604.5 c 128,-1,7
 500 621 500 621 486 644 c 1,8,9
 434 649 434 649 408 649 c 2,10,-1
 282 649 l 1,11,12
 265 579 265 579 259 538 c 2,13,-1
 238 396 l 1,14,15
 270 394 270 394 279 394 c 2,16,-1
 349 394 l 1,17,-1
 408 403 l 1,18,-1
 426 469 l 1,19,-1
 471 464 l 1,20,21
 461 400 461 400 458 380 c 2,22,-1
 445 271 l 1,23,-1
 397 265 l 1,24,-1
 398 332 l 1,25,26
 341 338 341 338 322 338 c 2,27,-1
 271 338 l 2,28,29
 254 338 254 338 229 335 c 1,30,-1
 205 167 l 2,31,32
 196 107 196 107 196 57 c 1,33,-1
 334 57 l 2,34,35
 370 57 370 57 420 66 c 1,36,37
 442 94 442 94 445 103 c 0,38,39
 464 149 464 149 470 170 c 1,40,-1
 523 165 l 1,41,-1
 486 14 l 1,42,-1
 465 -4 l 1,43,44
 375 0 375 0 355 0 c 2,45,-1
 123 0 l 1,46,-1
 9 -5 l 1,47,-1
 11 45 l 1,48,-1
 90 61 l 1,49,50
 105 111 105 111 110 137 c 1,51,-1
 173 568 l 2,52,53
 175 585 175 585 175 644 c 1,54,-1
 102 656 l 1,55,-1
 115 710 l 1,56,57
 206 705 206 705 226 705 c 2,0,-1
220 825 m 1,58,-1
 250 898 l 1,59,-1
 472 798 l 1,60,-1
 452 750 l 1,61,-1
 367 787 l 1,62,-1
 220 825 l 1,58,-1
EndSplineSet
EndChar

StartChar: Eacute
Encoding: 201 201 137
Width: 572
GlyphClass: 2
Flags: W
LayerCount: 2
Fore
SplineSet
226 705 m 2,0,-1
 445 705 l 1,1,-1
 557 715 l 1,2,-1
 573 697 l 1,3,-1
 560 561 l 1,4,-1
 503 556 l 1,5,6
 503 588 503 588 501.5 604.5 c 128,-1,7
 500 621 500 621 486 644 c 1,8,9
 434 649 434 649 408 649 c 2,10,-1
 282 649 l 1,11,12
 265 579 265 579 259 538 c 2,13,-1
 238 396 l 1,14,15
 270 394 270 394 279 394 c 2,16,-1
 349 394 l 1,17,-1
 408 403 l 1,18,-1
 426 469 l 1,19,-1
 471 464 l 1,20,21
 461 400 461 400 458 380 c 2,22,-1
 445 271 l 1,23,-1
 397 265 l 1,24,-1
 398 332 l 1,25,26
 341 338 341 338 322 338 c 2,27,-1
 271 338 l 2,28,29
 254 338 254 338 229 335 c 1,30,-1
 205 167 l 2,31,32
 196 107 196 107 196 57 c 1,33,-1
 334 57 l 2,34,35
 370 57 370 57 420 66 c 1,36,37
 442 94 442 94 445 103 c 0,38,39
 464 149 464 149 470 170 c 1,40,-1
 523 165 l 1,41,-1
 486 14 l 1,42,-1
 465 -4 l 1,43,44
 375 0 375 0 355 0 c 2,45,-1
 123 0 l 1,46,-1
 9 -5 l 1,47,-1
 11 45 l 1,48,-1
 90 61 l 1,49,50
 105 111 105 111 110 137 c 1,51,-1
 173 568 l 2,52,53
 175 585 175 585 175 644 c 1,54,-1
 102 656 l 1,55,-1
 115 710 l 1,56,57
 206 705 206 705 226 705 c 2,0,-1
481 898 m 1,58,-1
 510 825 l 1,59,60
 382 793 382 793 363 787 c 1,61,-1
 278 750 l 1,62,-1
 258 798 l 1,63,-1
 481 898 l 1,58,-1
EndSplineSet
EndChar

StartChar: Ecircumflex
Encoding: 202 202 138
Width: 572
GlyphClass: 2
Flags: W
LayerCount: 2
Fore
SplineSet
226 705 m 2,0,-1
 445 705 l 1,1,-1
 557 715 l 1,2,-1
 573 697 l 1,3,-1
 560 561 l 1,4,-1
 503 556 l 1,5,6
 503 588 503 588 501.5 604.5 c 128,-1,7
 500 621 500 621 486 644 c 1,8,9
 434 649 434 649 408 649 c 2,10,-1
 282 649 l 1,11,12
 265 579 265 579 259 538 c 2,13,-1
 238 396 l 1,14,15
 270 394 270 394 279 394 c 2,16,-1
 349 394 l 1,17,-1
 408 403 l 1,18,-1
 426 469 l 1,19,-1
 471 464 l 1,20,21
 461 400 461 400 458 380 c 2,22,-1
 445 271 l 1,23,-1
 397 265 l 1,24,-1
 398 332 l 1,25,26
 341 338 341 338 322 338 c 2,27,-1
 271 338 l 2,28,29
 254 338 254 338 229 335 c 1,30,-1
 205 167 l 2,31,32
 196 107 196 107 196 57 c 1,33,-1
 334 57 l 2,34,35
 370 57 370 57 420 66 c 1,36,37
 442 94 442 94 445 103 c 0,38,39
 464 149 464 149 470 170 c 1,40,-1
 523 165 l 1,41,-1
 486 14 l 1,42,-1
 465 -4 l 1,43,44
 375 0 375 0 355 0 c 2,45,-1
 123 0 l 1,46,-1
 9 -5 l 1,47,-1
 11 45 l 1,48,-1
 90 61 l 1,49,50
 105 111 105 111 110 137 c 1,51,-1
 173 568 l 2,52,53
 175 585 175 585 175 644 c 1,54,-1
 102 656 l 1,55,-1
 115 710 l 1,56,57
 206 705 206 705 226 705 c 2,0,-1
379 893 m 1,58,-1
 532 786 l 1,59,-1
 504 747 l 1,60,-1
 425 788 l 1,61,-1
 368 813 l 1,62,63
 359 810 359 810 344 804 c 128,-1,64
 329 798 329 798 318 794 c 128,-1,65
 307 790 307 790 302 788 c 2,66,-1
 211 747 l 1,67,-1
 195 786 l 1,68,-1
 379 893 l 1,58,-1
EndSplineSet
EndChar

StartChar: Edieresis
Encoding: 203 203 139
Width: 572
GlyphClass: 2
Flags: W
LayerCount: 2
Fore
SplineSet
226 705 m 2,0,-1
 445 705 l 1,1,-1
 557 715 l 1,2,-1
 573 697 l 1,3,-1
 560 561 l 1,4,-1
 503 556 l 1,5,6
 503 588 503 588 501.5 604.5 c 128,-1,7
 500 621 500 621 486 644 c 1,8,9
 434 649 434 649 408 649 c 2,10,-1
 282 649 l 1,11,12
 265 579 265 579 259 538 c 2,13,-1
 238 396 l 1,14,15
 270 394 270 394 279 394 c 2,16,-1
 349 394 l 1,17,-1
 408 403 l 1,18,-1
 426 469 l 1,19,-1
 471 464 l 1,20,21
 461 400 461 400 458 380 c 2,22,-1
 445 271 l 1,23,-1
 397 265 l 1,24,-1
 398 332 l 1,25,26
 341 338 341 338 322 338 c 2,27,-1
 271 338 l 2,28,29
 254 338 254 338 229 335 c 1,30,-1
 205 167 l 2,31,32
 196 107 196 107 196 57 c 1,33,-1
 334 57 l 2,34,35
 370 57 370 57 420 66 c 1,36,37
 442 94 442 94 445 103 c 0,38,39
 464 149 464 149 470 170 c 1,40,-1
 523 165 l 1,41,-1
 486 14 l 1,42,-1
 465 -4 l 1,43,44
 375 0 375 0 355 0 c 2,45,-1
 123 0 l 1,46,-1
 9 -5 l 1,47,-1
 11 45 l 1,48,-1
 90 61 l 1,49,50
 105 111 105 111 110 137 c 1,51,-1
 173 568 l 2,52,53
 175 585 175 585 175 644 c 1,54,-1
 102 656 l 1,55,-1
 115 710 l 1,56,57
 206 705 206 705 226 705 c 2,0,-1
492 884 m 0,58,59
 537 884 537 884 537 836 c 0,60,61
 537 804 537 804 521 784.5 c 128,-1,62
 505 765 505 765 475 765 c 0,63,64
 430 765 430 765 430 812 c 0,65,66
 430 844 430 844 446 864 c 128,-1,67
 462 884 462 884 492 884 c 0,58,59
263 884 m 0,68,69
 309 884 309 884 309 836 c 0,70,71
 309 804 309 804 292.5 784.5 c 128,-1,72
 276 765 276 765 246 765 c 0,73,74
 201 765 201 765 201 812 c 0,75,76
 201 844 201 844 217 864 c 128,-1,77
 233 884 233 884 263 884 c 0,68,69
EndSplineSet
EndChar

StartChar: Igrave
Encoding: 204 204 140
Width: 354
GlyphClass: 2
Flags: W
LayerCount: 2
Fore
SplineSet
368 710 m 1,0,-1
 363 651 l 1,1,-1
 287 644 l 1,2,3
 273 596 273 596 265 538 c 2,4,-1
 211 167 l 2,5,6
 202 104 202 104 202 61 c 1,7,-1
 287 54 l 1,8,-1
 272 -5 l 1,9,10
 208 0 208 0 129 0 c 1,11,-1
 15 -5 l 1,12,-1
 17 45 l 1,13,-1
 96 61 l 1,14,15
 97 65 97 65 102 82 c 0,16,17
 113 124 113 124 115 137 c 2,18,-1
 178 568 l 2,19,20
 181 585 181 585 181 644 c 1,21,-1
 108 656 l 1,22,-1
 121 710 l 1,23,24
 212 705 212 705 232 705 c 2,25,-1
 368 710 l 1,0,-1
102 825 m 1,26,-1
 132 898 l 1,27,-1
 354 798 l 1,28,-1
 334 750 l 1,29,-1
 249 787 l 1,30,-1
 102 825 l 1,26,-1
EndSplineSet
EndChar

StartChar: Iacute
Encoding: 205 205 141
Width: 354
GlyphClass: 2
Flags: W
LayerCount: 2
Fore
SplineSet
368 710 m 1,0,-1
 363 651 l 1,1,-1
 287 644 l 1,2,3
 273 596 273 596 265 538 c 2,4,-1
 211 167 l 2,5,6
 202 104 202 104 202 61 c 1,7,-1
 287 54 l 1,8,-1
 272 -5 l 1,9,10
 208 0 208 0 129 0 c 1,11,-1
 15 -5 l 1,12,-1
 17 45 l 1,13,-1
 96 61 l 1,14,15
 97 65 97 65 102 82 c 0,16,17
 113 124 113 124 115 137 c 2,18,-1
 178 568 l 2,19,20
 181 585 181 585 181 644 c 1,21,-1
 108 656 l 1,22,-1
 121 710 l 1,23,24
 212 705 212 705 232 705 c 2,25,-1
 368 710 l 1,0,-1
362 898 m 1,26,-1
 391 825 l 1,27,28
 263 793 263 793 244 787 c 1,29,-1
 159 750 l 1,30,-1
 139 798 l 1,31,-1
 362 898 l 1,26,-1
EndSplineSet
EndChar

StartChar: Icircumflex
Encoding: 206 206 142
Width: 354
GlyphClass: 2
Flags: W
LayerCount: 2
Fore
SplineSet
368 710 m 1,0,-1
 363 651 l 1,1,-1
 287 644 l 1,2,3
 273 596 273 596 265 538 c 2,4,-1
 211 167 l 2,5,6
 202 104 202 104 202 61 c 1,7,-1
 287 54 l 1,8,-1
 272 -5 l 1,9,10
 208 0 208 0 129 0 c 1,11,-1
 15 -5 l 1,12,-1
 17 45 l 1,13,-1
 96 61 l 1,14,15
 97 65 97 65 102 82 c 0,16,17
 113 124 113 124 115 137 c 2,18,-1
 178 568 l 2,19,20
 181 585 181 585 181 644 c 1,21,-1
 108 656 l 1,22,-1
 121 710 l 1,23,24
 212 705 212 705 232 705 c 2,25,-1
 368 710 l 1,0,-1
260 893 m 1,26,-1
 413 786 l 1,27,-1
 385 747 l 1,28,-1
 306 788 l 1,29,-1
 249 813 l 1,30,31
 240 810 240 810 225 804 c 128,-1,32
 210 798 210 798 199 794 c 128,-1,33
 188 790 188 790 183 788 c 2,34,-1
 92 747 l 1,35,-1
 76 786 l 1,36,-1
 260 893 l 1,26,-1
EndSplineSet
EndChar

StartChar: Idieresis
Encoding: 207 207 143
Width: 354
GlyphClass: 2
Flags: W
LayerCount: 2
Fore
SplineSet
366 884 m 0,0,1
 410 884 410 884 410 836 c 0,2,3
 410 804 410 804 394.5 784.5 c 128,-1,4
 379 765 379 765 349 765 c 0,5,6
 304 765 304 765 304 812 c 0,7,8
 304 844 304 844 320 864 c 128,-1,9
 336 884 336 884 366 884 c 0,0,1
195 884 m 0,10,11
 240 884 240 884 240 836 c 0,12,13
 240 804 240 804 223.5 784.5 c 128,-1,14
 207 765 207 765 178 765 c 0,15,16
 133 765 133 765 133 812 c 0,17,18
 133 844 133 844 149 864 c 128,-1,19
 165 884 165 884 195 884 c 0,10,11
368 710 m 1,20,-1
 363 651 l 1,21,-1
 287 644 l 1,22,23
 273 596 273 596 265 538 c 2,24,-1
 211 167 l 2,25,26
 202 104 202 104 202 61 c 1,27,-1
 287 54 l 1,28,-1
 272 -5 l 1,29,30
 208 0 208 0 129 0 c 1,31,-1
 15 -5 l 1,32,-1
 17 45 l 1,33,-1
 96 61 l 1,34,35
 97 65 97 65 102 82 c 0,36,37
 113 124 113 124 115 137 c 2,38,-1
 178 568 l 2,39,40
 181 585 181 585 181 644 c 1,41,-1
 108 656 l 1,42,-1
 121 710 l 1,43,44
 212 705 212 705 232 705 c 2,45,-1
 368 710 l 1,20,-1
EndSplineSet
EndChar

StartChar: Eth
Encoding: 208 208 144
Width: 700
GlyphClass: 2
Flags: W
LayerCount: 2
Fore
SplineSet
288 -6 m 1,0,-1
 125 0 l 1,1,-1
 10 -5 l 1,2,-1
 13 45 l 1,3,-1
 91 61 l 1,4,5
 109 119 109 119 111 137 c 2,6,-1
 140 337 l 1,7,-1
 55 337 l 1,8,-1
 61 380 l 1,9,-1
 146 380 l 1,10,-1
 174 568 l 2,11,12
 176 585 176 585 176 644 c 1,13,-1
 104 656 l 1,14,-1
 117 710 l 1,15,16
 178 707 178 707 211 705 c 1,17,18
 236 706 236 706 296.5 710.5 c 128,-1,19
 357 715 357 715 393 715 c 0,20,21
 533 715 533 715 607 636 c 128,-1,22
 681 557 681 557 681 417 c 0,23,24
 681 230 681 230 572.5 112 c 128,-1,25
 464 -6 464 -6 288 -6 c 1,0,-1
298 53 m 0,26,27
 433 53 433 53 509 157.5 c 128,-1,28
 585 262 585 262 585 411 c 0,29,30
 585 519 585 519 535 587 c 128,-1,31
 485 655 485 655 386 655 c 0,32,33
 321 655 321 655 281 650 c 1,34,35
 264 586 264 586 257 538 c 2,36,-1
 234 380 l 1,37,-1
 373 380 l 1,38,-1
 362 337 l 1,39,-1
 228 337 l 1,40,-1
 203 167 l 2,41,42
 194 105 194 105 194 57 c 1,43,44
 244 53 244 53 298 53 c 0,26,27
EndSplineSet
EndChar

StartChar: Ntilde
Encoding: 209 209 145
Width: 738
GlyphClass: 2
Flags: W
LayerCount: 2
Fore
SplineSet
788 710 m 1,0,-1
 785 657 l 1,1,-1
 707 641 l 1,2,3
 683 577 683 577 676 528 c 2,4,-1
 597 -7 l 1,5,-1
 535 -7 l 1,6,-1
 238 556 l 1,7,-1
 182 167 l 1,8,9
 173 113 173 113 173 61 c 1,10,-1
 250 54 l 1,11,-1
 234 -5 l 1,12,13
 193 0 193 0 114 0 c 1,14,-1
 9 -5 l 1,15,-1
 11 45 l 1,16,-1
 90 61 l 1,17,18
 105 111 105 111 110 137 c 1,19,-1
 173 568 l 2,20,21
 175 584 175 584 175 644 c 1,22,-1
 100 656 l 1,23,-1
 112 710 l 1,24,25
 203 705 203 705 224 705 c 2,26,-1
 269 706 l 1,27,-1
 285 685 l 1,28,29
 345 552 345 552 356 530 c 2,30,-1
 555 163 l 1,31,-1
 613 558 l 2,32,33
 616 582 616 582 616 641 c 1,34,-1
 541 647 l 1,35,-1
 555 707 l 1,36,-1
 635 705 l 1,37,-1
 788 710 l 1,0,-1
506.5 763 m 128,-1,39
 488 763 488 763 431 783.5 c 128,-1,40
 374 804 374 804 358 804 c 0,41,42
 332 804 332 804 305 771 c 2,43,-1
 296 760 l 1,44,-1
 264 781 l 1,45,46
 276 805 276 805 298 829 c 0,47,48
 337 872 337 872 357.5 872 c 128,-1,49
 378 872 378 872 435 851.5 c 128,-1,50
 492 831 492 831 508 831 c 0,51,52
 536 831 536 831 562 869 c 2,53,-1
 571 882 l 1,54,-1
 603 861 l 1,55,56
 583 825 583 825 554 794 c 128,-1,38
 525 763 525 763 506.5 763 c 128,-1,39
EndSplineSet
EndChar

StartChar: Ograve
Encoding: 210 210 146
Width: 719
GlyphClass: 2
Flags: W
LayerCount: 2
Fore
SplineSet
701 420 m 0,0,1
 701 229 701 229 601.5 107 c 128,-1,2
 502 -15 502 -15 324 -15 c 0,3,4
 191 -15 191 -15 120 66 c 128,-1,5
 49 147 49 147 49 284 c 0,6,7
 49 476 49 476 148.5 598 c 128,-1,8
 248 720 248 720 426 720 c 0,9,10
 559 720 559 720 630 638.5 c 128,-1,11
 701 557 701 557 701 420 c 0,0,1
185.5 470 m 128,-1,13
 156 384 156 384 156 279 c 128,-1,14
 156 174 156 174 200 106 c 128,-1,15
 244 38 244 38 327.5 38 c 128,-1,16
 411 38 411 38 472.5 93 c 128,-1,17
 534 148 534 148 564 234 c 128,-1,18
 594 320 594 320 594 425.5 c 128,-1,19
 594 531 594 531 550.5 599 c 128,-1,20
 507 667 507 667 422.5 667 c 128,-1,21
 338 667 338 667 276.5 611.5 c 128,-1,12
 215 556 215 556 185.5 470 c 128,-1,13
274 825 m 1,22,-1
 304 898 l 1,23,-1
 526 798 l 1,24,-1
 506 750 l 1,25,-1
 421 787 l 1,26,-1
 274 825 l 1,22,-1
EndSplineSet
EndChar

StartChar: Oacute
Encoding: 211 211 147
Width: 719
GlyphClass: 2
Flags: W
LayerCount: 2
Fore
SplineSet
701 420 m 0,0,1
 701 229 701 229 601.5 107 c 128,-1,2
 502 -15 502 -15 324 -15 c 0,3,4
 191 -15 191 -15 120 66 c 128,-1,5
 49 147 49 147 49 284 c 0,6,7
 49 476 49 476 148.5 598 c 128,-1,8
 248 720 248 720 426 720 c 0,9,10
 559 720 559 720 630 638.5 c 128,-1,11
 701 557 701 557 701 420 c 0,0,1
185.5 470 m 128,-1,13
 156 384 156 384 156 279 c 128,-1,14
 156 174 156 174 200 106 c 128,-1,15
 244 38 244 38 327.5 38 c 128,-1,16
 411 38 411 38 472.5 93 c 128,-1,17
 534 148 534 148 564 234 c 128,-1,18
 594 320 594 320 594 425.5 c 128,-1,19
 594 531 594 531 550.5 599 c 128,-1,20
 507 667 507 667 422.5 667 c 128,-1,21
 338 667 338 667 276.5 611.5 c 128,-1,12
 215 556 215 556 185.5 470 c 128,-1,13
535 898 m 1,22,-1
 564 825 l 1,23,24
 436 793 436 793 417 787 c 1,25,-1
 332 750 l 1,26,-1
 312 798 l 1,27,-1
 535 898 l 1,22,-1
EndSplineSet
EndChar

StartChar: Ocircumflex
Encoding: 212 212 148
Width: 719
GlyphClass: 2
Flags: W
LayerCount: 2
Fore
SplineSet
701 420 m 0,0,1
 701 229 701 229 601.5 107 c 128,-1,2
 502 -15 502 -15 324 -15 c 0,3,4
 191 -15 191 -15 120 66 c 128,-1,5
 49 147 49 147 49 284 c 0,6,7
 49 476 49 476 148.5 598 c 128,-1,8
 248 720 248 720 426 720 c 0,9,10
 559 720 559 720 630 638.5 c 128,-1,11
 701 557 701 557 701 420 c 0,0,1
185.5 470 m 128,-1,13
 156 384 156 384 156 279 c 128,-1,14
 156 174 156 174 200 106 c 128,-1,15
 244 38 244 38 327.5 38 c 128,-1,16
 411 38 411 38 472.5 93 c 128,-1,17
 534 148 534 148 564 234 c 128,-1,18
 594 320 594 320 594 425.5 c 128,-1,19
 594 531 594 531 550.5 599 c 128,-1,20
 507 667 507 667 422.5 667 c 128,-1,21
 338 667 338 667 276.5 611.5 c 128,-1,12
 215 556 215 556 185.5 470 c 128,-1,13
432 893 m 1,22,-1
 585 786 l 1,23,-1
 557 747 l 1,24,-1
 478 788 l 1,25,-1
 421 813 l 1,26,27
 412 810 412 810 397 804 c 128,-1,28
 382 798 382 798 371 794 c 128,-1,29
 360 790 360 790 355 788 c 2,30,-1
 264 747 l 1,31,-1
 248 786 l 1,32,-1
 432 893 l 1,22,-1
EndSplineSet
EndChar

StartChar: Otilde
Encoding: 213 213 149
Width: 719
GlyphClass: 2
Flags: W
LayerCount: 2
Fore
SplineSet
701 420 m 0,0,1
 701 229 701 229 601.5 107 c 128,-1,2
 502 -15 502 -15 324 -15 c 0,3,4
 191 -15 191 -15 120 66 c 128,-1,5
 49 147 49 147 49 284 c 0,6,7
 49 476 49 476 148.5 598 c 128,-1,8
 248 720 248 720 426 720 c 0,9,10
 559 720 559 720 630 638.5 c 128,-1,11
 701 557 701 557 701 420 c 0,0,1
185.5 470 m 128,-1,13
 156 384 156 384 156 279 c 128,-1,14
 156 174 156 174 200 106 c 128,-1,15
 244 38 244 38 327.5 38 c 128,-1,16
 411 38 411 38 472.5 93 c 128,-1,17
 534 148 534 148 564 234 c 128,-1,18
 594 320 594 320 594 425.5 c 128,-1,19
 594 531 594 531 550.5 599 c 128,-1,20
 507 667 507 667 422.5 667 c 128,-1,21
 338 667 338 667 276.5 611.5 c 128,-1,12
 215 556 215 556 185.5 470 c 128,-1,13
496 763 m 128,-1,23
 478 763 478 763 421 783.5 c 128,-1,24
 364 804 364 804 348 804 c 0,25,26
 321 804 321 804 294 771 c 2,27,-1
 285 760 l 1,28,-1
 253 781 l 1,29,30
 265 805 265 805 287 829 c 0,31,32
 326 872 326 872 346 872 c 128,-1,33
 366 872 366 872 424 851.5 c 128,-1,34
 482 831 482 831 498 831 c 0,35,36
 525 831 525 831 551 869 c 2,37,-1
 560 882 l 1,38,-1
 592 861 l 1,39,40
 572 825 572 825 543 794 c 128,-1,22
 514 763 514 763 496 763 c 128,-1,23
EndSplineSet
EndChar

StartChar: Odieresis
Encoding: 214 214 150
Width: 719
GlyphClass: 2
Flags: W
LayerCount: 2
Fore
SplineSet
701 420 m 0,0,1
 701 229 701 229 601.5 107 c 128,-1,2
 502 -15 502 -15 324 -15 c 0,3,4
 191 -15 191 -15 120 66 c 128,-1,5
 49 147 49 147 49 284 c 0,6,7
 49 476 49 476 148.5 598 c 128,-1,8
 248 720 248 720 426 720 c 0,9,10
 559 720 559 720 630 638.5 c 128,-1,11
 701 557 701 557 701 420 c 0,0,1
185.5 470 m 128,-1,13
 156 384 156 384 156 279 c 128,-1,14
 156 174 156 174 200 106 c 128,-1,15
 244 38 244 38 327.5 38 c 128,-1,16
 411 38 411 38 472.5 93 c 128,-1,17
 534 148 534 148 564 234 c 128,-1,18
 594 320 594 320 594 425.5 c 128,-1,19
 594 531 594 531 550.5 599 c 128,-1,20
 507 667 507 667 422.5 667 c 128,-1,21
 338 667 338 667 276.5 611.5 c 128,-1,12
 215 556 215 556 185.5 470 c 128,-1,13
545 884 m 0,22,23
 590 884 590 884 590 836 c 0,24,25
 590 804 590 804 574 784.5 c 128,-1,26
 558 765 558 765 528 765 c 0,27,28
 483 765 483 765 483 812 c 0,29,30
 483 844 483 844 499 864 c 128,-1,31
 515 884 515 884 545 884 c 0,22,23
316 884 m 0,32,33
 362 884 362 884 362 836 c 0,34,35
 362 804 362 804 345.5 784.5 c 128,-1,36
 329 765 329 765 299 765 c 0,37,38
 254 765 254 765 254 812 c 0,39,40
 254 844 254 844 270 864 c 128,-1,41
 286 884 286 884 316 884 c 0,32,33
EndSplineSet
EndChar

StartChar: multiply
Encoding: 215 215 151
Width: 541
GlyphClass: 2
Flags: W
LayerCount: 2
Fore
SplineSet
281 300 m 1,0,-1
 458 457 l 1,1,-1
 503 404 l 1,2,-1
 326 248 l 1,3,-1
 462 94 l 1,4,-1
 401 41 l 1,5,-1
 267 196 l 1,6,-1
 88 40 l 1,7,-1
 45 90 l 1,8,-1
 222 248 l 1,9,-1
 87 405 l 1,10,-1
 144 455 l 1,11,-1
 281 300 l 1,0,-1
EndSplineSet
EndChar

StartChar: Oslash
Encoding: 216 216 152
Width: 715
GlyphClass: 2
Flags: W
LayerCount: 2
Fore
SplineSet
697 421 m 0,0,1
 697 230 697 230 596.5 107.5 c 128,-1,2
 496 -15 496 -15 319 -15 c 0,3,4
 240 -15 240 -15 178 17 c 1,5,-1
 78 -136 l 1,6,-1
 43 -113 l 1,7,-1
 143 40 l 1,8,9
 48 117 48 117 48 283 c 0,10,11
 48 475 48 475 148 597.5 c 128,-1,12
 248 720 248 720 426 720 c 0,13,14
 507 720 507 720 567 687 c 1,15,-1
 666 838 l 1,16,-1
 704 815 l 1,17,-1
 604 663 l 1,18,19
 697 585 697 585 697 421 c 0,0,1
181.5 470.5 m 128,-1,21
 152 385 152 385 152 281 c 128,-1,22
 152 177 152 177 191 113 c 1,23,-1
 526 625 l 1,24,25
 482 667 482 667 418 667 c 0,26,27
 335 667 335 667 273 611.5 c 128,-1,20
 211 556 211 556 181.5 470.5 c 128,-1,21
563 234 m 128,-1,29
 593 320 593 320 593 421.5 c 128,-1,30
 593 523 593 523 555 588 c 1,31,-1
 219 78 l 1,32,33
 261 38 261 38 335 38 c 128,-1,34
 409 38 409 38 471 93 c 128,-1,28
 533 148 533 148 563 234 c 128,-1,29
EndSplineSet
EndChar

StartChar: Ugrave
Encoding: 217 217 153
Width: 707
GlyphClass: 2
Flags: W
LayerCount: 2
Fore
SplineSet
319 -15 m 128,-1,1
 196 -15 196 -15 141 60 c 0,2,3
 100 117 100 117 100 205 c 0,4,5
 100 234 100 234 104 266 c 2,6,-1
 148 563 l 2,7,8
 151 588 151 588 151 644 c 1,9,-1
 77 656 l 1,10,-1
 89 710 l 1,11,12
 180 705 180 705 200 705 c 2,13,-1
 343 710 l 1,14,-1
 338 651 l 1,15,-1
 261 644 l 1,16,17
 248 597 248 597 238 533 c 2,18,-1
 199 266 l 2,19,20
 195 237 195 237 195 212 c 0,21,22
 195 150 195 150 219 108 c 0,23,24
 253 49 253 49 335 49 c 128,-1,25
 417 49 417 49 469.5 108.5 c 128,-1,26
 522 168 522 168 536 266 c 2,27,-1
 580 563 l 2,28,29
 582 580 582 580 582 644 c 1,30,-1
 508 656 l 1,31,-1
 521 710 l 1,32,33
 602 705 602 705 623 705 c 2,34,-1
 752 710 l 1,35,-1
 748 651 l 1,36,-1
 671 644 l 1,37,38
 659 609 659 609 647 533 c 2,39,-1
 608 266 l 1,40,41
 590 135 590 135 516 60 c 128,-1,0
 442 -15 442 -15 319 -15 c 128,-1,1
289 825 m 1,42,-1
 319 898 l 1,43,-1
 541 798 l 1,44,-1
 521 750 l 1,45,-1
 436 787 l 1,46,-1
 289 825 l 1,42,-1
EndSplineSet
EndChar

StartChar: Uacute
Encoding: 218 218 154
Width: 707
GlyphClass: 2
Flags: W
LayerCount: 2
Fore
SplineSet
319 -15 m 128,-1,1
 196 -15 196 -15 141 60 c 0,2,3
 100 117 100 117 100 205 c 0,4,5
 100 234 100 234 104 266 c 2,6,-1
 148 563 l 2,7,8
 151 588 151 588 151 644 c 1,9,-1
 77 656 l 1,10,-1
 89 710 l 1,11,12
 180 705 180 705 200 705 c 2,13,-1
 343 710 l 1,14,-1
 338 651 l 1,15,-1
 261 644 l 1,16,17
 248 597 248 597 238 533 c 2,18,-1
 199 266 l 2,19,20
 195 237 195 237 195 212 c 0,21,22
 195 150 195 150 219 108 c 0,23,24
 253 49 253 49 335 49 c 128,-1,25
 417 49 417 49 469.5 108.5 c 128,-1,26
 522 168 522 168 536 266 c 2,27,-1
 580 563 l 2,28,29
 582 580 582 580 582 644 c 1,30,-1
 508 656 l 1,31,-1
 521 710 l 1,32,33
 602 705 602 705 623 705 c 2,34,-1
 752 710 l 1,35,-1
 748 651 l 1,36,-1
 671 644 l 1,37,38
 659 609 659 609 647 533 c 2,39,-1
 608 266 l 1,40,41
 590 135 590 135 516 60 c 128,-1,0
 442 -15 442 -15 319 -15 c 128,-1,1
550 898 m 1,42,-1
 579 825 l 1,43,44
 451 793 451 793 432 787 c 1,45,-1
 347 750 l 1,46,-1
 327 798 l 1,47,-1
 550 898 l 1,42,-1
EndSplineSet
EndChar

StartChar: Ucircumflex
Encoding: 219 219 155
Width: 707
GlyphClass: 2
Flags: W
LayerCount: 2
Fore
SplineSet
319 -15 m 128,-1,1
 196 -15 196 -15 141 60 c 0,2,3
 100 117 100 117 100 205 c 0,4,5
 100 234 100 234 104 266 c 2,6,-1
 148 563 l 2,7,8
 151 588 151 588 151 644 c 1,9,-1
 77 656 l 1,10,-1
 89 710 l 1,11,12
 180 705 180 705 200 705 c 2,13,-1
 343 710 l 1,14,-1
 338 651 l 1,15,-1
 261 644 l 1,16,17
 248 597 248 597 238 533 c 2,18,-1
 199 266 l 2,19,20
 195 237 195 237 195 212 c 0,21,22
 195 150 195 150 219 108 c 0,23,24
 253 49 253 49 335 49 c 128,-1,25
 417 49 417 49 469.5 108.5 c 128,-1,26
 522 168 522 168 536 266 c 2,27,-1
 580 563 l 2,28,29
 582 580 582 580 582 644 c 1,30,-1
 508 656 l 1,31,-1
 521 710 l 1,32,33
 602 705 602 705 623 705 c 2,34,-1
 752 710 l 1,35,-1
 748 651 l 1,36,-1
 671 644 l 1,37,38
 659 609 659 609 647 533 c 2,39,-1
 608 266 l 1,40,41
 590 135 590 135 516 60 c 128,-1,0
 442 -15 442 -15 319 -15 c 128,-1,1
447 893 m 1,42,-1
 600 786 l 1,43,-1
 572 747 l 1,44,-1
 493 788 l 1,45,-1
 436 813 l 1,46,47
 427 810 427 810 412 804 c 128,-1,48
 397 798 397 798 386 794 c 128,-1,49
 375 790 375 790 370 788 c 2,50,-1
 279 747 l 1,51,-1
 263 786 l 1,52,-1
 447 893 l 1,42,-1
EndSplineSet
EndChar

StartChar: Udieresis
Encoding: 220 220 156
Width: 707
GlyphClass: 2
Flags: W
LayerCount: 2
Fore
SplineSet
319 -15 m 128,-1,1
 196 -15 196 -15 141 60 c 0,2,3
 100 117 100 117 100 205 c 0,4,5
 100 234 100 234 104 266 c 2,6,-1
 148 563 l 2,7,8
 151 588 151 588 151 644 c 1,9,-1
 77 656 l 1,10,-1
 89 710 l 1,11,12
 180 705 180 705 200 705 c 2,13,-1
 343 710 l 1,14,-1
 338 651 l 1,15,-1
 261 644 l 1,16,17
 248 597 248 597 238 533 c 2,18,-1
 199 266 l 2,19,20
 195 237 195 237 195 212 c 0,21,22
 195 150 195 150 219 108 c 0,23,24
 253 49 253 49 335 49 c 128,-1,25
 417 49 417 49 469.5 108.5 c 128,-1,26
 522 168 522 168 536 266 c 2,27,-1
 580 563 l 2,28,29
 582 580 582 580 582 644 c 1,30,-1
 508 656 l 1,31,-1
 521 710 l 1,32,33
 602 705 602 705 623 705 c 2,34,-1
 752 710 l 1,35,-1
 748 651 l 1,36,-1
 671 644 l 1,37,38
 659 609 659 609 647 533 c 2,39,-1
 608 266 l 1,40,41
 590 135 590 135 516 60 c 128,-1,0
 442 -15 442 -15 319 -15 c 128,-1,1
560 884 m 0,42,43
 605 884 605 884 605 836 c 0,44,45
 605 804 605 804 589 784.5 c 128,-1,46
 573 765 573 765 543 765 c 0,47,48
 498 765 498 765 498 812 c 0,49,50
 498 844 498 844 514 864 c 128,-1,51
 530 884 530 884 560 884 c 0,42,43
331 884 m 0,52,53
 377 884 377 884 377 836 c 0,54,55
 377 804 377 804 360.5 784.5 c 128,-1,56
 344 765 344 765 314 765 c 0,57,58
 269 765 269 765 269 812 c 0,59,60
 269 844 269 844 285 864 c 128,-1,61
 301 884 301 884 331 884 c 0,52,53
EndSplineSet
EndChar

StartChar: Yacute
Encoding: 221 221 157
Width: 645
GlyphClass: 2
Flags: W
LayerCount: 2
Fore
SplineSet
689 661 m 1,0,-1
 621 644 l 1,1,2
 578 597 578 597 545 545 c 2,3,-1
 369 274 l 1,4,-1
 354 167 l 2,5,6
 345 104 345 104 345 61 c 1,7,-1
 430 54 l 1,8,-1
 415 -5 l 1,9,10
 351 0 351 0 272 0 c 1,11,-1
 158 -5 l 1,12,-1
 160 45 l 1,13,-1
 239 61 l 1,14,15
 240 65 240 65 244 82 c 0,16,17
 256 124 256 124 258 137 c 2,18,-1
 276 258 l 1,19,-1
 168 556 l 1,20,21
 157 590 157 590 134 629 c 2,22,-1
 127 641 l 1,23,-1
 64 651 l 1,24,-1
 77 705 l 1,25,-1
 182 705 l 1,26,-1
 328 710 l 1,27,-1
 325 661 l 1,28,-1
 246 641 l 1,29,30
 250 592 250 592 271 533 c 1,31,-1
 342 344 l 1,32,-1
 487 578 l 1,33,-1
 522 641 l 1,34,-1
 452 651 l 1,35,-1
 464 705 l 1,36,-1
 552 705 l 1,37,-1
 692 710 l 1,38,-1
 689 661 l 1,0,-1
518 898 m 1,39,-1
 547 825 l 1,40,41
 419 793 419 793 400 787 c 1,42,-1
 315 750 l 1,43,-1
 295 798 l 1,44,-1
 518 898 l 1,39,-1
EndSplineSet
EndChar

StartChar: Thorn
Encoding: 222 222 158
Width: 567
GlyphClass: 2
Flags: W
LayerCount: 2
Fore
SplineSet
406 573 m 0,0,1
 496 573 496 573 545 528.5 c 128,-1,2
 594 484 594 484 594 398 c 0,3,4
 594 282 594 282 514.5 215.5 c 128,-1,5
 435 149 435 149 322 149 c 0,6,7
 292 149 292 149 236 151 c 1,8,9
 230 105 230 105 230 61 c 1,10,-1
 316 54 l 1,11,-1
 301 -5 l 1,12,13
 238 0 238 0 160 0 c 1,14,-1
 45 -5 l 1,15,-1
 48 45 l 1,16,-1
 126 61 l 1,17,18
 144 119 144 119 146 137 c 2,19,-1
 209 568 l 2,20,21
 211 585 211 585 211 644 c 1,22,-1
 139 656 l 1,23,-1
 152 710 l 1,24,25
 244 705 244 705 263 705 c 2,26,-1
 397 710 l 1,27,-1
 392 651 l 1,28,-1
 315 644 l 1,29,30
 309 628 309 628 298 567 c 1,31,32
 372 573 372 573 406 573 c 0,0,1
309 199 m 0,33,34
 397 199 397 199 449.5 248 c 128,-1,35
 502 297 502 297 502 388 c 0,36,37
 502 454 502 454 464 488.5 c 128,-1,38
 426 523 426 523 357 523 c 0,39,40
 343 523 343 523 289 517 c 1,41,-1
 244 204 l 1,42,43
 284 199 284 199 309 199 c 0,33,34
EndSplineSet
EndChar

StartChar: germandbls
Encoding: 223 223 159
Width: 569
GlyphClass: 2
Flags: W
LayerCount: 2
Fore
SplineSet
424 442 m 1,0,1
 384 478 384 478 326 478 c 0,2,3
 210 478 210 478 187 330 c 1,4,-1
 158 133 l 2,5,6
 147 59 147 59 143 0 c 1,7,-1
 83 0 l 1,8,-1
 -8 -4 l 1,9,-1
 -5 40 l 1,10,-1
 52 50 l 1,11,12
 63 76 63 76 67 112 c 1,13,-1
 99 329 l 2,14,15
 114 432 114 432 175 486 c 128,-1,16
 236 540 236 540 338.5 540 c 128,-1,17
 441 540 441 540 531 476 c 1,18,-1
 377 301 l 1,19,20
 464 261 464 261 500 227 c 128,-1,21
 536 193 536 193 536 150 c 0,22,23
 536 79 536 79 480.5 33.5 c 128,-1,24
 425 -12 425 -12 337 -12 c 0,25,26
 302 -12 302 -12 271.5 -2.5 c 128,-1,27
 241 7 241 7 228 16 c 2,28,-1
 214 26 l 1,29,-1
 243 149 l 1,30,-1
 296 145 l 1,31,32
 290 104 290 104 287 80 c 1,33,-1
 293 63 l 1,34,35
 314 44 314 44 353 44 c 128,-1,36
 392 44 392 44 416.5 67.5 c 128,-1,37
 441 91 441 91 441 126 c 128,-1,38
 441 161 441 161 406.5 187 c 128,-1,39
 372 213 372 213 268 262 c 1,40,-1
 424 442 l 1,0,1
EndSplineSet
EndChar

StartChar: agrave
Encoding: 224 224 160
Width: 521
GlyphClass: 2
Flags: W
LayerCount: 2
Fore
SplineSet
489 44 m 1,0,-1
 479 -1 l 1,1,2
 433 0 433 0 407 0 c 2,3,-1
 281 -4 l 1,4,-1
 284 40 l 1,5,-1
 338 52 l 1,6,-1
 333 117 l 1,7,-1
 326 159 l 1,8,-1
 168 159 l 1,9,-1
 138 92 l 1,10,-1
 125 52 l 1,11,-1
 173 44 l 1,12,-1
 163 -1 l 1,13,14
 120 0 120 0 92 0 c 1,15,-1
 -11 -4 l 1,16,-1
 -8 40 l 1,17,-1
 36 50 l 1,18,-1
 79 120 l 1,19,-1
 277 529 l 1,20,-1
 337 537 l 1,21,-1
 428 106 l 1,22,-1
 445 51 l 1,23,-1
 489 44 l 1,0,-1
283 401 m 1,24,-1
 191 206 l 1,25,-1
 316 208 l 1,26,-1
 283 401 l 1,24,-1
415 605 m 1,27,-1
 383 564 l 1,28,-1
 312 624 l 1,29,-1
 195 695 l 1,30,-1
 241 755 l 1,31,-1
 415 605 l 1,27,-1
EndSplineSet
EndChar

StartChar: aacute
Encoding: 225 225 161
Width: 521
GlyphClass: 2
Flags: W
LayerCount: 2
Fore
SplineSet
489 44 m 1,0,-1
 479 -1 l 1,1,2
 433 0 433 0 407 0 c 2,3,-1
 281 -4 l 1,4,-1
 284 40 l 1,5,-1
 338 52 l 1,6,-1
 333 117 l 1,7,-1
 326 159 l 1,8,-1
 168 159 l 1,9,-1
 138 92 l 1,10,-1
 125 52 l 1,11,-1
 173 44 l 1,12,-1
 163 -1 l 1,13,14
 120 0 120 0 92 0 c 1,15,-1
 -11 -4 l 1,16,-1
 -8 40 l 1,17,-1
 36 50 l 1,18,-1
 79 120 l 1,19,-1
 277 529 l 1,20,-1
 337 537 l 1,21,-1
 428 106 l 1,22,-1
 445 51 l 1,23,-1
 489 44 l 1,0,-1
283 401 m 1,24,-1
 191 206 l 1,25,-1
 316 208 l 1,26,-1
 283 401 l 1,24,-1
402 755 m 1,27,-1
 447 695 l 1,28,29
 344 635 344 635 330 624 c 2,30,-1
 259 564 l 1,31,-1
 227 605 l 1,32,-1
 402 755 l 1,27,-1
EndSplineSet
EndChar

StartChar: acircumflex
Encoding: 226 226 162
Width: 521
GlyphClass: 2
Flags: W
LayerCount: 2
Fore
SplineSet
489 44 m 1,0,-1
 479 -1 l 1,1,2
 433 0 433 0 407 0 c 2,3,-1
 281 -4 l 1,4,-1
 284 40 l 1,5,-1
 338 52 l 1,6,-1
 333 117 l 1,7,-1
 326 159 l 1,8,-1
 168 159 l 1,9,-1
 138 92 l 1,10,-1
 125 52 l 1,11,-1
 173 44 l 1,12,-1
 163 -1 l 1,13,14
 120 0 120 0 92 0 c 1,15,-1
 -11 -4 l 1,16,-1
 -8 40 l 1,17,-1
 36 50 l 1,18,-1
 79 120 l 1,19,-1
 277 529 l 1,20,-1
 337 537 l 1,21,-1
 428 106 l 1,22,-1
 445 51 l 1,23,-1
 489 44 l 1,0,-1
339 765 m 1,24,-1
 475 596 l 1,25,-1
 438 564 l 1,26,-1
 375 625 l 1,27,-1
 324 668 l 1,28,29
 309 658 309 658 286 642.5 c 128,-1,30
 263 627 263 627 260 625 c 2,31,-1
 180 564 l 1,32,-1
 153 596 l 1,33,-1
 339 765 l 1,24,-1
283 401 m 1,34,-1
 191 206 l 1,35,-1
 316 208 l 1,36,-1
 283 401 l 1,34,-1
EndSplineSet
EndChar

StartChar: atilde
Encoding: 227 227 163
Width: 521
GlyphClass: 2
Flags: W
LayerCount: 2
Fore
SplineSet
489 44 m 1,0,-1
 479 -1 l 1,1,2
 433 0 433 0 407 0 c 2,3,-1
 281 -4 l 1,4,-1
 284 40 l 1,5,-1
 338 52 l 1,6,-1
 333 117 l 1,7,-1
 326 159 l 1,8,-1
 168 159 l 1,9,-1
 138 92 l 1,10,-1
 125 52 l 1,11,-1
 173 44 l 1,12,-1
 163 -1 l 1,13,14
 120 0 120 0 92 0 c 1,15,-1
 -11 -4 l 1,16,-1
 -8 40 l 1,17,-1
 36 50 l 1,18,-1
 79 120 l 1,19,-1
 277 529 l 1,20,-1
 337 537 l 1,21,-1
 428 106 l 1,22,-1
 445 51 l 1,23,-1
 489 44 l 1,0,-1
283 401 m 1,24,-1
 191 206 l 1,25,-1
 316 208 l 1,26,-1
 283 401 l 1,24,-1
388 604 m 128,-1,28
 370 604 370 604 318 624.5 c 128,-1,29
 266 645 266 645 250 645 c 128,-1,30
 234 645 234 645 219 631.5 c 128,-1,31
 204 618 204 618 195 604 c 2,32,-1
 186 591 l 1,33,-1
 154 612 l 1,34,35
 175 650 175 650 203.5 681.5 c 128,-1,36
 232 713 232 713 250.5 713 c 128,-1,37
 269 713 269 713 321.5 692.5 c 128,-1,38
 374 672 374 672 390 672 c 0,39,40
 415 672 415 672 443 710 c 1,41,-1
 452 723 l 1,42,-1
 484 702 l 1,43,44
 464 666 464 666 435 635 c 128,-1,27
 406 604 406 604 388 604 c 128,-1,28
EndSplineSet
EndChar

StartChar: adieresis
Encoding: 228 228 164
Width: 521
GlyphClass: 2
Flags: W
LayerCount: 2
Fore
SplineSet
489 44 m 1,0,-1
 479 -1 l 1,1,2
 433 0 433 0 407 0 c 2,3,-1
 281 -4 l 1,4,-1
 284 40 l 1,5,-1
 338 52 l 1,6,-1
 333 117 l 1,7,-1
 326 159 l 1,8,-1
 168 159 l 1,9,-1
 138 92 l 1,10,-1
 125 52 l 1,11,-1
 173 44 l 1,12,-1
 163 -1 l 1,13,14
 120 0 120 0 92 0 c 1,15,-1
 -11 -4 l 1,16,-1
 -8 40 l 1,17,-1
 36 50 l 1,18,-1
 79 120 l 1,19,-1
 277 529 l 1,20,-1
 337 537 l 1,21,-1
 428 106 l 1,22,-1
 445 51 l 1,23,-1
 489 44 l 1,0,-1
283 401 m 1,24,-1
 191 206 l 1,25,-1
 316 208 l 1,26,-1
 283 401 l 1,24,-1
445 713 m 0,27,28
 489 713 489 713 489 665 c 0,29,30
 489 633 489 633 473.5 613.5 c 128,-1,31
 458 594 458 594 428 594 c 0,32,33
 383 594 383 594 383 641 c 0,34,35
 383 673 383 673 399 693 c 128,-1,36
 415 713 415 713 445 713 c 0,27,28
216 713 m 0,37,38
 261 713 261 713 261 665 c 0,39,40
 261 633 261 633 244.5 613.5 c 128,-1,41
 228 594 228 594 199 594 c 0,42,43
 154 594 154 594 154 641 c 0,44,45
 154 673 154 673 170 693 c 128,-1,46
 186 713 186 713 216 713 c 0,37,38
EndSplineSet
EndChar

StartChar: aring
Encoding: 229 229 165
Width: 521
GlyphClass: 2
Flags: W
LayerCount: 2
Fore
SplineSet
489 44 m 1,0,-1
 479 -1 l 1,1,2
 433 0 433 0 407 0 c 2,3,-1
 281 -4 l 1,4,-1
 284 40 l 1,5,-1
 338 52 l 1,6,-1
 333 117 l 1,7,-1
 326 159 l 1,8,-1
 168 159 l 1,9,-1
 138 92 l 1,10,-1
 125 52 l 1,11,-1
 173 44 l 1,12,-1
 163 -1 l 1,13,14
 120 0 120 0 92 0 c 1,15,-1
 -11 -4 l 1,16,-1
 -8 40 l 1,17,-1
 36 50 l 1,18,-1
 79 120 l 1,19,-1
 277 529 l 1,20,-1
 337 537 l 1,21,-1
 428 106 l 1,22,-1
 445 51 l 1,23,-1
 489 44 l 1,0,-1
283 401 m 1,24,-1
 191 206 l 1,25,-1
 316 208 l 1,26,-1
 283 401 l 1,24,-1
254.5 723.5 m 128,-1,28
 281 751 281 751 324 751 c 0,29,30
 404 751 404 751 404 680 c 0,31,32
 404 635 404 635 378.5 607.5 c 128,-1,33
 353 580 353 580 310 580 c 0,34,35
 228 580 228 580 228 651 c 0,36,27
 228 696 228 696 254.5 723.5 c 128,-1,28
324 713 m 0,37,38
 300 713 300 713 288 696 c 128,-1,39
 276 679 276 679 276 656 c 0,40,41
 276 618 276 618 310 618 c 0,42,43
 335 618 335 618 346.5 635 c 128,-1,44
 358 652 358 652 358 675 c 0,45,46
 358 713 358 713 324 713 c 0,37,38
EndSplineSet
EndChar

StartChar: ae
Encoding: 230 230 166
Width: 705
GlyphClass: 2
Flags: W
LayerCount: 2
Fore
SplineSet
633 87 m 2,0,-1
 650 135 l 1,1,-1
 695 131 l 1,2,-1
 666 11 l 1,3,-1
 651 -3 l 1,4,5
 579 0 579 0 565 0 c 2,6,-1
 386 0 l 1,7,-1
 305 -4 l 1,8,-1
 309 40 l 1,9,-1
 368 50 l 1,10,11
 372 71 372 71 372 98 c 2,12,-1
 371 168 l 1,13,-1
 208 168 l 1,14,-1
 151 80 l 1,15,-1
 136 50 l 1,16,-1
 194 45 l 1,17,-1
 181 -4 l 1,18,19
 141 0 141 0 80 0 c 1,20,-1
 7 -4 l 1,21,-1
 10 40 l 1,22,-1
 55 50 l 1,23,24
 92 92 92 92 110 117 c 1,25,-1
 347 477 l 1,26,-1
 292 486 l 1,27,-1
 303 533 l 1,28,29
 364 529 364 529 386 529 c 2,30,-1
 620 529 l 1,31,-1
 708 536 l 1,32,-1
 720 523 l 1,33,-1
 709 414 l 1,34,-1
 662 410 l 1,35,36
 662 440 662 440 661.5 448 c 128,-1,37
 661 456 661 456 651 474 c 1,38,39
 603 477 603 477 591 477 c 2,40,-1
 457 477 l 1,41,42
 453 447 453 447 453 406 c 2,43,-1
 455 294 l 1,44,45
 478 291 478 291 499 291 c 2,46,-1
 543 291 l 1,47,-1
 586 298 l 1,48,-1
 601 347 l 1,49,-1
 639 343 l 1,50,51
 631 298 631 298 629 283 c 2,52,-1
 619 196 l 1,53,-1
 578 192 l 1,54,-1
 578 240 l 1,55,56
 537 244 537 244 522 244 c 2,57,-1
 494 244 l 2,58,59
 483 244 483 244 455 242 c 1,60,-1
 456 136 l 1,61,-1
 461 51 l 1,62,-1
 548 51 l 2,63,64
 577 51 577 51 612 58 c 1,65,66
 630 80 630 80 633 87 c 2,0,-1
239 215 m 1,67,-1
 371 217 l 1,68,-1
 367 410 l 1,69,-1
 239 215 l 1,67,-1
EndSplineSet
EndChar

StartChar: ccedilla
Encoding: 231 231 167
Width: 487
GlyphClass: 2
Flags: W
LayerCount: 2
Fore
SplineSet
329 -80 m 128,-1,1
 353 -100 353 -100 353 -139.5 c 128,-1,2
 353 -179 353 -179 318.5 -207 c 128,-1,3
 284 -235 284 -235 237.5 -235 c 128,-1,4
 191 -235 191 -235 157 -217 c 1,5,-1
 174 -182 l 1,6,7
 209 -193 209 -193 232.5 -193 c 128,-1,8
 256 -193 256 -193 272.5 -178.5 c 128,-1,9
 289 -164 289 -164 289 -139 c 0,10,11
 289 -103 289 -103 250 -103 c 1,12,-1
 229 -104 l 1,13,-1
 219 -94 l 1,14,-1
 238 -10 l 1,15,16
 144 -3 144 -3 93.5 56.5 c 128,-1,17
 43 116 43 116 43 212 c 0,18,19
 43 356 43 356 121 448 c 128,-1,20
 199 540 199 540 339 540 c 0,21,22
 397 540 397 540 495 515 c 1,23,-1
 469 395 l 1,24,-1
 419 398 l 1,25,-1
 424 437 l 2,26,27
 425 444 425 444 421 472 c 1,28,29
 367 487 367 487 332 487 c 0,30,31
 242 487 242 487 192.5 405 c 128,-1,32
 143 323 143 323 143 211 c 0,33,34
 143 136 143 136 175.5 89 c 128,-1,35
 208 42 208 42 268 42 c 0,36,37
 308 42 308 42 365 57 c 1,38,39
 381 89 381 89 382 97 c 2,40,-1
 390 132 l 1,41,-1
 439 133 l 1,42,-1
 426 14 l 1,43,44
 336 -8 336 -8 283 -10 c 1,45,-1
 266 -59 l 1,46,0
 305 -60 305 -60 329 -80 c 128,-1,1
EndSplineSet
EndChar

StartChar: egrave
Encoding: 232 232 168
Width: 471
GlyphClass: 2
Flags: W
LayerCount: 2
Fore
SplineSet
182 529 m 2,0,-1
 364 529 l 1,1,-1
 451 536 l 1,2,-1
 463 523 l 1,3,-1
 453 415 l 1,4,-1
 405 411 l 1,5,6
 405 431 405 431 404 446.5 c 128,-1,7
 403 462 403 462 394 476 c 1,8,9
 346 479 346 479 334 479 c 2,10,-1
 241 479 l 1,11,12
 233 449 233 449 225 405 c 2,13,-1
 208 298 l 1,14,15
 219 297 219 297 236 297 c 2,16,-1
 287 297 l 1,17,-1
 328 303 l 1,18,-1
 343 352 l 1,19,-1
 381 349 l 1,20,21
 374 301 374 301 371 286 c 1,22,-1
 361 199 l 1,23,-1
 319 194 l 1,24,-1
 319 243 l 1,25,26
 279 247 279 247 264 247 c 2,27,-1
 230 247 l 2,28,29
 211 247 211 247 201 246 c 1,30,-1
 184 133 l 2,31,32
 178 98 178 98 175 51 c 1,33,-1
 279 51 l 2,34,35
 303 51 303 51 343 58 c 1,36,37
 368 89 368 89 380 135 c 1,38,-1
 426 131 l 1,39,-1
 396 11 l 1,40,-1
 380 -3 l 1,41,42
 309 0 309 0 294 0 c 2,43,-1
 101 0 l 1,44,-1
 17 -4 l 1,45,-1
 19 39 l 1,46,-1
 77 50 l 1,47,48
 87 73 87 73 93 110 c 2,49,-1
 139 410 l 2,50,51
 143 438 143 438 143 453.5 c 128,-1,52
 143 469 143 469 142 477 c 1,53,-1
 88 486 l 1,54,-1
 99 533 l 1,55,56
 162 529 162 529 182 529 c 2,0,-1
396 605 m 1,57,-1
 364 564 l 1,58,-1
 293 624 l 1,59,-1
 176 695 l 1,60,-1
 222 755 l 1,61,-1
 396 605 l 1,57,-1
EndSplineSet
EndChar

StartChar: eacute
Encoding: 233 233 169
Width: 471
GlyphClass: 2
Flags: W
LayerCount: 2
Fore
SplineSet
182 529 m 2,0,-1
 364 529 l 1,1,-1
 451 536 l 1,2,-1
 463 523 l 1,3,-1
 453 415 l 1,4,-1
 405 411 l 1,5,6
 405 431 405 431 404 446.5 c 128,-1,7
 403 462 403 462 394 476 c 1,8,9
 346 479 346 479 334 479 c 2,10,-1
 241 479 l 1,11,12
 233 449 233 449 225 405 c 2,13,-1
 208 298 l 1,14,15
 219 297 219 297 236 297 c 2,16,-1
 287 297 l 1,17,-1
 328 303 l 1,18,-1
 343 352 l 1,19,-1
 381 349 l 1,20,21
 374 301 374 301 371 286 c 1,22,-1
 361 199 l 1,23,-1
 319 194 l 1,24,-1
 319 243 l 1,25,26
 279 247 279 247 264 247 c 2,27,-1
 230 247 l 2,28,29
 211 247 211 247 201 246 c 1,30,-1
 184 133 l 2,31,32
 178 98 178 98 175 51 c 1,33,-1
 279 51 l 2,34,35
 303 51 303 51 343 58 c 1,36,37
 368 89 368 89 380 135 c 1,38,-1
 426 131 l 1,39,-1
 396 11 l 1,40,-1
 380 -3 l 1,41,42
 309 0 309 0 294 0 c 2,43,-1
 101 0 l 1,44,-1
 17 -4 l 1,45,-1
 19 39 l 1,46,-1
 77 50 l 1,47,48
 87 73 87 73 93 110 c 2,49,-1
 139 410 l 2,50,51
 143 438 143 438 143 453.5 c 128,-1,52
 143 469 143 469 142 477 c 1,53,-1
 88 486 l 1,54,-1
 99 533 l 1,55,56
 162 529 162 529 182 529 c 2,0,-1
373 755 m 1,57,-1
 418 695 l 1,58,59
 315 635 315 635 301 624 c 2,60,-1
 230 564 l 1,61,-1
 198 605 l 1,62,-1
 373 755 l 1,57,-1
EndSplineSet
EndChar

StartChar: ecircumflex
Encoding: 234 234 170
Width: 471
GlyphClass: 2
Flags: W
LayerCount: 2
Fore
SplineSet
182 529 m 2,0,-1
 364 529 l 1,1,-1
 451 536 l 1,2,-1
 463 523 l 1,3,-1
 453 415 l 1,4,-1
 405 411 l 1,5,6
 405 431 405 431 404 446.5 c 128,-1,7
 403 462 403 462 394 476 c 1,8,9
 346 479 346 479 334 479 c 2,10,-1
 241 479 l 1,11,12
 233 449 233 449 225 405 c 2,13,-1
 208 298 l 1,14,15
 219 297 219 297 236 297 c 2,16,-1
 287 297 l 1,17,-1
 328 303 l 1,18,-1
 343 352 l 1,19,-1
 381 349 l 1,20,21
 374 301 374 301 371 286 c 1,22,-1
 361 199 l 1,23,-1
 319 194 l 1,24,-1
 319 243 l 1,25,26
 279 247 279 247 264 247 c 2,27,-1
 230 247 l 2,28,29
 211 247 211 247 201 246 c 1,30,-1
 184 133 l 2,31,32
 178 98 178 98 175 51 c 1,33,-1
 279 51 l 2,34,35
 303 51 303 51 343 58 c 1,36,37
 368 89 368 89 380 135 c 1,38,-1
 426 131 l 1,39,-1
 396 11 l 1,40,-1
 380 -3 l 1,41,42
 309 0 309 0 294 0 c 2,43,-1
 101 0 l 1,44,-1
 17 -4 l 1,45,-1
 19 39 l 1,46,-1
 77 50 l 1,47,48
 87 73 87 73 93 110 c 2,49,-1
 139 410 l 2,50,51
 143 438 143 438 143 453.5 c 128,-1,52
 143 469 143 469 142 477 c 1,53,-1
 88 486 l 1,54,-1
 99 533 l 1,55,56
 162 529 162 529 182 529 c 2,0,-1
310 765 m 1,57,-1
 446 596 l 1,58,-1
 409 564 l 1,59,-1
 346 625 l 1,60,-1
 295 668 l 1,61,62
 280 658 280 658 257 642.5 c 128,-1,63
 234 627 234 627 231 625 c 2,64,-1
 151 564 l 1,65,-1
 124 596 l 1,66,-1
 310 765 l 1,57,-1
EndSplineSet
EndChar

StartChar: edieresis
Encoding: 235 235 171
Width: 471
GlyphClass: 2
Flags: W
LayerCount: 2
Fore
SplineSet
182 529 m 2,0,-1
 364 529 l 1,1,-1
 451 536 l 1,2,-1
 463 523 l 1,3,-1
 453 415 l 1,4,-1
 405 411 l 1,5,6
 405 431 405 431 404 446.5 c 128,-1,7
 403 462 403 462 394 476 c 1,8,9
 346 479 346 479 334 479 c 2,10,-1
 241 479 l 1,11,12
 233 449 233 449 225 405 c 2,13,-1
 208 298 l 1,14,15
 219 297 219 297 236 297 c 2,16,-1
 287 297 l 1,17,-1
 328 303 l 1,18,-1
 343 352 l 1,19,-1
 381 349 l 1,20,21
 374 301 374 301 371 286 c 1,22,-1
 361 199 l 1,23,-1
 319 194 l 1,24,-1
 319 243 l 1,25,26
 279 247 279 247 264 247 c 2,27,-1
 230 247 l 2,28,29
 211 247 211 247 201 246 c 1,30,-1
 184 133 l 2,31,32
 178 98 178 98 175 51 c 1,33,-1
 279 51 l 2,34,35
 303 51 303 51 343 58 c 1,36,37
 368 89 368 89 380 135 c 1,38,-1
 426 131 l 1,39,-1
 396 11 l 1,40,-1
 380 -3 l 1,41,42
 309 0 309 0 294 0 c 2,43,-1
 101 0 l 1,44,-1
 17 -4 l 1,45,-1
 19 39 l 1,46,-1
 77 50 l 1,47,48
 87 73 87 73 93 110 c 2,49,-1
 139 410 l 2,50,51
 143 438 143 438 143 453.5 c 128,-1,52
 143 469 143 469 142 477 c 1,53,-1
 88 486 l 1,54,-1
 99 533 l 1,55,56
 162 529 162 529 182 529 c 2,0,-1
426 713 m 0,57,58
 470 713 470 713 470 665 c 0,59,60
 470 633 470 633 454.5 613.5 c 128,-1,61
 439 594 439 594 409 594 c 0,62,63
 364 594 364 594 364 641 c 0,64,65
 364 673 364 673 380 693 c 128,-1,66
 396 713 396 713 426 713 c 0,57,58
197 713 m 0,67,68
 242 713 242 713 242 665 c 0,69,70
 242 633 242 633 225.5 613.5 c 128,-1,71
 209 594 209 594 180 594 c 0,72,73
 135 594 135 594 135 641 c 0,74,75
 135 673 135 673 151 693 c 128,-1,76
 167 713 167 713 197 713 c 0,67,68
EndSplineSet
EndChar

StartChar: igrave
Encoding: 236 236 172
Width: 305
GlyphClass: 2
Flags: W
LayerCount: 2
Fore
SplineSet
307 533 m 1,0,-1
 302 482 l 1,1,-1
 246 477 l 1,2,3
 233 428 233 428 229 405 c 2,4,-1
 188 133 l 2,5,6
 181 85 181 85 181 50 c 1,7,-1
 241 45 l 1,8,-1
 229 -4 l 1,9,10
 176 0 176 0 106 0 c 1,11,-1
 21 -4 l 1,12,-1
 24 39 l 1,13,-1
 82 50 l 2,14,15
 82 51 82 51 89 76.5 c 128,-1,16
 96 102 96 102 97 110 c 2,17,-1
 143 410 l 2,18,19
 147 436 147 436 147 477 c 1,20,-1
 93 486 l 1,21,-1
 104 533 l 1,22,23
 164 529 164 529 186 529 c 2,24,-1
 307 533 l 1,0,-1
303 605 m 1,25,-1
 271 564 l 1,26,-1
 200 624 l 1,27,-1
 83 695 l 1,28,-1
 129 755 l 1,29,-1
 303 605 l 1,25,-1
EndSplineSet
EndChar

StartChar: iacute
Encoding: 237 237 173
Width: 305
GlyphClass: 2
Flags: W
LayerCount: 2
Fore
SplineSet
307 533 m 1,0,-1
 302 482 l 1,1,-1
 246 477 l 1,2,3
 233 428 233 428 229 405 c 2,4,-1
 188 133 l 2,5,6
 181 85 181 85 181 50 c 1,7,-1
 241 45 l 1,8,-1
 229 -4 l 1,9,10
 176 0 176 0 106 0 c 1,11,-1
 21 -4 l 1,12,-1
 24 39 l 1,13,-1
 82 50 l 2,14,15
 82 51 82 51 89 76.5 c 128,-1,16
 96 102 96 102 97 110 c 2,17,-1
 143 410 l 2,18,19
 147 436 147 436 147 477 c 1,20,-1
 93 486 l 1,21,-1
 104 533 l 1,22,23
 164 529 164 529 186 529 c 2,24,-1
 307 533 l 1,0,-1
300 755 m 1,25,-1
 345 695 l 1,26,27
 242 635 242 635 228 624 c 2,28,-1
 157 564 l 1,29,-1
 125 605 l 1,30,-1
 300 755 l 1,25,-1
EndSplineSet
EndChar

StartChar: icircumflex
Encoding: 238 238 174
Width: 305
GlyphClass: 2
Flags: W
LayerCount: 2
Fore
SplineSet
307 533 m 1,0,-1
 302 482 l 1,1,-1
 246 477 l 1,2,3
 233 428 233 428 229 405 c 2,4,-1
 188 133 l 2,5,6
 181 85 181 85 181 50 c 1,7,-1
 241 45 l 1,8,-1
 229 -4 l 1,9,10
 176 0 176 0 106 0 c 1,11,-1
 21 -4 l 1,12,-1
 24 39 l 1,13,-1
 82 50 l 2,14,15
 82 51 82 51 89 76.5 c 128,-1,16
 96 102 96 102 97 110 c 2,17,-1
 143 410 l 2,18,19
 147 436 147 436 147 477 c 1,20,-1
 93 486 l 1,21,-1
 104 533 l 1,22,23
 164 529 164 529 186 529 c 2,24,-1
 307 533 l 1,0,-1
238 765 m 1,25,-1
 374 596 l 1,26,-1
 337 564 l 1,27,-1
 274 625 l 1,28,-1
 223 668 l 1,29,30
 208 658 208 658 185 642.5 c 128,-1,31
 162 627 162 627 159 625 c 2,32,-1
 79 564 l 1,33,-1
 52 596 l 1,34,-1
 238 765 l 1,25,-1
EndSplineSet
EndChar

StartChar: idieresis
Encoding: 239 239 175
Width: 305
GlyphClass: 2
Flags: W
LayerCount: 2
Fore
SplineSet
307 533 m 1,0,-1
 302 482 l 1,1,-1
 246 477 l 1,2,3
 233 428 233 428 229 405 c 2,4,-1
 188 133 l 2,5,6
 181 85 181 85 181 50 c 1,7,-1
 241 45 l 1,8,-1
 229 -4 l 1,9,10
 176 0 176 0 106 0 c 1,11,-1
 21 -4 l 1,12,-1
 24 39 l 1,13,-1
 82 50 l 2,14,15
 82 51 82 51 89 76.5 c 128,-1,16
 96 102 96 102 97 110 c 2,17,-1
 143 410 l 2,18,19
 147 436 147 436 147 477 c 1,20,-1
 93 486 l 1,21,-1
 104 533 l 1,22,23
 164 529 164 529 186 529 c 2,24,-1
 307 533 l 1,0,-1
321 713 m 0,25,26
 365 713 365 713 365 665 c 0,27,28
 365 633 365 633 349.5 613.5 c 128,-1,29
 334 594 334 594 304 594 c 0,30,31
 259 594 259 594 259 641 c 0,32,33
 259 673 259 673 275 693 c 128,-1,34
 291 713 291 713 321 713 c 0,25,26
150 713 m 0,35,36
 195 713 195 713 195 665 c 0,37,38
 195 633 195 633 178.5 613.5 c 128,-1,39
 162 594 162 594 133 594 c 0,40,41
 88 594 88 594 88 641 c 0,42,43
 88 673 88 673 104 693 c 128,-1,44
 120 713 120 713 150 713 c 0,35,36
EndSplineSet
EndChar

StartChar: eth
Encoding: 240 240 176
Width: 567
GlyphClass: 2
Flags: W
LayerCount: 2
Fore
SplineSet
170 529 m 1,0,-1
 319 536 l 1,1,2
 429 536 429 536 488 475.5 c 128,-1,3
 547 415 547 415 547 310 c 0,4,5
 547 171 547 171 463.5 83 c 128,-1,6
 380 -5 380 -5 240 -5 c 1,7,-1
 103 0 l 1,8,-1
 17 -4 l 1,9,-1
 20 40 l 1,10,-1
 78 50 l 1,11,12
 91 88 91 88 94 110 c 2,13,-1
 114 248 l 1,14,-1
 52 248 l 1,15,-1
 58 289 l 1,16,-1
 120 289 l 1,17,-1
 138 410 l 2,18,19
 141 432 141 432 141 477 c 1,20,-1
 87 486 l 1,21,-1
 97 533 l 1,22,23
 142 530 142 530 170 529 c 1,0,-1
244 47 m 0,24,25
 346 47 346 47 400 123 c 128,-1,26
 454 199 454 199 454 309 c 0,27,28
 454 387 454 387 418 436 c 128,-1,29
 382 485 382 485 309 485 c 0,30,31
 267 485 267 485 237 480 c 1,32,33
 226 440 226 440 221 405 c 2,34,-1
 204 289 l 1,35,-1
 301 289 l 1,36,-1
 291 248 l 1,37,-1
 198 248 l 1,38,-1
 181 133 l 2,39,40
 174 84 174 84 174 49 c 1,41,42
 206 47 206 47 244 47 c 0,24,25
EndSplineSet
EndChar

StartChar: ntilde
Encoding: 241 241 177
Width: 606
GlyphClass: 2
Flags: W
LayerCount: 2
Fore
SplineSet
181 529 m 2,0,-1
 231 529 l 1,1,-1
 243 514 l 1,2,3
 288 416 288 416 296 399 c 1,4,-1
 443 141 l 1,5,-1
 484 405 l 1,6,7
 487 432 487 432 487 476 c 1,8,-1
 433 482 l 1,9,-1
 444 531 l 1,10,-1
 511 529 l 1,11,-1
 633 533 l 1,12,-1
 629 485 l 1,13,-1
 572 476 l 1,14,15
 557 438 557 438 551 400 c 2,16,-1
 489 -3 l 1,17,-1
 422 -3 l 1,18,-1
 203 387 l 1,19,-1
 164 133 l 2,20,21
 158 92 158 92 158 50 c 1,22,-1
 214 45 l 1,23,-1
 201 -4 l 1,24,25
 167 0 167 0 97 0 c 1,26,-1
 17 -4 l 1,27,-1
 19 39 l 1,28,-1
 77 50 l 1,29,30
 90 88 90 88 93 110 c 2,31,-1
 139 410 l 2,32,33
 142 432 142 432 142 477 c 1,34,-1
 88 486 l 1,35,-1
 98 533 l 1,36,37
 158 529 158 529 181 529 c 2,0,-1
454.5 604 m 128,-1,39
 436 604 436 604 384 624.5 c 128,-1,40
 332 645 332 645 316.5 645 c 128,-1,41
 301 645 301 645 286 631.5 c 128,-1,42
 271 618 271 618 262 604 c 2,43,-1
 253 591 l 1,44,-1
 221 612 l 1,45,46
 242 650 242 650 270.5 681.5 c 128,-1,47
 299 713 299 713 317.5 713 c 128,-1,48
 336 713 336 713 388.5 692.5 c 128,-1,49
 441 672 441 672 456.5 672 c 128,-1,50
 472 672 472 672 487 685 c 128,-1,51
 502 698 502 698 510 710 c 2,52,-1
 519 723 l 1,53,-1
 551 702 l 1,54,55
 531 666 531 666 502 635 c 128,-1,38
 473 604 473 604 454.5 604 c 128,-1,39
EndSplineSet
EndChar

StartChar: ograve
Encoding: 242 242 178
Width: 586
GlyphClass: 2
Flags: W
LayerCount: 2
Fore
SplineSet
566 313 m 0,0,1
 566 170 566 170 485 79 c 128,-1,2
 404 -12 404 -12 265 -12 c 0,3,4
 160 -12 160 -12 102 49.5 c 128,-1,5
 44 111 44 111 44 215 c 0,6,7
 44 359 44 359 125 450 c 128,-1,8
 206 541 206 541 345 541 c 0,9,10
 450 541 450 541 508 479.5 c 128,-1,11
 566 418 566 418 566 313 c 0,0,1
145 209 m 0,12,13
 145 131 145 131 176.5 85.5 c 128,-1,14
 208 40 208 40 271 40 c 0,15,16
 364 40 364 40 414.5 119.5 c 128,-1,17
 465 199 465 199 465 319 c 0,18,19
 465 398 465 398 433.5 443.5 c 128,-1,20
 402 489 402 489 339 489 c 0,21,22
 246 489 246 489 195.5 409 c 128,-1,23
 145 329 145 329 145 209 c 0,12,13
444 605 m 1,24,-1
 412 564 l 1,25,-1
 341 624 l 1,26,-1
 224 695 l 1,27,-1
 270 755 l 1,28,-1
 444 605 l 1,24,-1
EndSplineSet
EndChar

StartChar: oacute
Encoding: 243 243 179
Width: 586
GlyphClass: 2
Flags: W
LayerCount: 2
Fore
SplineSet
566 313 m 0,0,1
 566 170 566 170 485 79 c 128,-1,2
 404 -12 404 -12 265 -12 c 0,3,4
 160 -12 160 -12 102 49.5 c 128,-1,5
 44 111 44 111 44 215 c 0,6,7
 44 359 44 359 125 450 c 128,-1,8
 206 541 206 541 345 541 c 0,9,10
 450 541 450 541 508 479.5 c 128,-1,11
 566 418 566 418 566 313 c 0,0,1
145 209 m 0,12,13
 145 131 145 131 176.5 85.5 c 128,-1,14
 208 40 208 40 271 40 c 0,15,16
 364 40 364 40 414.5 119.5 c 128,-1,17
 465 199 465 199 465 319 c 0,18,19
 465 398 465 398 433.5 443.5 c 128,-1,20
 402 489 402 489 339 489 c 0,21,22
 246 489 246 489 195.5 409 c 128,-1,23
 145 329 145 329 145 209 c 0,12,13
441 755 m 1,24,-1
 486 695 l 1,25,26
 383 635 383 635 369 624 c 2,27,-1
 298 564 l 1,28,-1
 266 605 l 1,29,-1
 441 755 l 1,24,-1
EndSplineSet
EndChar

StartChar: ocircumflex
Encoding: 244 244 180
Width: 586
GlyphClass: 2
Flags: W
LayerCount: 2
Fore
SplineSet
566 313 m 0,0,1
 566 170 566 170 485 79 c 128,-1,2
 404 -12 404 -12 265 -12 c 0,3,4
 160 -12 160 -12 102 49.5 c 128,-1,5
 44 111 44 111 44 215 c 0,6,7
 44 359 44 359 125 450 c 128,-1,8
 206 541 206 541 345 541 c 0,9,10
 450 541 450 541 508 479.5 c 128,-1,11
 566 418 566 418 566 313 c 0,0,1
145 209 m 0,12,13
 145 131 145 131 176.5 85.5 c 128,-1,14
 208 40 208 40 271 40 c 0,15,16
 364 40 364 40 414.5 119.5 c 128,-1,17
 465 199 465 199 465 319 c 0,18,19
 465 398 465 398 433.5 443.5 c 128,-1,20
 402 489 402 489 339 489 c 0,21,22
 246 489 246 489 195.5 409 c 128,-1,23
 145 329 145 329 145 209 c 0,12,13
377 765 m 1,24,-1
 513 596 l 1,25,-1
 476 564 l 1,26,-1
 413 625 l 1,27,-1
 362 668 l 1,28,29
 347 658 347 658 324 642.5 c 128,-1,30
 301 627 301 627 298 625 c 2,31,-1
 218 564 l 1,32,-1
 191 596 l 1,33,-1
 377 765 l 1,24,-1
EndSplineSet
EndChar

StartChar: otilde
Encoding: 245 245 181
Width: 586
GlyphClass: 2
Flags: W
LayerCount: 2
Fore
SplineSet
566 313 m 0,0,1
 566 170 566 170 485 79 c 128,-1,2
 404 -12 404 -12 265 -12 c 0,3,4
 160 -12 160 -12 102 49.5 c 128,-1,5
 44 111 44 111 44 215 c 0,6,7
 44 359 44 359 125 450 c 128,-1,8
 206 541 206 541 345 541 c 0,9,10
 450 541 450 541 508 479.5 c 128,-1,11
 566 418 566 418 566 313 c 0,0,1
145 209 m 0,12,13
 145 131 145 131 176.5 85.5 c 128,-1,14
 208 40 208 40 271 40 c 0,15,16
 364 40 364 40 414.5 119.5 c 128,-1,17
 465 199 465 199 465 319 c 0,18,19
 465 398 465 398 433.5 443.5 c 128,-1,20
 402 489 402 489 339 489 c 0,21,22
 246 489 246 489 195.5 409 c 128,-1,23
 145 329 145 329 145 209 c 0,12,13
426 604 m 128,-1,25
 408 604 408 604 356 624.5 c 128,-1,26
 304 645 304 645 288 645 c 128,-1,27
 272 645 272 645 257 631.5 c 128,-1,28
 242 618 242 618 233 604 c 2,29,-1
 224 591 l 1,30,-1
 192 612 l 1,31,32
 213 650 213 650 241.5 681.5 c 128,-1,33
 270 713 270 713 288.5 713 c 128,-1,34
 307 713 307 713 359.5 692.5 c 128,-1,35
 412 672 412 672 428 672 c 0,36,37
 453 672 453 672 481 710 c 1,38,-1
 490 723 l 1,39,-1
 522 702 l 1,40,41
 502 666 502 666 473 635 c 128,-1,24
 444 604 444 604 426 604 c 128,-1,25
EndSplineSet
EndChar

StartChar: odieresis
Encoding: 246 246 182
Width: 586
GlyphClass: 2
Flags: W
LayerCount: 2
Fore
SplineSet
566 313 m 0,0,1
 566 170 566 170 485 79 c 128,-1,2
 404 -12 404 -12 265 -12 c 0,3,4
 160 -12 160 -12 102 49.5 c 128,-1,5
 44 111 44 111 44 215 c 0,6,7
 44 359 44 359 125 450 c 128,-1,8
 206 541 206 541 345 541 c 0,9,10
 450 541 450 541 508 479.5 c 128,-1,11
 566 418 566 418 566 313 c 0,0,1
145 209 m 0,12,13
 145 131 145 131 176.5 85.5 c 128,-1,14
 208 40 208 40 271 40 c 0,15,16
 364 40 364 40 414.5 119.5 c 128,-1,17
 465 199 465 199 465 319 c 0,18,19
 465 398 465 398 433.5 443.5 c 128,-1,20
 402 489 402 489 339 489 c 0,21,22
 246 489 246 489 195.5 409 c 128,-1,23
 145 329 145 329 145 209 c 0,12,13
484 713 m 0,24,25
 528 713 528 713 528 665 c 0,26,27
 528 633 528 633 512.5 613.5 c 128,-1,28
 497 594 497 594 467 594 c 0,29,30
 422 594 422 594 422 641 c 0,31,32
 422 673 422 673 438 693 c 128,-1,33
 454 713 454 713 484 713 c 0,24,25
255 713 m 0,34,35
 300 713 300 713 300 665 c 0,36,37
 300 633 300 633 283.5 613.5 c 128,-1,38
 267 594 267 594 238 594 c 0,39,40
 193 594 193 594 193 641 c 0,41,42
 193 673 193 673 209 693 c 128,-1,43
 225 713 225 713 255 713 c 0,34,35
EndSplineSet
EndChar

StartChar: divide
Encoding: 247 247 183
Width: 545
GlyphClass: 2
Flags: W
LayerCount: 2
Fore
SplineSet
57 279 m 1,0,-1
 493 284 l 1,1,-1
 483 213 l 1,2,-1
 48 213 l 1,3,-1
 57 279 l 1,0,-1
257 119 m 0,4,5
 301 119 301 119 303 69 c 1,6,7
 303 39 303 39 285 14.5 c 128,-1,8
 267 -10 267 -10 240 -10 c 0,9,10
 196 -10 196 -10 194 39 c 1,11,12
 195 70 195 70 212.5 94.5 c 128,-1,13
 230 119 230 119 257 119 c 0,4,5
306 498 m 0,14,15
 353 498 353 498 353 448 c 1,16,17
 352 418 352 418 334 393.5 c 128,-1,18
 316 369 316 369 289 369 c 0,19,20
 244 369 244 369 244 418 c 1,21,22
 245 449 245 449 262 473.5 c 128,-1,23
 279 498 279 498 306 498 c 0,14,15
EndSplineSet
EndChar

StartChar: oslash
Encoding: 248 248 184
Width: 584
GlyphClass: 2
Flags: W
LayerCount: 2
Fore
SplineSet
487 498 m 1,0,1
 564 438 564 438 564 303.5 c 128,-1,2
 564 169 564 169 483 78.5 c 128,-1,3
 402 -12 402 -12 264 -12 c 0,4,5
 202 -12 202 -12 155 10 c 1,6,-1
 79 -102 l 1,7,-1
 47 -83 l 1,8,-1
 123 29 l 1,9,10
 44 90 44 90 44 225 c 128,-1,11
 44 360 44 360 125 450.5 c 128,-1,12
 206 541 206 541 345 541 c 0,13,14
 407 541 407 541 455 518 c 1,15,-1
 530 629 l 1,16,-1
 563 610 l 1,17,-1
 487 498 l 1,0,1
143 211 m 0,18,19
 143 139 143 139 168 96 c 1,20,-1
 416 461 l 1,21,22
 385 489 385 489 337 489 c 0,23,24
 243 489 243 489 193 411 c 128,-1,25
 143 333 143 333 143 211 c 0,18,19
466 317 m 0,26,27
 466 387 466 387 441 431 c 1,28,-1
 193 66 l 1,29,30
 224 40 224 40 272 40 c 0,31,32
 366 40 366 40 416 118 c 128,-1,33
 466 196 466 196 466 317 c 0,26,27
EndSplineSet
EndChar

StartChar: ugrave
Encoding: 249 249 185
Width: 580
GlyphClass: 2
Flags: W
LayerCount: 2
Fore
SplineSet
263 -11 m 128,-1,1
 164 -11 164 -11 119 46 c 0,2,3
 85 88 85 88 85 154 c 0,4,5
 85 176 85 176 89 200 c 2,6,-1
 121 408 l 2,7,8
 125 437 125 437 125 477 c 1,9,-1
 70 486 l 1,10,-1
 81 533 l 1,11,12
 141 529 141 529 163 529 c 2,13,-1
 289 533 l 1,14,-1
 284 482 l 1,15,-1
 227 477 l 1,16,17
 216 440 216 440 210 402 c 2,18,-1
 179 198 l 2,19,20
 176 179 176 179 176 163 c 0,21,22
 176 121 176 121 194 92 c 0,23,24
 220 51 220 51 281 51 c 128,-1,25
 342 51 342 51 379 90.5 c 128,-1,26
 416 130 416 130 426 198 c 2,27,-1
 459 408 l 1,28,29
 462 444 462 444 462 477 c 1,30,-1
 407 486 l 1,31,-1
 418 533 l 1,32,33
 473 529 473 529 496 529 c 2,34,-1
 607 533 l 1,35,-1
 603 482 l 1,36,-1
 546 477 l 1,37,38
 537 451 537 451 529 402 c 2,39,-1
 498 200 l 2,40,41
 483 102 483 102 422.5 45.5 c 128,-1,0
 362 -11 362 -11 263 -11 c 128,-1,1
443 605 m 1,42,-1
 411 564 l 1,43,-1
 340 624 l 1,44,-1
 223 695 l 1,45,-1
 269 755 l 1,46,-1
 443 605 l 1,42,-1
EndSplineSet
EndChar

StartChar: uacute
Encoding: 250 250 186
Width: 580
GlyphClass: 2
Flags: W
LayerCount: 2
Fore
SplineSet
263 -11 m 128,-1,1
 164 -11 164 -11 119 46 c 0,2,3
 85 88 85 88 85 154 c 0,4,5
 85 176 85 176 89 200 c 2,6,-1
 121 408 l 2,7,8
 125 437 125 437 125 477 c 1,9,-1
 70 486 l 1,10,-1
 81 533 l 1,11,12
 141 529 141 529 163 529 c 2,13,-1
 289 533 l 1,14,-1
 284 482 l 1,15,-1
 227 477 l 1,16,17
 216 440 216 440 210 402 c 2,18,-1
 179 198 l 2,19,20
 176 179 176 179 176 163 c 0,21,22
 176 121 176 121 194 92 c 0,23,24
 220 51 220 51 281 51 c 128,-1,25
 342 51 342 51 379 90.5 c 128,-1,26
 416 130 416 130 426 198 c 2,27,-1
 459 408 l 1,28,29
 462 444 462 444 462 477 c 1,30,-1
 407 486 l 1,31,-1
 418 533 l 1,32,33
 473 529 473 529 496 529 c 2,34,-1
 607 533 l 1,35,-1
 603 482 l 1,36,-1
 546 477 l 1,37,38
 537 451 537 451 529 402 c 2,39,-1
 498 200 l 2,40,41
 483 102 483 102 422.5 45.5 c 128,-1,0
 362 -11 362 -11 263 -11 c 128,-1,1
440 755 m 1,42,-1
 485 695 l 1,43,44
 382 635 382 635 368 624 c 2,45,-1
 297 564 l 1,46,-1
 265 605 l 1,47,-1
 440 755 l 1,42,-1
EndSplineSet
EndChar

StartChar: ucircumflex
Encoding: 251 251 187
Width: 580
GlyphClass: 2
Flags: W
LayerCount: 2
Fore
SplineSet
263 -11 m 128,-1,1
 164 -11 164 -11 119 46 c 0,2,3
 85 88 85 88 85 154 c 0,4,5
 85 176 85 176 89 200 c 2,6,-1
 121 408 l 2,7,8
 125 437 125 437 125 477 c 1,9,-1
 70 486 l 1,10,-1
 81 533 l 1,11,12
 141 529 141 529 163 529 c 2,13,-1
 289 533 l 1,14,-1
 284 482 l 1,15,-1
 227 477 l 1,16,17
 216 440 216 440 210 402 c 2,18,-1
 179 198 l 2,19,20
 176 179 176 179 176 163 c 0,21,22
 176 121 176 121 194 92 c 0,23,24
 220 51 220 51 281 51 c 128,-1,25
 342 51 342 51 379 90.5 c 128,-1,26
 416 130 416 130 426 198 c 2,27,-1
 459 408 l 1,28,29
 462 444 462 444 462 477 c 1,30,-1
 407 486 l 1,31,-1
 418 533 l 1,32,33
 473 529 473 529 496 529 c 2,34,-1
 607 533 l 1,35,-1
 603 482 l 1,36,-1
 546 477 l 1,37,38
 537 451 537 451 529 402 c 2,39,-1
 498 200 l 2,40,41
 483 102 483 102 422.5 45.5 c 128,-1,0
 362 -11 362 -11 263 -11 c 128,-1,1
377 765 m 1,42,-1
 513 596 l 1,43,-1
 476 564 l 1,44,-1
 413 625 l 1,45,-1
 362 668 l 1,46,47
 347 658 347 658 324 642.5 c 128,-1,48
 301 627 301 627 298 625 c 2,49,-1
 218 564 l 1,50,-1
 191 596 l 1,51,-1
 377 765 l 1,42,-1
EndSplineSet
EndChar

StartChar: udieresis
Encoding: 252 252 188
Width: 580
GlyphClass: 2
Flags: W
LayerCount: 2
Fore
SplineSet
263 -11 m 128,-1,1
 164 -11 164 -11 119 46 c 0,2,3
 85 88 85 88 85 154 c 0,4,5
 85 176 85 176 89 200 c 2,6,-1
 121 408 l 2,7,8
 125 437 125 437 125 477 c 1,9,-1
 70 486 l 1,10,-1
 81 533 l 1,11,12
 141 529 141 529 163 529 c 2,13,-1
 289 533 l 1,14,-1
 284 482 l 1,15,-1
 227 477 l 1,16,17
 216 440 216 440 210 402 c 2,18,-1
 179 198 l 2,19,20
 176 179 176 179 176 163 c 0,21,22
 176 121 176 121 194 92 c 0,23,24
 220 51 220 51 281 51 c 128,-1,25
 342 51 342 51 379 90.5 c 128,-1,26
 416 130 416 130 426 198 c 2,27,-1
 459 408 l 1,28,29
 462 444 462 444 462 477 c 1,30,-1
 407 486 l 1,31,-1
 418 533 l 1,32,33
 473 529 473 529 496 529 c 2,34,-1
 607 533 l 1,35,-1
 603 482 l 1,36,-1
 546 477 l 1,37,38
 537 451 537 451 529 402 c 2,39,-1
 498 200 l 2,40,41
 483 102 483 102 422.5 45.5 c 128,-1,0
 362 -11 362 -11 263 -11 c 128,-1,1
493 713 m 0,42,43
 537 713 537 713 537 665 c 0,44,45
 537 633 537 633 521.5 613.5 c 128,-1,46
 506 594 506 594 476 594 c 0,47,48
 431 594 431 594 431 641 c 0,49,50
 431 673 431 673 447 693 c 128,-1,51
 463 713 463 713 493 713 c 0,42,43
264 713 m 0,52,53
 309 713 309 713 309 665 c 0,54,55
 309 633 309 633 292.5 613.5 c 128,-1,56
 276 594 276 594 247 594 c 0,57,58
 202 594 202 594 202 641 c 0,59,60
 202 673 202 673 218 693 c 128,-1,61
 234 713 234 713 264 713 c 0,52,53
EndSplineSet
EndChar

StartChar: yacute
Encoding: 253 253 189
Width: 532
GlyphClass: 2
Flags: W
LayerCount: 2
Fore
SplineSet
562 489 m 1,0,-1
 511 479 l 1,1,2
 475 442 475 442 453 408 c 2,3,-1
 311 197 l 1,4,-1
 301 133 l 1,5,6
 294 80 294 80 294 50 c 1,7,-1
 355 45 l 1,8,-1
 343 -4 l 1,9,10
 289 0 289 0 219 0 c 1,11,-1
 135 -4 l 1,12,-1
 137 39 l 1,13,-1
 195 50 l 1,14,15
 196 53 196 53 199.5 66 c 128,-1,16
 203 79 203 79 206.5 91.5 c 128,-1,17
 210 104 210 104 210 110 c 2,18,-1
 223 193 l 1,19,-1
 134 423 l 1,20,21
 126 448 126 448 103 478 c 1,22,-1
 56 485 l 1,23,-1
 66 530 l 1,24,25
 117 529 117 529 144 529 c 2,26,-1
 273 533 l 1,27,-1
 270 489 l 1,28,-1
 215 477 l 1,29,30
 218 445 218 445 230 412 c 2,31,-1
 286 265 l 1,32,-1
 397 437 l 1,33,-1
 418 477 l 1,34,-1
 371 485 l 1,35,-1
 381 530 l 1,36,37
 428 529 428 529 455 529 c 2,38,-1
 565 533 l 1,39,-1
 562 489 l 1,0,-1
415 755 m 1,40,-1
 460 695 l 1,41,42
 357 635 357 635 343 624 c 2,43,-1
 272 564 l 1,44,-1
 240 605 l 1,45,-1
 415 755 l 1,40,-1
EndSplineSet
EndChar

StartChar: thorn
Encoding: 254 254 190
Width: 473
GlyphClass: 2
Flags: W
LayerCount: 2
Fore
SplineSet
182 112 m 1,0,1
 179 88 179 88 179 50 c 1,2,-1
 241 45 l 1,3,-1
 228 -4 l 1,4,5
 175 0 175 0 107 0 c 1,6,-1
 21 -4 l 1,7,-1
 24 40 l 1,8,-1
 82 50 l 1,9,10
 95 88 95 88 98 110 c 2,11,-1
 142 410 l 2,12,13
 145 430 145 430 145 477 c 1,14,-1
 91 486 l 1,15,-1
 101 533 l 1,16,17
 162 529 162 529 184 529 c 2,18,-1
 302 533 l 1,19,-1
 298 482 l 1,20,-1
 242 477 l 1,21,22
 237 467 237 467 229 425 c 1,23,24
 283 429 283 429 308 429 c 0,25,26
 379 429 379 429 418.5 394.5 c 128,-1,27
 458 360 458 360 458 295 c 0,28,29
 458 210 458 210 395.5 160.5 c 128,-1,30
 333 111 333 111 245 111 c 0,31,32
 203 111 203 111 182 112 c 1,0,1
228 158 m 0,33,34
 294 158 294 158 332 191.5 c 128,-1,35
 370 225 370 225 370 289 c 0,36,37
 370 382 370 382 265 382 c 0,38,39
 248 382 248 382 221 379 c 1,40,-1
 189 160 l 1,41,42
 219 158 219 158 228 158 c 0,33,34
EndSplineSet
EndChar

StartChar: ydieresis
Encoding: 255 255 191
Width: 532
GlyphClass: 2
Flags: W
LayerCount: 2
Fore
SplineSet
562 489 m 1,0,-1
 511 479 l 1,1,2
 475 442 475 442 453 408 c 2,3,-1
 311 197 l 1,4,-1
 301 133 l 1,5,6
 294 80 294 80 294 50 c 1,7,-1
 355 45 l 1,8,-1
 343 -4 l 1,9,10
 289 0 289 0 219 0 c 1,11,-1
 135 -4 l 1,12,-1
 137 39 l 1,13,-1
 195 50 l 1,14,15
 196 53 196 53 199.5 66 c 128,-1,16
 203 79 203 79 206.5 91.5 c 128,-1,17
 210 104 210 104 210 110 c 2,18,-1
 223 193 l 1,19,-1
 134 423 l 1,20,21
 126 448 126 448 103 478 c 1,22,-1
 56 485 l 1,23,-1
 66 530 l 1,24,25
 117 529 117 529 144 529 c 2,26,-1
 273 533 l 1,27,-1
 270 489 l 1,28,-1
 215 477 l 1,29,30
 218 445 218 445 230 412 c 2,31,-1
 286 265 l 1,32,-1
 397 437 l 1,33,-1
 418 477 l 1,34,-1
 371 485 l 1,35,-1
 381 530 l 1,36,37
 428 529 428 529 455 529 c 2,38,-1
 565 533 l 1,39,-1
 562 489 l 1,0,-1
229 713 m 0,40,41
 274 713 274 713 274 665 c 0,42,43
 274 633 274 633 257.5 613.5 c 128,-1,44
 241 594 241 594 212 594 c 0,45,46
 167 594 167 594 167 641 c 0,47,48
 167 673 167 673 183 693 c 128,-1,49
 199 713 199 713 229 713 c 0,40,41
458 713 m 0,50,51
 502 713 502 713 502 665 c 0,52,53
 502 633 502 633 486.5 613.5 c 128,-1,54
 471 594 471 594 441 594 c 0,55,56
 396 594 396 594 396 641 c 0,57,58
 396 673 396 673 412 693 c 128,-1,59
 428 713 428 713 458 713 c 0,50,51
EndSplineSet
EndChar

StartChar: Amacron
Encoding: 256 256 192
Width: 644
GlyphClass: 2
Flags: W
LayerCount: 2
Fore
SplineSet
612 54 m 1,0,-1
 600 0 l 1,1,-1
 502 0 l 1,2,-1
 360 -5 l 1,3,-1
 364 44 l 1,4,-1
 437 64 l 1,5,-1
 427 172 l 1,6,-1
 416 232 l 1,7,-1
 204 232 l 1,8,-1
 158 127 l 1,9,-1
 139 64 l 1,10,-1
 205 54 l 1,11,-1
 193 0 l 1,12,-1
 108 0 l 1,13,-1
 -23 -5 l 1,14,-1
 -20 44 l 1,15,-1
 43 61 l 1,16,-1
 99 160 l 1,17,-1
 349 705 l 1,18,-1
 409 715 l 1,19,-1
 529 149 l 1,20,-1
 554 64 l 1,21,-1
 612 54 l 1,0,-1
354 557 m 1,22,-1
 229 282 l 1,23,-1
 404 286 l 1,24,-1
 354 557 l 1,22,-1
538 781 m 1,25,-1
 230 781 l 1,26,-1
 238 834 l 1,27,-1
 551 834 l 1,28,-1
 538 781 l 1,25,-1
EndSplineSet
EndChar

StartChar: amacron
Encoding: 257 257 193
Width: 521
GlyphClass: 2
Flags: W
LayerCount: 2
Fore
SplineSet
489 44 m 1,0,-1
 479 -1 l 1,1,2
 433 0 433 0 407 0 c 2,3,-1
 281 -4 l 1,4,-1
 284 40 l 1,5,-1
 338 52 l 1,6,-1
 333 117 l 1,7,-1
 326 159 l 1,8,-1
 168 159 l 1,9,-1
 138 92 l 1,10,-1
 125 52 l 1,11,-1
 173 44 l 1,12,-1
 163 -1 l 1,13,14
 120 0 120 0 92 0 c 1,15,-1
 -11 -4 l 1,16,-1
 -8 40 l 1,17,-1
 36 50 l 1,18,-1
 79 120 l 1,19,-1
 277 529 l 1,20,-1
 337 537 l 1,21,-1
 428 106 l 1,22,-1
 445 51 l 1,23,-1
 489 44 l 1,0,-1
283 401 m 1,24,-1
 191 206 l 1,25,-1
 316 208 l 1,26,-1
 283 401 l 1,24,-1
469 606 m 1,27,-1
 161 606 l 1,28,-1
 169 659 l 1,29,-1
 482 659 l 1,30,-1
 469 606 l 1,27,-1
EndSplineSet
EndChar

StartChar: Abreve
Encoding: 258 258 194
Width: 644
GlyphClass: 2
Flags: W
LayerCount: 2
Fore
SplineSet
612 54 m 1,0,-1
 600 0 l 1,1,-1
 502 0 l 1,2,-1
 360 -5 l 1,3,-1
 364 44 l 1,4,-1
 437 64 l 1,5,-1
 427 172 l 1,6,-1
 416 232 l 1,7,-1
 204 232 l 1,8,-1
 158 127 l 1,9,-1
 139 64 l 1,10,-1
 205 54 l 1,11,-1
 193 0 l 1,12,-1
 108 0 l 1,13,-1
 -23 -5 l 1,14,-1
 -20 44 l 1,15,-1
 43 61 l 1,16,-1
 99 160 l 1,17,-1
 349 705 l 1,18,-1
 409 715 l 1,19,-1
 529 149 l 1,20,-1
 554 64 l 1,21,-1
 612 54 l 1,0,-1
354 557 m 1,22,-1
 229 282 l 1,23,-1
 404 286 l 1,24,-1
 354 557 l 1,22,-1
474.5 794 m 128,-1,26
 435 758 435 758 369.5 758 c 128,-1,27
 304 758 304 758 274 794 c 0,28,29
 252 821 252 821 252 866 c 0,30,31
 252 881 252 881 255 898 c 1,32,-1
 309 898 l 1,33,34
 308 890 308 890 308 883 c 0,35,36
 308 855 308 855 324.5 834.5 c 128,-1,37
 341 814 341 814 377.5 814 c 128,-1,38
 414 814 414 814 439.5 837 c 128,-1,39
 465 860 465 860 470 898 c 1,40,-1
 524 898 l 1,41,25
 514 830 514 830 474.5 794 c 128,-1,26
EndSplineSet
EndChar

StartChar: abreve
Encoding: 259 259 195
Width: 521
GlyphClass: 2
Flags: W
LayerCount: 2
Fore
SplineSet
489 44 m 1,0,-1
 479 -1 l 1,1,2
 433 0 433 0 407 0 c 2,3,-1
 281 -4 l 1,4,-1
 284 40 l 1,5,-1
 338 52 l 1,6,-1
 333 117 l 1,7,-1
 326 159 l 1,8,-1
 168 159 l 1,9,-1
 138 92 l 1,10,-1
 125 52 l 1,11,-1
 173 44 l 1,12,-1
 163 -1 l 1,13,14
 120 0 120 0 92 0 c 1,15,-1
 -11 -4 l 1,16,-1
 -8 40 l 1,17,-1
 36 50 l 1,18,-1
 79 120 l 1,19,-1
 277 529 l 1,20,-1
 337 537 l 1,21,-1
 428 106 l 1,22,-1
 445 51 l 1,23,-1
 489 44 l 1,0,-1
283 401 m 1,24,-1
 191 206 l 1,25,-1
 316 208 l 1,26,-1
 283 401 l 1,24,-1
411.5 618 m 128,-1,28
 372 582 372 582 306.5 582 c 128,-1,29
 241 582 241 582 212 618 c 0,30,31
 189 645 189 645 189 690 c 0,32,33
 189 705 189 705 192 722 c 1,34,-1
 246 722 l 1,35,36
 245 714 245 714 245 707 c 0,37,38
 245 679 245 679 261.5 658.5 c 128,-1,39
 278 638 278 638 314.5 638 c 128,-1,40
 351 638 351 638 376.5 661 c 128,-1,41
 402 684 402 684 407 722 c 1,42,-1
 461 722 l 1,43,27
 451 654 451 654 411.5 618 c 128,-1,28
EndSplineSet
EndChar

StartChar: Aogonek
Encoding: 260 260 196
Width: 641
GlyphClass: 2
Flags: W
LayerCount: 2
Fore
SplineSet
343 -110 m 0,0,1
 343 -130 343 -130 355 -142.5 c 128,-1,2
 367 -155 367 -155 390 -155 c 128,-1,3
 413 -155 413 -155 445 -142 c 1,4,-1
 454 -175 l 1,5,6
 404 -197 404 -197 365.5 -197 c 128,-1,7
 327 -197 327 -197 303.5 -178 c 128,-1,8
 280 -159 280 -159 280 -122 c 128,-1,9
 280 -85 280 -85 299.5 -60 c 128,-1,10
 319 -35 319 -35 374 9 c 128,-1,11
 429 53 429 53 429 117 c 0,12,13
 429 134 429 134 425 172 c 1,14,-1
 414 232 l 1,15,-1
 201 232 l 1,16,-1
 155 127 l 1,17,-1
 135 64 l 1,18,-1
 202 54 l 1,19,-1
 189 0 l 1,20,-1
 106 0 l 1,21,-1
 -26 -5 l 1,22,-1
 -23 44 l 1,23,-1
 41 61 l 1,24,-1
 97 160 l 1,25,-1
 350 705 l 1,26,-1
 407 715 l 1,27,-1
 525 149 l 1,28,-1
 550 64 l 1,29,-1
 609 54 l 1,30,-1
 596 0 l 1,31,-1
 456 0 l 1,32,33
 408 -6 408 -6 375.5 -40.5 c 128,-1,34
 343 -75 343 -75 343 -110 c 0,0,1
350 557 m 1,35,-1
 225 282 l 1,36,-1
 403 286 l 1,37,-1
 350 557 l 1,35,-1
EndSplineSet
EndChar

StartChar: aogonek
Encoding: 261 261 197
Width: 519
GlyphClass: 2
Flags: W
LayerCount: 2
Fore
SplineSet
406 0 m 2,0,-1
 360 0 l 1,1,2
 312 -6 312 -6 279.5 -40.5 c 128,-1,3
 247 -75 247 -75 247 -110 c 0,4,5
 247 -130 247 -130 259 -142.5 c 128,-1,6
 271 -155 271 -155 294 -155 c 128,-1,7
 317 -155 317 -155 350 -142 c 1,8,-1
 358 -175 l 1,9,10
 311 -197 311 -197 271.5 -197 c 128,-1,11
 232 -197 232 -197 208 -177.5 c 128,-1,12
 184 -158 184 -158 184 -121.5 c 128,-1,13
 184 -85 184 -85 203.5 -60 c 128,-1,14
 223 -35 223 -35 283 13 c 1,15,16
 332 50 332 50 333 117 c 1,17,-1
 325 159 l 1,18,-1
 167 159 l 1,19,-1
 136 92 l 1,20,-1
 125 52 l 1,21,-1
 172 44 l 1,22,-1
 162 -1 l 1,23,24
 119 0 119 0 92 0 c 1,25,-1
 -12 -4 l 1,26,-1
 -7 40 l 1,27,-1
 36 50 l 1,28,-1
 79 120 l 1,29,-1
 277 529 l 1,30,-1
 335 537 l 1,31,-1
 426 106 l 1,32,-1
 444 51 l 1,33,-1
 488 44 l 1,34,-1
 478 -1 l 1,35,36
 431 0 431 0 406 0 c 2,0,-1
280 401 m 1,37,-1
 189 205 l 1,38,-1
 315 208 l 1,39,-1
 280 401 l 1,37,-1
EndSplineSet
EndChar

StartChar: Cacute
Encoding: 262 262 198
Width: 593
GlyphClass: 2
Flags: W
LayerCount: 2
Fore
SplineSet
321 -15 m 0,0,1
 192 -15 192 -15 120.5 65.5 c 128,-1,2
 49 146 49 146 49 281 c 0,3,4
 49 474 49 474 146.5 597 c 128,-1,5
 244 720 244 720 418 720 c 0,6,7
 494 720 494 720 592 692 c 0,8,9
 610 687 610 687 614 686 c 1,10,-1
 583 538 l 1,11,-1
 525 542 l 1,12,-1
 532 589 l 2,13,14
 532 591 532 591 532 599.5 c 128,-1,15
 532 608 532 608 528 639 c 1,16,17
 464 662 464 662 410 662 c 0,18,19
 330 662 330 662 270 607.5 c 128,-1,20
 210 553 210 553 181 468.5 c 128,-1,21
 152 384 152 384 152 280.5 c 128,-1,22
 152 177 152 177 198.5 110 c 128,-1,23
 245 43 245 43 328 43 c 0,24,25
 380 43 380 43 453 65 c 1,26,27
 473 111 473 111 475 121 c 2,28,-1
 484 168 l 1,29,-1
 542 170 l 1,30,-1
 526 19 l 1,31,32
 500 10 500 10 482.5 7 c 128,-1,33
 465 4 465 4 444.5 -1 c 128,-1,34
 424 -6 424 -6 414 -7 c 128,-1,35
 404 -8 404 -8 386 -10 c 0,36,37
 354 -15 354 -15 321 -15 c 0,0,1
531 898 m 1,38,-1
 560 825 l 1,39,40
 432 793 432 793 413 787 c 1,41,-1
 328 750 l 1,42,-1
 308 798 l 1,43,-1
 531 898 l 1,38,-1
EndSplineSet
EndChar

StartChar: cacute
Encoding: 263 263 199
Width: 487
GlyphClass: 2
Flags: W
LayerCount: 2
Fore
SplineSet
262 -11 m 0,0,1
 157 -11 157 -11 100 49.5 c 128,-1,2
 43 110 43 110 43 212 c 0,3,4
 43 356 43 356 121 448 c 128,-1,5
 199 540 199 540 339 540 c 0,6,7
 397 540 397 540 495 515 c 1,8,-1
 469 395 l 1,9,-1
 419 398 l 1,10,-1
 424 437 l 2,11,12
 425 444 425 444 421 472 c 1,13,14
 367 487 367 487 332 487 c 0,15,16
 242 487 242 487 192.5 405 c 128,-1,17
 143 323 143 323 143 211 c 0,18,19
 143 136 143 136 175.5 89 c 128,-1,20
 208 42 208 42 268 42 c 0,21,22
 308 42 308 42 365 57 c 1,23,24
 381 89 381 89 382 97 c 2,25,-1
 390 132 l 1,26,-1
 439 133 l 1,27,-1
 426 14 l 1,28,29
 322 -11 322 -11 262 -11 c 0,0,1
422 755 m 1,30,-1
 467 695 l 1,31,32
 364 635 364 635 350 624 c 2,33,-1
 279 564 l 1,34,-1
 247 605 l 1,35,-1
 422 755 l 1,30,-1
EndSplineSet
EndChar

StartChar: Ccircumflex
Encoding: 264 264 200
Width: 593
GlyphClass: 2
Flags: W
LayerCount: 2
Fore
SplineSet
321 -15 m 0,0,1
 192 -15 192 -15 120.5 65.5 c 128,-1,2
 49 146 49 146 49 281 c 0,3,4
 49 474 49 474 146.5 597 c 128,-1,5
 244 720 244 720 418 720 c 0,6,7
 494 720 494 720 592 692 c 0,8,9
 610 687 610 687 614 686 c 1,10,-1
 583 538 l 1,11,-1
 525 542 l 1,12,-1
 532 589 l 2,13,14
 532 591 532 591 532 599.5 c 128,-1,15
 532 608 532 608 528 639 c 1,16,17
 464 662 464 662 410 662 c 0,18,19
 330 662 330 662 270 607.5 c 128,-1,20
 210 553 210 553 181 468.5 c 128,-1,21
 152 384 152 384 152 280.5 c 128,-1,22
 152 177 152 177 198.5 110 c 128,-1,23
 245 43 245 43 328 43 c 0,24,25
 380 43 380 43 453 65 c 1,26,27
 473 111 473 111 475 121 c 2,28,-1
 484 168 l 1,29,-1
 542 170 l 1,30,-1
 526 19 l 1,31,32
 500 10 500 10 482.5 7 c 128,-1,33
 465 4 465 4 444.5 -1 c 128,-1,34
 424 -6 424 -6 414 -7 c 128,-1,35
 404 -8 404 -8 386 -10 c 0,36,37
 354 -15 354 -15 321 -15 c 0,0,1
429 893 m 1,38,-1
 582 786 l 1,39,-1
 554 747 l 1,40,-1
 475 788 l 1,41,-1
 418 813 l 1,42,43
 409 810 409 810 394 804 c 128,-1,44
 379 798 379 798 368 794 c 128,-1,45
 357 790 357 790 352 788 c 2,46,-1
 261 747 l 1,47,-1
 245 786 l 1,48,-1
 429 893 l 1,38,-1
EndSplineSet
EndChar

StartChar: ccircumflex
Encoding: 265 265 201
Width: 487
GlyphClass: 2
Flags: W
LayerCount: 2
Fore
SplineSet
262 -11 m 0,0,1
 157 -11 157 -11 100 49.5 c 128,-1,2
 43 110 43 110 43 212 c 0,3,4
 43 356 43 356 121 448 c 128,-1,5
 199 540 199 540 339 540 c 0,6,7
 397 540 397 540 495 515 c 1,8,-1
 469 395 l 1,9,-1
 419 398 l 1,10,-1
 424 437 l 2,11,12
 425 444 425 444 421 472 c 1,13,14
 367 487 367 487 332 487 c 0,15,16
 242 487 242 487 192.5 405 c 128,-1,17
 143 323 143 323 143 211 c 0,18,19
 143 136 143 136 175.5 89 c 128,-1,20
 208 42 208 42 268 42 c 0,21,22
 308 42 308 42 365 57 c 1,23,24
 381 89 381 89 382 97 c 2,25,-1
 390 132 l 1,26,-1
 439 133 l 1,27,-1
 426 14 l 1,28,29
 322 -11 322 -11 262 -11 c 0,0,1
360 765 m 1,30,-1
 496 596 l 1,31,-1
 459 564 l 1,32,-1
 396 625 l 1,33,-1
 345 668 l 1,34,35
 330 658 330 658 307 642.5 c 128,-1,36
 284 627 284 627 281 625 c 2,37,-1
 201 564 l 1,38,-1
 174 596 l 1,39,-1
 360 765 l 1,30,-1
EndSplineSet
EndChar

StartChar: Cdotaccent
Encoding: 266 266 202
Width: 593
GlyphClass: 2
Flags: W
LayerCount: 2
Fore
SplineSet
321 -15 m 0,0,1
 192 -15 192 -15 120.5 65.5 c 128,-1,2
 49 146 49 146 49 281 c 0,3,4
 49 474 49 474 146.5 597 c 128,-1,5
 244 720 244 720 418 720 c 0,6,7
 494 720 494 720 592 692 c 0,8,9
 610 687 610 687 614 686 c 1,10,-1
 583 538 l 1,11,-1
 525 542 l 1,12,-1
 532 589 l 2,13,14
 532 591 532 591 532 599.5 c 128,-1,15
 532 608 532 608 528 639 c 1,16,17
 464 662 464 662 410 662 c 0,18,19
 330 662 330 662 270 607.5 c 128,-1,20
 210 553 210 553 181 468.5 c 128,-1,21
 152 384 152 384 152 280.5 c 128,-1,22
 152 177 152 177 198.5 110 c 128,-1,23
 245 43 245 43 328 43 c 0,24,25
 380 43 380 43 453 65 c 1,26,27
 473 111 473 111 475 121 c 2,28,-1
 484 168 l 1,29,-1
 542 170 l 1,30,-1
 526 19 l 1,31,32
 500 10 500 10 482.5 7 c 128,-1,33
 465 4 465 4 444.5 -1 c 128,-1,34
 424 -6 424 -6 414 -7 c 128,-1,35
 404 -8 404 -8 386 -10 c 0,36,37
 354 -15 354 -15 321 -15 c 0,0,1
385.5 868.5 m 128,-1,39
 404 890 404 890 431 890 c 0,40,41
 484 890 484 890 484 837 c 0,42,43
 484 804 484 804 465 782.5 c 128,-1,44
 446 761 446 761 419 761 c 0,45,46
 367 761 367 761 367 814 c 0,47,38
 367 847 367 847 385.5 868.5 c 128,-1,39
EndSplineSet
EndChar

StartChar: cdotaccent
Encoding: 267 267 203
Width: 487
GlyphClass: 2
Flags: W
LayerCount: 2
Fore
SplineSet
262 -11 m 0,0,1
 157 -11 157 -11 100 49.5 c 128,-1,2
 43 110 43 110 43 212 c 0,3,4
 43 356 43 356 121 448 c 128,-1,5
 199 540 199 540 339 540 c 0,6,7
 397 540 397 540 495 515 c 1,8,-1
 469 395 l 1,9,-1
 419 398 l 1,10,-1
 424 437 l 2,11,12
 425 444 425 444 421 472 c 1,13,14
 367 487 367 487 332 487 c 0,15,16
 242 487 242 487 192.5 405 c 128,-1,17
 143 323 143 323 143 211 c 0,18,19
 143 136 143 136 175.5 89 c 128,-1,20
 208 42 208 42 268 42 c 0,21,22
 308 42 308 42 365 57 c 1,23,24
 381 89 381 89 382 97 c 2,25,-1
 390 132 l 1,26,-1
 439 133 l 1,27,-1
 426 14 l 1,28,29
 322 -11 322 -11 262 -11 c 0,0,1
303.5 698.5 m 128,-1,31
 322 720 322 720 349 720 c 0,32,33
 402 720 402 720 402 667 c 0,34,35
 402 634 402 634 383 612.5 c 128,-1,36
 364 591 364 591 337 591 c 0,37,38
 285 591 285 591 285 644 c 0,39,30
 285 677 285 677 303.5 698.5 c 128,-1,31
EndSplineSet
EndChar

StartChar: Ccaron
Encoding: 268 268 204
Width: 593
GlyphClass: 2
Flags: W
LayerCount: 2
Fore
SplineSet
321 -15 m 0,0,1
 192 -15 192 -15 120.5 65.5 c 128,-1,2
 49 146 49 146 49 281 c 0,3,4
 49 474 49 474 146.5 597 c 128,-1,5
 244 720 244 720 418 720 c 0,6,7
 494 720 494 720 592 692 c 0,8,9
 610 687 610 687 614 686 c 1,10,-1
 583 538 l 1,11,-1
 525 542 l 1,12,-1
 532 589 l 2,13,14
 532 591 532 591 532 599.5 c 128,-1,15
 532 608 532 608 528 639 c 1,16,17
 464 662 464 662 410 662 c 0,18,19
 330 662 330 662 270 607.5 c 128,-1,20
 210 553 210 553 181 468.5 c 128,-1,21
 152 384 152 384 152 280.5 c 128,-1,22
 152 177 152 177 198.5 110 c 128,-1,23
 245 43 245 43 328 43 c 0,24,25
 380 43 380 43 453 65 c 1,26,27
 473 111 473 111 475 121 c 2,28,-1
 484 168 l 1,29,-1
 542 170 l 1,30,-1
 526 19 l 1,31,32
 500 10 500 10 482.5 7 c 128,-1,33
 465 4 465 4 444.5 -1 c 128,-1,34
 424 -6 424 -6 414 -7 c 128,-1,35
 404 -8 404 -8 386 -10 c 0,36,37
 354 -15 354 -15 321 -15 c 0,0,1
575 893 m 1,38,-1
 592 854 l 1,39,-1
 408 747 l 1,40,-1
 255 854 l 1,41,-1
 282 893 l 1,42,-1
 362 852 l 1,43,-1
 420 827 l 1,44,45
 464 845 464 845 485 852 c 1,46,-1
 575 893 l 1,38,-1
EndSplineSet
EndChar

StartChar: ccaron
Encoding: 269 269 205
Width: 487
GlyphClass: 2
Flags: W
LayerCount: 2
Fore
SplineSet
262 -11 m 0,0,1
 157 -11 157 -11 100 49.5 c 128,-1,2
 43 110 43 110 43 212 c 0,3,4
 43 356 43 356 121 448 c 128,-1,5
 199 540 199 540 339 540 c 0,6,7
 397 540 397 540 495 515 c 1,8,-1
 469 395 l 1,9,-1
 419 398 l 1,10,-1
 424 437 l 2,11,12
 425 444 425 444 421 472 c 1,13,14
 367 487 367 487 332 487 c 0,15,16
 242 487 242 487 192.5 405 c 128,-1,17
 143 323 143 323 143 211 c 0,18,19
 143 136 143 136 175.5 89 c 128,-1,20
 208 42 208 42 268 42 c 0,21,22
 308 42 308 42 365 57 c 1,23,24
 381 89 381 89 382 97 c 2,25,-1
 390 132 l 1,26,-1
 439 133 l 1,27,-1
 426 14 l 1,28,29
 322 -11 322 -11 262 -11 c 0,0,1
493 717 m 1,30,-1
 510 678 l 1,31,-1
 326 571 l 1,32,-1
 173 678 l 1,33,-1
 200 717 l 1,34,-1
 280 676 l 1,35,-1
 338 651 l 1,36,37
 382 669 382 669 403 676 c 1,38,-1
 493 717 l 1,30,-1
EndSplineSet
EndChar

StartChar: Dcaron
Encoding: 270 270 206
Width: 700
GlyphClass: 2
Flags: W
LayerCount: 2
Fore
SplineSet
298 -6 m 1,0,-1
 123 0 l 1,1,-1
 9 -5 l 1,2,-1
 11 45 l 1,3,-1
 90 61 l 1,4,5
 105 111 105 111 110 137 c 1,6,-1
 173 568 l 2,7,8
 175 585 175 585 175 644 c 1,9,-1
 102 656 l 1,10,-1
 115 710 l 1,11,12
 176 707 176 707 210 705 c 1,13,14
 235 706 235 706 291.5 710.5 c 128,-1,15
 348 715 348 715 383 715 c 0,16,17
 524 715 524 715 602.5 635.5 c 128,-1,18
 681 556 681 556 681 418 c 0,19,20
 681 229 681 229 577.5 111.5 c 128,-1,21
 474 -6 474 -6 298 -6 c 1,0,-1
385 655 m 0,22,23
 324 655 324 655 282 650 c 1,24,25
 268 595 268 595 259 538 c 2,26,-1
 205 167 l 2,27,28
 195 97 195 97 195 79 c 128,-1,29
 195 61 195 61 196 57 c 1,30,31
 244 53 244 53 307 53 c 0,32,33
 398 53 398 53 462 104 c 0,34,35
 582 202 582 202 582 412 c 0,36,37
 582 520 582 520 532.5 587.5 c 128,-1,38
 483 655 483 655 385 655 c 0,22,23
550 893 m 1,39,-1
 567 854 l 1,40,-1
 383 747 l 1,41,-1
 230 854 l 1,42,-1
 257 893 l 1,43,-1
 337 852 l 1,44,-1
 395 827 l 1,45,46
 439 845 439 845 460 852 c 1,47,-1
 550 893 l 1,39,-1
EndSplineSet
EndChar

StartChar: dcaron
Encoding: 271 271 207
Width: 568
GlyphClass: 2
Flags: W
LayerCount: 2
Fore
SplineSet
174 529 m 1,0,-1
 316 536 l 1,1,2
 427 536 427 536 487.5 476 c 128,-1,3
 548 416 548 416 548 313 c 0,4,5
 548 172 548 172 467 83.5 c 128,-1,6
 386 -5 386 -5 246 -5 c 1,7,-1
 101 0 l 1,8,-1
 17 -4 l 1,9,-1
 19 39 l 1,10,-1
 77 50 l 1,11,12
 90 88 90 88 93 110 c 2,13,-1
 139 410 l 2,14,15
 142 432 142 432 142 477 c 1,16,-1
 88 486 l 1,17,-1
 99 533 l 1,18,19
 144 530 144 530 174 529 c 1,0,-1
311 485 m 0,20,21
 273 485 273 485 241 480 c 1,22,23
 233 454 233 454 225 405 c 2,24,-1
 184 133 l 1,25,26
 175 81 175 81 175 49 c 1,27,28
 205 47 205 47 249 47 c 0,29,30
 319 47 319 47 367 87 c 0,31,32
 454 160 454 160 454 312 c 0,33,34
 454 389 454 389 418.5 437 c 128,-1,35
 383 485 383 485 311 485 c 0,20,21
473 717 m 1,36,-1
 490 678 l 1,37,-1
 306 571 l 1,38,-1
 153 678 l 1,39,-1
 180 717 l 1,40,-1
 260 676 l 1,41,-1
 318 651 l 1,42,43
 362 669 362 669 383 676 c 1,44,-1
 473 717 l 1,36,-1
EndSplineSet
EndChar

StartChar: Dcroat
Encoding: 272 272 208
Width: 700
GlyphClass: 2
Flags: W
LayerCount: 2
Fore
SplineSet
288 -6 m 1,0,-1
 125 0 l 1,1,-1
 10 -5 l 1,2,-1
 13 45 l 1,3,-1
 91 61 l 1,4,5
 109 119 109 119 111 137 c 2,6,-1
 140 337 l 1,7,-1
 55 337 l 1,8,-1
 61 380 l 1,9,-1
 146 380 l 1,10,-1
 174 568 l 2,11,12
 176 585 176 585 176 644 c 1,13,-1
 104 656 l 1,14,-1
 117 710 l 1,15,16
 178 707 178 707 211 705 c 1,17,18
 236 706 236 706 296.5 710.5 c 128,-1,19
 357 715 357 715 393 715 c 0,20,21
 533 715 533 715 607 636 c 128,-1,22
 681 557 681 557 681 417 c 0,23,24
 681 230 681 230 572.5 112 c 128,-1,25
 464 -6 464 -6 288 -6 c 1,0,-1
298 53 m 0,26,27
 433 53 433 53 509 157.5 c 128,-1,28
 585 262 585 262 585 411 c 0,29,30
 585 519 585 519 535 587 c 128,-1,31
 485 655 485 655 386 655 c 0,32,33
 321 655 321 655 281 650 c 1,34,35
 264 586 264 586 257 538 c 2,36,-1
 234 380 l 1,37,-1
 373 380 l 1,38,-1
 362 337 l 1,39,-1
 228 337 l 1,40,-1
 203 167 l 2,41,42
 194 105 194 105 194 57 c 1,43,44
 244 53 244 53 298 53 c 0,26,27
EndSplineSet
EndChar

StartChar: dcroat
Encoding: 273 273 209
Width: 567
GlyphClass: 2
Flags: W
LayerCount: 2
Fore
SplineSet
170 529 m 1,0,-1
 319 536 l 1,1,2
 429 536 429 536 488 475.5 c 128,-1,3
 547 415 547 415 547 310 c 0,4,5
 547 171 547 171 463.5 83 c 128,-1,6
 380 -5 380 -5 240 -5 c 1,7,-1
 103 0 l 1,8,-1
 17 -4 l 1,9,-1
 20 40 l 1,10,-1
 78 50 l 1,11,12
 91 88 91 88 94 110 c 2,13,-1
 114 248 l 1,14,-1
 52 248 l 1,15,-1
 58 289 l 1,16,-1
 120 289 l 1,17,-1
 138 410 l 2,18,19
 141 432 141 432 141 477 c 1,20,-1
 87 486 l 1,21,-1
 97 533 l 1,22,23
 142 530 142 530 170 529 c 1,0,-1
244 47 m 0,24,25
 346 47 346 47 400 123 c 128,-1,26
 454 199 454 199 454 309 c 0,27,28
 454 387 454 387 418 436 c 128,-1,29
 382 485 382 485 309 485 c 0,30,31
 267 485 267 485 237 480 c 1,32,33
 226 440 226 440 221 405 c 2,34,-1
 204 289 l 1,35,-1
 301 289 l 1,36,-1
 291 248 l 1,37,-1
 198 248 l 1,38,-1
 181 133 l 2,39,40
 174 84 174 84 174 49 c 1,41,42
 206 47 206 47 244 47 c 0,24,25
EndSplineSet
EndChar

StartChar: Emacron
Encoding: 274 274 210
Width: 572
GlyphClass: 2
Flags: W
LayerCount: 2
Fore
SplineSet
226 705 m 2,0,-1
 445 705 l 1,1,-1
 557 715 l 1,2,-1
 573 697 l 1,3,-1
 560 561 l 1,4,-1
 503 556 l 1,5,6
 503 588 503 588 501.5 604.5 c 128,-1,7
 500 621 500 621 486 644 c 1,8,9
 434 649 434 649 408 649 c 2,10,-1
 282 649 l 1,11,12
 265 579 265 579 259 538 c 2,13,-1
 238 396 l 1,14,15
 270 394 270 394 279 394 c 2,16,-1
 349 394 l 1,17,-1
 408 403 l 1,18,-1
 426 469 l 1,19,-1
 471 464 l 1,20,21
 461 400 461 400 458 380 c 2,22,-1
 445 271 l 1,23,-1
 397 265 l 1,24,-1
 398 332 l 1,25,26
 341 338 341 338 322 338 c 2,27,-1
 271 338 l 2,28,29
 254 338 254 338 229 335 c 1,30,-1
 205 167 l 2,31,32
 196 107 196 107 196 57 c 1,33,-1
 334 57 l 2,34,35
 370 57 370 57 420 66 c 1,36,37
 442 94 442 94 445 103 c 0,38,39
 464 149 464 149 470 170 c 1,40,-1
 523 165 l 1,41,-1
 486 14 l 1,42,-1
 465 -4 l 1,43,44
 375 0 375 0 355 0 c 2,45,-1
 123 0 l 1,46,-1
 9 -5 l 1,47,-1
 11 45 l 1,48,-1
 90 61 l 1,49,50
 105 111 105 111 110 137 c 1,51,-1
 173 568 l 2,52,53
 175 585 175 585 175 644 c 1,54,-1
 102 656 l 1,55,-1
 115 710 l 1,56,57
 206 705 206 705 226 705 c 2,0,-1
517 781 m 1,58,-1
 209 781 l 1,59,-1
 217 834 l 1,60,-1
 530 834 l 1,61,-1
 517 781 l 1,58,-1
EndSplineSet
EndChar

StartChar: emacron
Encoding: 275 275 211
Width: 471
GlyphClass: 2
Flags: W
LayerCount: 2
Fore
SplineSet
182 529 m 2,0,-1
 364 529 l 1,1,-1
 451 536 l 1,2,-1
 463 523 l 1,3,-1
 453 415 l 1,4,-1
 405 411 l 1,5,6
 405 431 405 431 404 446.5 c 128,-1,7
 403 462 403 462 394 476 c 1,8,9
 346 479 346 479 334 479 c 2,10,-1
 241 479 l 1,11,12
 233 449 233 449 225 405 c 2,13,-1
 208 298 l 1,14,15
 219 297 219 297 236 297 c 2,16,-1
 287 297 l 1,17,-1
 328 303 l 1,18,-1
 343 352 l 1,19,-1
 381 349 l 1,20,21
 374 301 374 301 371 286 c 1,22,-1
 361 199 l 1,23,-1
 319 194 l 1,24,-1
 319 243 l 1,25,26
 279 247 279 247 264 247 c 2,27,-1
 230 247 l 2,28,29
 211 247 211 247 201 246 c 1,30,-1
 184 133 l 2,31,32
 178 98 178 98 175 51 c 1,33,-1
 279 51 l 2,34,35
 303 51 303 51 343 58 c 1,36,37
 368 89 368 89 380 135 c 1,38,-1
 426 131 l 1,39,-1
 396 11 l 1,40,-1
 380 -3 l 1,41,42
 309 0 309 0 294 0 c 2,43,-1
 101 0 l 1,44,-1
 17 -4 l 1,45,-1
 19 39 l 1,46,-1
 77 50 l 1,47,48
 87 73 87 73 93 110 c 2,49,-1
 139 410 l 2,50,51
 143 438 143 438 143 453.5 c 128,-1,52
 143 469 143 469 142 477 c 1,53,-1
 88 486 l 1,54,-1
 99 533 l 1,55,56
 162 529 162 529 182 529 c 2,0,-1
449 606 m 1,57,-1
 141 606 l 1,58,-1
 149 659 l 1,59,-1
 462 659 l 1,60,-1
 449 606 l 1,57,-1
EndSplineSet
EndChar

StartChar: Ebreve
Encoding: 276 276 212
Width: 572
GlyphClass: 2
Flags: W
LayerCount: 2
Fore
SplineSet
226 705 m 2,0,-1
 445 705 l 1,1,-1
 557 715 l 1,2,-1
 573 697 l 1,3,-1
 560 561 l 1,4,-1
 503 556 l 1,5,6
 503 588 503 588 501.5 604.5 c 128,-1,7
 500 621 500 621 486 644 c 1,8,9
 434 649 434 649 408 649 c 2,10,-1
 282 649 l 1,11,12
 265 579 265 579 259 538 c 2,13,-1
 238 396 l 1,14,15
 270 394 270 394 279 394 c 2,16,-1
 349 394 l 1,17,-1
 408 403 l 1,18,-1
 426 469 l 1,19,-1
 471 464 l 1,20,21
 461 400 461 400 458 380 c 2,22,-1
 445 271 l 1,23,-1
 397 265 l 1,24,-1
 398 332 l 1,25,26
 341 338 341 338 322 338 c 2,27,-1
 271 338 l 2,28,29
 254 338 254 338 229 335 c 1,30,-1
 205 167 l 2,31,32
 196 107 196 107 196 57 c 1,33,-1
 334 57 l 2,34,35
 370 57 370 57 420 66 c 1,36,37
 442 94 442 94 445 103 c 0,38,39
 464 149 464 149 470 170 c 1,40,-1
 523 165 l 1,41,-1
 486 14 l 1,42,-1
 465 -4 l 1,43,44
 375 0 375 0 355 0 c 2,45,-1
 123 0 l 1,46,-1
 9 -5 l 1,47,-1
 11 45 l 1,48,-1
 90 61 l 1,49,50
 105 111 105 111 110 137 c 1,51,-1
 173 568 l 2,52,53
 175 585 175 585 175 644 c 1,54,-1
 102 656 l 1,55,-1
 115 710 l 1,56,57
 206 705 206 705 226 705 c 2,0,-1
464.5 794 m 128,-1,59
 425 758 425 758 359.5 758 c 128,-1,60
 294 758 294 758 264 794 c 0,61,62
 242 821 242 821 242 866 c 0,63,64
 242 881 242 881 245 898 c 1,65,-1
 299 898 l 1,66,67
 298 890 298 890 298 883 c 0,68,69
 298 855 298 855 314.5 834.5 c 128,-1,70
 331 814 331 814 367.5 814 c 128,-1,71
 404 814 404 814 429.5 837 c 128,-1,72
 455 860 455 860 460 898 c 1,73,-1
 514 898 l 1,74,58
 504 830 504 830 464.5 794 c 128,-1,59
EndSplineSet
EndChar

StartChar: ebreve
Encoding: 277 277 213
Width: 471
GlyphClass: 2
Flags: W
LayerCount: 2
Fore
SplineSet
182 529 m 2,0,-1
 364 529 l 1,1,-1
 451 536 l 1,2,-1
 463 523 l 1,3,-1
 453 415 l 1,4,-1
 405 411 l 1,5,6
 405 431 405 431 404 446.5 c 128,-1,7
 403 462 403 462 394 476 c 1,8,9
 346 479 346 479 334 479 c 2,10,-1
 241 479 l 1,11,12
 233 449 233 449 225 405 c 2,13,-1
 208 298 l 1,14,15
 219 297 219 297 236 297 c 2,16,-1
 287 297 l 1,17,-1
 328 303 l 1,18,-1
 343 352 l 1,19,-1
 381 349 l 1,20,21
 374 301 374 301 371 286 c 1,22,-1
 361 199 l 1,23,-1
 319 194 l 1,24,-1
 319 243 l 1,25,26
 279 247 279 247 264 247 c 2,27,-1
 230 247 l 2,28,29
 211 247 211 247 201 246 c 1,30,-1
 184 133 l 2,31,32
 178 98 178 98 175 51 c 1,33,-1
 279 51 l 2,34,35
 303 51 303 51 343 58 c 1,36,37
 368 89 368 89 380 135 c 1,38,-1
 426 131 l 1,39,-1
 396 11 l 1,40,-1
 380 -3 l 1,41,42
 309 0 309 0 294 0 c 2,43,-1
 101 0 l 1,44,-1
 17 -4 l 1,45,-1
 19 39 l 1,46,-1
 77 50 l 1,47,48
 87 73 87 73 93 110 c 2,49,-1
 139 410 l 2,50,51
 143 438 143 438 143 453.5 c 128,-1,52
 143 469 143 469 142 477 c 1,53,-1
 88 486 l 1,54,-1
 99 533 l 1,55,56
 162 529 162 529 182 529 c 2,0,-1
382.5 618 m 128,-1,58
 343 582 343 582 277.5 582 c 128,-1,59
 212 582 212 582 182 618 c 0,60,61
 160 645 160 645 160 690 c 0,62,63
 160 705 160 705 163 722 c 1,64,-1
 217 722 l 1,65,66
 216 714 216 714 216 707 c 0,67,68
 216 679 216 679 232.5 658.5 c 128,-1,69
 249 638 249 638 285.5 638 c 128,-1,70
 322 638 322 638 347.5 661 c 128,-1,71
 373 684 373 684 378 722 c 1,72,-1
 432 722 l 1,73,57
 422 654 422 654 382.5 618 c 128,-1,58
EndSplineSet
EndChar

StartChar: Edotaccent
Encoding: 278 278 214
Width: 572
GlyphClass: 2
Flags: W
LayerCount: 2
Fore
SplineSet
226 705 m 2,0,-1
 445 705 l 1,1,-1
 557 715 l 1,2,-1
 573 697 l 1,3,-1
 560 561 l 1,4,-1
 503 556 l 1,5,6
 503 588 503 588 501.5 604.5 c 128,-1,7
 500 621 500 621 486 644 c 1,8,9
 434 649 434 649 408 649 c 2,10,-1
 282 649 l 1,11,12
 265 579 265 579 259 538 c 2,13,-1
 238 396 l 1,14,15
 270 394 270 394 279 394 c 2,16,-1
 349 394 l 1,17,-1
 408 403 l 1,18,-1
 426 469 l 1,19,-1
 471 464 l 1,20,21
 461 400 461 400 458 380 c 2,22,-1
 445 271 l 1,23,-1
 397 265 l 1,24,-1
 398 332 l 1,25,26
 341 338 341 338 322 338 c 2,27,-1
 271 338 l 2,28,29
 254 338 254 338 229 335 c 1,30,-1
 205 167 l 2,31,32
 196 107 196 107 196 57 c 1,33,-1
 334 57 l 2,34,35
 370 57 370 57 420 66 c 1,36,37
 442 94 442 94 445 103 c 0,38,39
 464 149 464 149 470 170 c 1,40,-1
 523 165 l 1,41,-1
 486 14 l 1,42,-1
 465 -4 l 1,43,44
 375 0 375 0 355 0 c 2,45,-1
 123 0 l 1,46,-1
 9 -5 l 1,47,-1
 11 45 l 1,48,-1
 90 61 l 1,49,50
 105 111 105 111 110 137 c 1,51,-1
 173 568 l 2,52,53
 175 585 175 585 175 644 c 1,54,-1
 102 656 l 1,55,-1
 115 710 l 1,56,57
 206 705 206 705 226 705 c 2,0,-1
335.5 868.5 m 128,-1,59
 354 890 354 890 381 890 c 0,60,61
 434 890 434 890 434 837 c 0,62,63
 434 804 434 804 415 782.5 c 128,-1,64
 396 761 396 761 369 761 c 0,65,66
 317 761 317 761 317 814 c 0,67,58
 317 847 317 847 335.5 868.5 c 128,-1,59
EndSplineSet
EndChar

StartChar: edotaccent
Encoding: 279 279 215
Width: 471
GlyphClass: 2
Flags: W
LayerCount: 2
Fore
SplineSet
182 529 m 2,0,-1
 364 529 l 1,1,-1
 451 536 l 1,2,-1
 463 523 l 1,3,-1
 453 415 l 1,4,-1
 405 411 l 1,5,6
 405 431 405 431 404 446.5 c 128,-1,7
 403 462 403 462 394 476 c 1,8,9
 346 479 346 479 334 479 c 2,10,-1
 241 479 l 1,11,12
 233 449 233 449 225 405 c 2,13,-1
 208 298 l 1,14,15
 219 297 219 297 236 297 c 2,16,-1
 287 297 l 1,17,-1
 328 303 l 1,18,-1
 343 352 l 1,19,-1
 381 349 l 1,20,21
 374 301 374 301 371 286 c 1,22,-1
 361 199 l 1,23,-1
 319 194 l 1,24,-1
 319 243 l 1,25,26
 279 247 279 247 264 247 c 2,27,-1
 230 247 l 2,28,29
 211 247 211 247 201 246 c 1,30,-1
 184 133 l 2,31,32
 178 98 178 98 175 51 c 1,33,-1
 279 51 l 2,34,35
 303 51 303 51 343 58 c 1,36,37
 368 89 368 89 380 135 c 1,38,-1
 426 131 l 1,39,-1
 396 11 l 1,40,-1
 380 -3 l 1,41,42
 309 0 309 0 294 0 c 2,43,-1
 101 0 l 1,44,-1
 17 -4 l 1,45,-1
 19 39 l 1,46,-1
 77 50 l 1,47,48
 87 73 87 73 93 110 c 2,49,-1
 139 410 l 2,50,51
 143 438 143 438 143 453.5 c 128,-1,52
 143 469 143 469 142 477 c 1,53,-1
 88 486 l 1,54,-1
 99 533 l 1,55,56
 162 529 162 529 182 529 c 2,0,-1
274.5 698.5 m 128,-1,58
 293 720 293 720 320 720 c 0,59,60
 373 720 373 720 373 667 c 0,61,62
 373 634 373 634 354 612.5 c 128,-1,63
 335 591 335 591 308 591 c 0,64,65
 256 591 256 591 256 644 c 0,66,57
 256 677 256 677 274.5 698.5 c 128,-1,58
EndSplineSet
EndChar

StartChar: Eogonek
Encoding: 280 280 216
Width: 572
GlyphClass: 2
Flags: W
LayerCount: 2
Fore
SplineSet
226 705 m 2,0,-1
 445 705 l 1,1,-1
 557 715 l 1,2,-1
 573 697 l 1,3,-1
 560 561 l 1,4,-1
 503 556 l 1,5,6
 503 588 503 588 501.5 604.5 c 128,-1,7
 500 621 500 621 486 644 c 1,8,9
 434 649 434 649 408 649 c 2,10,-1
 282 649 l 1,11,12
 265 579 265 579 259 538 c 2,13,-1
 238 396 l 1,14,15
 270 394 270 394 279 394 c 2,16,-1
 349 394 l 1,17,-1
 408 403 l 1,18,-1
 426 469 l 1,19,-1
 471 464 l 1,20,21
 461 400 461 400 458 380 c 2,22,-1
 445 271 l 1,23,-1
 397 265 l 1,24,-1
 398 332 l 1,25,26
 341 338 341 338 322 338 c 2,27,-1
 271 338 l 2,28,29
 254 338 254 338 229 335 c 1,30,-1
 205 167 l 2,31,32
 196 107 196 107 196 57 c 1,33,-1
 334 57 l 2,34,35
 370 57 370 57 420 66 c 1,36,37
 442 94 442 94 445 103 c 0,38,39
 464 149 464 149 470 170 c 1,40,-1
 523 165 l 1,41,-1
 486 14 l 1,42,-1
 470 0 l 1,43,-1
 500 -4 l 1,44,-1
 484 -4 l 2,45,46
 419 -4 419 -4 383 -38.5 c 128,-1,47
 347 -73 347 -73 347 -110 c 0,48,49
 347 -130 347 -130 359 -142.5 c 128,-1,50
 371 -155 371 -155 394 -155 c 128,-1,51
 417 -155 417 -155 449 -142 c 1,52,-1
 458 -175 l 1,53,54
 411 -197 411 -197 371 -197 c 128,-1,55
 331 -197 331 -197 307.5 -178 c 128,-1,56
 284 -159 284 -159 284 -123 c 128,-1,57
 284 -87 284 -87 301 -63 c 128,-1,58
 318 -39 318 -39 366 0 c 1,59,-1
 123 0 l 1,60,-1
 9 -5 l 1,61,-1
 11 45 l 1,62,-1
 90 61 l 1,63,64
 105 111 105 111 110 137 c 1,65,-1
 173 568 l 2,66,67
 175 585 175 585 175 644 c 1,68,-1
 102 656 l 1,69,-1
 115 710 l 1,70,71
 206 705 206 705 226 705 c 2,0,-1
EndSplineSet
EndChar

StartChar: eogonek
Encoding: 281 281 217
Width: 603
GlyphClass: 2
Flags: W
LayerCount: 2
Fore
SplineSet
179 529 m 2,0,-1
 227 529 l 1,1,-1
 239 514 l 1,2,3
 285 416 285 416 293 400 c 1,4,-1
 444 142 l 1,5,-1
 482 405 l 2,6,7
 486 428 486 428 486 446 c 128,-1,8
 486 464 486 464 485 476 c 1,9,-1
 430 482 l 1,10,-1
 441 531 l 1,11,-1
 508 529 l 1,12,-1
 629 533 l 1,13,-1
 626 485 l 1,14,-1
 568 476 l 1,15,16
 550 417 550 417 547 400 c 2,17,-1
 488 -3 l 1,18,19
 485 -32 485 -32 370 -150 c 1,20,-1
 343 -131 l 1,21,22
 410 -21 410 -21 420 2 c 1,23,-1
 199 386 l 1,24,-1
 162 133 l 2,25,26
 156 88 156 88 156 50 c 1,27,-1
 213 45 l 1,28,-1
 201 -4 l 1,29,30
 166 0 166 0 98 0 c 1,31,-1
 17 -4 l 1,32,-1
 21 40 l 1,33,-1
 78 50 l 1,34,35
 92 96 92 96 94 110 c 2,36,-1
 138 410 l 2,37,38
 141 430 141 430 141 477 c 1,39,-1
 85 486 l 1,40,-1
 96 533 l 1,41,42
 157 529 157 529 179 529 c 2,0,-1
EndSplineSet
EndChar

StartChar: Ecaron
Encoding: 282 282 218
Width: 572
GlyphClass: 2
Flags: W
LayerCount: 2
Fore
SplineSet
226 705 m 2,0,-1
 445 705 l 1,1,-1
 557 715 l 1,2,-1
 573 697 l 1,3,-1
 560 561 l 1,4,-1
 503 556 l 1,5,6
 503 588 503 588 501.5 604.5 c 128,-1,7
 500 621 500 621 486 644 c 1,8,9
 434 649 434 649 408 649 c 2,10,-1
 282 649 l 1,11,12
 265 579 265 579 259 538 c 2,13,-1
 238 396 l 1,14,15
 270 394 270 394 279 394 c 2,16,-1
 349 394 l 1,17,-1
 408 403 l 1,18,-1
 426 469 l 1,19,-1
 471 464 l 1,20,21
 461 400 461 400 458 380 c 2,22,-1
 445 271 l 1,23,-1
 397 265 l 1,24,-1
 398 332 l 1,25,26
 341 338 341 338 322 338 c 2,27,-1
 271 338 l 2,28,29
 254 338 254 338 229 335 c 1,30,-1
 205 167 l 2,31,32
 196 107 196 107 196 57 c 1,33,-1
 334 57 l 2,34,35
 370 57 370 57 420 66 c 1,36,37
 442 94 442 94 445 103 c 0,38,39
 464 149 464 149 470 170 c 1,40,-1
 523 165 l 1,41,-1
 486 14 l 1,42,-1
 465 -4 l 1,43,44
 375 0 375 0 355 0 c 2,45,-1
 123 0 l 1,46,-1
 9 -5 l 1,47,-1
 11 45 l 1,48,-1
 90 61 l 1,49,50
 105 111 105 111 110 137 c 1,51,-1
 173 568 l 2,52,53
 175 585 175 585 175 644 c 1,54,-1
 102 656 l 1,55,-1
 115 710 l 1,56,57
 206 705 206 705 226 705 c 2,0,-1
525 893 m 1,58,-1
 542 854 l 1,59,-1
 358 747 l 1,60,-1
 205 854 l 1,61,-1
 232 893 l 1,62,-1
 312 852 l 1,63,-1
 370 827 l 1,64,65
 414 845 414 845 435 852 c 1,66,-1
 525 893 l 1,58,-1
EndSplineSet
EndChar

